<svg width="159.359375" height="67.000000" viewBox="0 0 159.359 67" fill="none" xmlns="http://www.w3.org/2000/svg" xmlns:xlink="http://www.w3.org/1999/xlink">
	<desc>
			Created with Pixso.
	</desc>
	<defs>
		<clipPath id="clip3_3524">
			<rect id="Logo" width="68.000000" height="67.000000" fill="white" fill-opacity="0"/>
		</clipPath>
	</defs>
	<rect id="Logo" width="159.359375" height="67.000000" fill="#1D1D1B" fill-opacity="1.000000"/>
	<path id="Vector" d="M153.292 31.5693L156.952 19.7754L159.359 19.7754L154.082 34.9619C153.961 35.2861 153.799 35.6348 153.596 36.0073C153.401 36.3887 153.15 36.749 152.842 37.0894C152.534 37.4302 152.161 37.7056 151.724 37.9165C151.294 38.1353 150.779 38.2446 150.179 38.2446C150.001 38.2446 149.774 38.2202 149.499 38.1719C149.223 38.123 149.028 38.0825 148.915 38.0503L148.903 36.2261C148.968 36.2344 149.069 36.2427 149.207 36.2505C149.353 36.2666 149.454 36.2749 149.511 36.2749C150.021 36.2749 150.455 36.2061 150.812 36.0684C151.168 35.9385 151.468 35.7158 151.711 35.3994C151.963 35.0913 152.178 34.666 152.356 34.123L153.292 31.5693ZM150.605 19.7754L154.022 29.9888L154.605 32.3599L152.988 33.1865L148.149 19.7754L150.605 19.7754Z" fill="#FBFBFB" fill-opacity="1.000000" fill-rule="evenodd"/>
	<path id="Vector" d="M146.957 19.7754L146.957 21.502L139.844 21.502L139.844 19.7754L146.957 19.7754ZM142.252 16.5776L144.501 16.5776L144.501 29.6729C144.501 30.1187 144.57 30.4551 144.708 30.6821C144.846 30.9087 145.024 31.0586 145.243 31.1318C145.462 31.2046 145.697 31.2412 145.948 31.2412C146.135 31.2412 146.329 31.2251 146.532 31.1924C146.743 31.1519 146.901 31.1196 147.006 31.0952L147.018 32.9312C146.84 32.9878 146.605 33.0405 146.313 33.0894C146.029 33.146 145.685 33.1743 145.28 33.1743C144.728 33.1743 144.222 33.0649 143.76 32.8462C143.298 32.6274 142.929 32.2627 142.653 31.752C142.386 31.2329 142.252 30.5361 142.252 29.6606L142.252 16.5776Z" fill="#FBFBFB" fill-opacity="1.000000" fill-rule="evenodd"/>
	<path id="Vector" d="M133.704 33.1743C132.788 33.1743 131.957 33.0205 131.212 32.7124C130.474 32.3965 129.838 31.9546 129.303 31.3872C128.776 30.8198 128.37 30.147 128.087 29.3687C127.803 28.5903 127.661 27.7393 127.661 26.8154L127.661 26.3047C127.661 25.2349 127.819 24.2822 128.135 23.4473C128.452 22.6045 128.881 21.8911 129.424 21.3076C129.967 20.7236 130.583 20.2822 131.272 19.9819C131.961 19.6821 132.675 19.5322 133.412 19.5322C134.353 19.5322 135.163 19.6943 135.844 20.0186C136.533 20.3428 137.097 20.7969 137.534 21.3804C137.972 21.9561 138.296 22.6367 138.507 23.4229C138.718 24.2012 138.823 25.0522 138.823 25.9766L138.823 26.9858L128.999 26.9858L128.999 25.1494L136.574 25.1494L136.574 24.9795C136.541 24.396 136.42 23.8281 136.209 23.2773C136.006 22.7261 135.682 22.272 135.236 21.9155C134.79 21.5586 134.182 21.3804 133.412 21.3804C132.902 21.3804 132.432 21.4897 132.002 21.7085C131.572 21.9194 131.203 22.2354 130.896 22.6572C130.588 23.0786 130.348 23.5933 130.178 24.2012C130.008 24.8091 129.923 25.5103 129.923 26.3047L129.923 26.8154C129.923 27.4395 130.008 28.0273 130.178 28.5786C130.356 29.1216 130.612 29.5996 130.944 30.0132C131.285 30.4268 131.694 30.751 132.172 30.9858C132.659 31.2207 133.21 31.3384 133.826 31.3384C134.62 31.3384 135.293 31.1763 135.844 30.8521C136.395 30.5278 136.878 30.0942 137.291 29.5513L138.653 30.6333C138.369 31.063 138.008 31.4722 137.571 31.8613C137.133 32.2505 136.594 32.5664 135.954 32.8096C135.321 33.0527 134.572 33.1743 133.704 33.1743Z" fill="#FBFBFB" fill-opacity="1.000000" fill-rule="evenodd"/>
	<path id="Vector" d="M123.235 32.9312L120.986 32.9312L120.986 18.3892C120.986 17.4409 121.156 16.6426 121.497 15.9941C121.845 15.3374 122.344 14.8428 122.992 14.5107C123.641 14.1704 124.411 14 125.302 14C125.562 14 125.821 14.0161 126.081 14.0488C126.348 14.0811 126.607 14.1299 126.859 14.1943L126.737 16.0308C126.567 15.9902 126.372 15.9614 126.154 15.9453C125.943 15.9292 125.732 15.9209 125.521 15.9209C125.043 15.9209 124.63 16.0186 124.281 16.2129C123.941 16.3994 123.681 16.6748 123.503 17.0396C123.325 17.4043 123.235 17.8545 123.235 18.3892L123.235 32.9312ZM126.032 19.7754L126.032 21.502L118.907 21.502L118.907 19.7754L126.032 19.7754Z" fill="#FBFBFB" fill-opacity="1.000000" fill-rule="evenodd"/>
	<path id="Vector" d="M114.092 30.6821L114.092 23.9092C114.092 23.3906 113.987 22.9409 113.776 22.5596C113.573 22.1709 113.265 21.8706 112.852 21.6602C112.438 21.4492 111.928 21.3438 111.32 21.3438C110.752 21.3438 110.254 21.4414 109.824 21.6357C109.403 21.8301 109.07 22.0854 108.827 22.4019C108.592 22.7178 108.475 23.0581 108.475 23.4229L106.225 23.4229C106.225 22.9531 106.347 22.4868 106.59 22.0249C106.833 21.563 107.182 21.1455 107.636 20.7725C108.098 20.3916 108.649 20.0913 109.289 19.8726C109.938 19.6455 110.659 19.5322 111.453 19.5322C112.41 19.5322 113.253 19.6943 113.983 20.0186C114.72 20.3428 115.296 20.833 115.709 21.4897C116.131 22.1382 116.341 22.9531 116.341 23.9336L116.341 30.062C116.341 30.4995 116.378 30.9658 116.451 31.46C116.532 31.9546 116.649 32.3799 116.803 32.7368L116.803 32.9312L114.457 32.9312C114.343 32.6719 114.254 32.3271 114.189 31.8979C114.124 31.46 114.092 31.0547 114.092 30.6821ZM114.481 24.9551L114.505 26.5356L112.232 26.5356C111.591 26.5356 111.02 26.5884 110.517 26.6938C110.015 26.791 109.593 26.9409 109.253 27.1436C108.912 27.3462 108.653 27.6016 108.475 27.9097C108.296 28.2095 108.207 28.562 108.207 28.9673C108.207 29.3809 108.3 29.7578 108.487 30.0981C108.673 30.4385 108.953 30.7104 109.326 30.9131C109.707 31.1074 110.173 31.2046 110.724 31.2046C111.413 31.2046 112.021 31.0586 112.548 30.7671C113.075 30.4751 113.492 30.1187 113.8 29.6973C114.116 29.2754 114.286 28.8662 114.311 28.4688L115.271 29.5513C115.215 29.8916 115.061 30.2686 114.809 30.6821C114.558 31.0952 114.222 31.4927 113.8 31.8735C113.387 32.2461 112.892 32.5586 112.317 32.8096C111.749 33.0527 111.109 33.1743 110.396 33.1743C109.504 33.1743 108.722 33 108.049 32.6519C107.384 32.3032 106.866 31.8369 106.493 31.2534C106.128 30.6616 105.946 30.001 105.946 29.2715C105.946 28.5664 106.083 27.9463 106.359 27.4111C106.635 26.8682 107.032 26.418 107.551 26.0615C108.069 25.6968 108.693 25.4214 109.423 25.2349C110.152 25.0483 110.967 24.9551 111.867 24.9551L114.481 24.9551Z" fill="#FBFBFB" fill-opacity="1.000000" fill-rule="evenodd"/>
	<path id="Vector" d="M101.325 28.457C101.325 28.0435 101.26 27.6787 101.131 27.3628C101.009 27.0386 100.79 26.7466 100.474 26.4873C100.166 26.2275 99.7365 25.9805 99.1852 25.7456C98.6421 25.5103 97.9531 25.2715 97.1183 25.0278C96.2428 24.7686 95.4525 24.481 94.7473 24.1646C94.042 23.8403 93.4381 23.4717 92.9355 23.0581C92.433 22.645 92.048 22.1709 91.7805 21.6357C91.5131 21.1006 91.3793 20.4888 91.3793 19.7998C91.3793 19.1108 91.5211 18.4746 91.8048 17.8906C92.0885 17.3071 92.4938 16.8008 93.0208 16.3711C93.5557 15.9331 94.192 15.5928 94.9297 15.3496C95.6672 15.1064 96.49 14.9849 97.3978 14.9849C98.7273 14.9849 99.854 15.2402 100.778 15.751C101.71 16.2534 102.419 16.9141 102.906 17.7329C103.392 18.5435 103.635 19.4106 103.635 20.335L101.301 20.335C101.301 19.6699 101.159 19.0825 100.875 18.5718C100.592 18.0527 100.162 17.6475 99.5864 17.356C99.011 17.0562 98.2814 16.9058 97.3978 16.9058C96.563 16.9058 95.874 17.0317 95.3309 17.2827C94.7878 17.5342 94.3824 17.8745 94.115 18.3042C93.8556 18.7339 93.726 19.2241 93.726 19.7754C93.726 20.1484 93.8029 20.4888 93.9569 20.7969C94.119 21.0967 94.3663 21.3765 94.6986 21.6357C95.0391 21.895 95.4686 22.1343 95.9874 22.353C96.5143 22.5718 97.1426 22.7827 97.8721 22.9854C98.8772 23.269 99.7445 23.5854 100.474 23.9336C101.204 24.2822 101.803 24.6753 102.274 25.1133C102.752 25.543 103.104 26.0332 103.331 26.5845C103.567 27.1274 103.684 27.7437 103.684 28.4326C103.684 29.1538 103.538 29.8066 103.246 30.3901C102.954 30.9736 102.537 31.4722 101.994 31.8857C101.451 32.2988 100.798 32.6191 100.036 32.8462C99.2825 33.0649 98.4395 33.1743 97.5073 33.1743C96.6886 33.1743 95.8821 33.061 95.0876 32.834C94.3014 32.6069 93.5841 32.2666 92.9355 31.8125C92.2952 31.3589 91.7805 30.7993 91.3914 30.1348C91.0104 29.4619 90.8199 28.6836 90.8199 27.8003L93.1544 27.8003C93.1544 28.4082 93.272 28.9312 93.5071 29.3687C93.7421 29.7983 94.0623 30.1553 94.4677 30.439C94.881 30.7227 95.347 30.9331 95.8658 31.0708C96.3927 31.2007 96.9399 31.2656 97.5073 31.2656C98.326 31.2656 99.019 31.1519 99.5864 30.9253C100.154 30.6982 100.583 30.374 100.875 29.9526C101.175 29.5308 101.325 29.0322 101.325 28.457Z" fill="#FBFBFB" fill-opacity="1.000000" fill-rule="evenodd"/>
	<path id="Vector" d="M88.911 19.7754L88.911 21.502L81.7981 21.502L81.7981 19.7754L88.911 19.7754ZM84.2056 16.5776L86.455 16.5776L86.455 29.6729C86.455 30.1187 86.5238 30.4551 86.6616 30.6821C86.7994 30.9087 86.9778 31.0586 87.1967 31.1318C87.4155 31.2046 87.6505 31.2412 87.9019 31.2412C88.0883 31.2412 88.2828 31.2251 88.4855 31.1924C88.6962 31.1519 88.8542 31.1196 88.9597 31.0952L88.9718 32.9312C88.7935 32.9878 88.5585 33.0405 88.2666 33.0894C87.9829 33.146 87.6384 33.1743 87.2332 33.1743C86.6819 33.1743 86.1753 33.0649 85.7133 32.8462C85.2512 32.6274 84.8824 32.2627 84.6068 31.752C84.3394 31.2329 84.2056 30.5361 84.2056 29.6606L84.2056 16.5776Z" fill="#FBFBFB" fill-opacity="1.000000" fill-rule="evenodd"/>
	<path id="Vector" d="M75.658 33.1743C74.7419 33.1743 73.9111 33.0205 73.1654 32.7124C72.4277 32.3965 71.7914 31.9546 71.2565 31.3872C70.7295 30.8198 70.3242 30.147 70.0405 29.3687C69.7568 28.5903 69.615 27.7393 69.615 26.8154L69.615 26.3047C69.615 25.2349 69.7731 24.2822 70.0892 23.4473C70.4053 22.6045 70.835 21.8911 71.3781 21.3076C71.9211 20.7236 72.5371 20.2822 73.2262 19.9819C73.9152 19.6821 74.6285 19.5322 75.3661 19.5322C76.3064 19.5322 77.1169 19.6943 77.7979 20.0186C78.4869 20.3428 79.0503 20.7969 79.488 21.3804C79.9257 21.9561 80.2499 22.6367 80.4607 23.4229C80.6714 24.2012 80.7769 25.0522 80.7769 25.9766L80.7769 26.9858L70.9525 26.9858L70.9525 25.1494L78.5275 25.1494L78.5275 24.9795C78.495 24.396 78.3734 23.8281 78.1627 23.2773C77.96 22.7261 77.6357 22.272 77.1899 21.9155C76.7441 21.5586 76.1362 21.3804 75.3661 21.3804C74.8555 21.3804 74.3853 21.4897 73.9557 21.7085C73.5261 21.9194 73.1572 22.2354 72.8492 22.6572C72.5413 23.0786 72.3021 23.5933 72.1318 24.2012C71.9617 24.8091 71.8766 25.5103 71.8766 26.3047L71.8766 26.8154C71.8766 27.4395 71.9617 28.0273 72.1318 28.5786C72.3102 29.1216 72.5656 29.5996 72.8978 30.0132C73.2383 30.4268 73.6477 30.751 74.126 30.9858C74.6123 31.2207 75.1635 31.3384 75.7795 31.3384C76.5739 31.3384 77.2467 31.1763 77.7979 30.8521C78.3491 30.5278 78.8314 30.0942 79.2448 29.5513L80.6066 30.6333C80.3229 31.063 79.9622 31.4722 79.5244 31.8613C79.0868 32.2505 78.5477 32.5664 77.9073 32.8096C77.275 33.0527 76.5253 33.1743 75.658 33.1743Z" fill="#FBFBFB" fill-opacity="1.000000" fill-rule="evenodd"/>
	<path id="Vector" d="M61.5293 25.9888L56.7996 25.9888L56.7996 24.0796L61.5293 24.0796C62.4453 24.0796 63.187 23.9336 63.7544 23.6421C64.3218 23.3501 64.7352 22.9448 64.9946 22.4263C65.2621 21.9072 65.3958 21.3154 65.3958 20.6509C65.3958 20.043 65.2621 19.4717 64.9946 18.9365C64.7352 18.4014 64.3218 17.9717 63.7544 17.6475C63.187 17.3154 62.4453 17.1489 61.5293 17.1489L57.3467 17.1489L57.3467 32.9312L55 32.9312L55 15.228L61.5293 15.228C62.8668 15.228 63.9976 15.459 64.9216 15.9209C65.8457 16.3833 66.5469 17.0234 67.0251 17.8423C67.5033 18.6528 67.7424 19.5811 67.7424 20.6265C67.7424 21.7612 67.5033 22.73 67.0251 23.5327C66.5469 24.335 65.8457 24.9468 64.9216 25.3687C63.9976 25.7817 62.8668 25.9888 61.5293 25.9888Z" fill="#FBFBFB" fill-opacity="1.000000" fill-rule="evenodd"/>
	<rect id="Logo" width="68.000000" height="67.000000" fill="#FFFFFF" fill-opacity="0"/>
	<g clip-path="url(#clip3_3524)">
		<path id="Vector" d="M64.804 56.8403C66.7313 58.7388 66.7313 61.9473 64.804 63.8457C62.8767 65.7446 59.6198 65.7446 57.6863 63.8457L44.4205 50.7808C42.4932 48.8823 42.4932 45.6733 44.4205 43.7749C45.3842 42.8228 46.7137 42.3496 48.0374 42.3496C49.3608 42.3496 50.5685 42.8228 51.6542 43.7749L64.804 56.8403Z" fill="#FBFBFB" fill-opacity="1.000000" fill-rule="nonzero"/>
		<path id="Vector" d="M64.804 63.8457C62.8767 65.7446 59.6198 65.7446 57.6863 63.8457L44.4205 50.7808C42.4932 48.8823 42.4932 45.6733 44.4205 43.7749C45.3842 42.8228 46.7137 42.3496 48.0374 42.3496C49.3608 42.3496 50.5685 42.8228 51.6542 43.7749L64.804 56.8403C66.7313 58.7388 66.7313 61.9473 64.804 63.8457Z" stroke="#1D1D1B" stroke-opacity="1.000000" stroke-width="1.000000"/>
		<path id="Vector" d="M40.9774 8.26123C48.577 15.7461 49.5408 27.2642 43.9905 35.8169C43.1488 37.1211 42.179 38.3096 40.9774 39.3774C39.7698 40.5659 38.5621 41.5122 37.2386 42.3491C28.5533 47.8145 16.9771 46.8623 9.37744 39.3774C0.692261 30.8247 0.692261 16.8135 9.37744 8.26123C18.0627 -0.291504 32.2921 -0.291504 40.9774 8.26123Z" fill="#FBFBFB" fill-opacity="1.000000" fill-rule="evenodd"/>
		<path id="Vector" d="M43.9905 35.8169C43.1488 37.1211 42.179 38.3096 40.9774 39.3774C39.7698 40.5659 38.5621 41.5122 37.2386 42.3491C28.5533 47.8145 16.9771 46.8623 9.37744 39.3774C0.692261 30.8247 0.692261 16.8135 9.37744 8.26123C18.0627 -0.291504 32.2921 -0.291504 40.9774 8.26123C48.577 15.7461 49.5408 27.2642 43.9905 35.8169Z" stroke="#FBFBFB" stroke-opacity="1.000000" stroke-width="1.000000"/>
		<path id="Vector" d="M61.1871 66.6968C59.4977 66.6968 57.8082 65.981 56.6067 64.7979L43.3409 51.7329C40.8097 49.2397 40.8097 45.0791 43.3409 42.5859C44.5486 41.397 46.238 40.6875 47.9214 40.6875C49.6047 40.6875 51.3003 41.4033 52.5018 42.5859L65.7677 55.6514C66.9753 56.8398 67.6949 58.502 67.6949 60.1641C67.6949 61.8257 66.9692 63.4878 65.7677 64.6768C64.5601 66.1021 62.9926 66.6968 61.1871 66.6968ZM48.0433 43.7749C47.0797 43.7749 46.2319 44.1328 45.5122 44.8423C44.1887 46.1465 44.1887 48.4028 45.5122 49.7129L58.778 62.7783C59.5038 63.4878 60.3455 63.8457 61.3091 63.8457C62.2728 63.8457 63.1206 63.4878 63.8403 62.7783C64.5662 62.0625 64.9259 61.2314 64.9259 60.2852C64.9259 59.3389 64.5662 58.502 63.8403 57.7925L50.5746 44.7271C49.8488 44.1328 48.885 43.7749 48.0433 43.7749Z" fill="#FBFBFB" fill-opacity="1.000000" fill-rule="evenodd"/>
		<path id="Vector" d="M56.6067 64.7979L43.3409 51.7329C40.8097 49.2397 40.8097 45.0791 43.3409 42.5859C44.5486 41.397 46.238 40.6875 47.9214 40.6875C49.6047 40.6875 51.3003 41.4033 52.5018 42.5859L65.7677 55.6514C66.9753 56.8398 67.6949 58.502 67.6949 60.1641C67.6949 61.8257 66.9692 63.4878 65.7677 64.6768C64.5601 66.1021 62.9926 66.6968 61.1871 66.6968C59.4977 66.6968 57.8082 65.981 56.6067 64.7979ZM45.5122 44.8423C44.1887 46.1465 44.1887 48.4028 45.5122 49.7129L58.778 62.7783C59.5038 63.4878 60.3455 63.8457 61.3091 63.8457C62.2728 63.8457 63.1206 63.4878 63.8403 62.7783C64.5662 62.0625 64.9259 61.2314 64.9259 60.2852C64.9259 59.3389 64.5662 58.502 63.8403 57.7925L50.5746 44.7271C49.8488 44.1328 48.885 43.7749 48.0433 43.7749C47.0797 43.7749 46.2319 44.1328 45.5122 44.8423Z" stroke="#FBFBFB" stroke-opacity="1.000000" stroke-width="1.000000"/>
		<path id="Vector" d="M24.1589 47.3354C17.767 47.3354 11.7349 44.8423 7.27026 40.4448C-2.0188 31.3042 -2.0188 16.3345 7.27026 7.19385C11.7349 2.79639 17.7609 0.303223 24.1589 0.303223C30.557 0.303223 36.583 2.79639 41.0476 7.19385C44.9084 10.9966 47.3176 16.104 47.9215 21.4478C48.4033 26.7915 47.1957 32.1353 44.1826 36.5327C43.219 37.958 42.2552 39.2622 41.0476 40.4512C39.84 41.6401 38.5165 42.7075 37.0649 43.6597C33.2041 46.1528 28.7395 47.3413 24.1589 47.3413L24.1589 47.3354ZM24.1589 3.39062C18.6086 3.39062 13.3024 5.52588 9.44165 9.4502C1.36011 17.4082 1.36011 30.4731 9.44165 38.4312C13.4243 42.3496 18.6086 44.4907 24.1589 44.4907C28.1417 44.4907 31.9965 43.4233 35.3754 41.2822C36.7051 40.4512 37.7906 39.4985 38.8763 38.4312C39.962 37.3638 40.8037 36.29 41.6515 35.1074C46.9578 27.0342 45.7501 16.2251 38.8763 9.45605C35.0155 5.5376 29.8312 3.39648 24.1589 3.39648L24.1589 3.39062Z" fill="#FBFBFB" fill-opacity="1.000000" fill-rule="evenodd"/>
		<path id="Vector" d="M7.27026 40.4448C-2.0188 31.3042 -2.0188 16.3345 7.27026 7.19385C11.7349 2.79639 17.7609 0.303223 24.1589 0.303223C30.557 0.303223 36.583 2.79639 41.0476 7.19385C44.9084 10.9966 47.3176 16.104 47.9215 21.4478C48.4033 26.7915 47.1957 32.1353 44.1826 36.5327C43.219 37.958 42.2552 39.2622 41.0476 40.4512C39.84 41.6401 38.5165 42.7075 37.0649 43.6597C33.2041 46.1528 28.7395 47.3413 24.1589 47.3413L24.1589 47.3354C17.767 47.3354 11.7349 44.8423 7.27026 40.4448ZM9.44165 9.4502C1.36011 17.4082 1.36011 30.4731 9.44165 38.4312C13.4243 42.3496 18.6086 44.4907 24.1589 44.4907C28.1417 44.4907 31.9965 43.4233 35.3754 41.2822C36.7051 40.4512 37.7906 39.4985 38.8763 38.4312C39.962 37.3638 40.8037 36.29 41.6515 35.1074C46.9578 27.0342 45.7501 16.2251 38.8763 9.45605C35.0155 5.5376 29.8312 3.39648 24.1589 3.39648L24.1589 3.39062C18.6086 3.39062 13.3024 5.52588 9.44165 9.4502Z" stroke="#1D1D1B" stroke-opacity="1.000000" stroke-width="1.000000"/>
		<path id="Vector" d="M44.4205 45.3159C44.0607 45.3159 43.6947 45.1943 43.3348 44.8428L38.8702 40.4453C38.2664 39.8506 38.2664 38.8984 38.8702 38.3101C39.474 37.7158 40.4377 37.7158 41.0415 38.3101L45.5061 42.7017C46.11 43.2959 46.11 44.248 45.5061 44.8428C45.1464 45.0791 44.7804 45.3159 44.4205 45.3159Z" fill="#FBFBFB" fill-opacity="1.000000" fill-rule="evenodd"/>
		<path id="Vector" d="M43.3348 44.8428L38.8702 40.4453C38.2664 39.8506 38.2664 38.8984 38.8702 38.3101C39.474 37.7158 40.4377 37.7158 41.0415 38.3101L45.5061 42.7017C46.11 43.2959 46.11 44.248 45.5061 44.8428C45.1464 45.0791 44.7804 45.3159 44.4205 45.3159C44.0607 45.3159 43.6947 45.1943 43.3348 44.8428Z" stroke="#FBFBFB" stroke-opacity="1.000000" stroke-width="1.000000"/>
		<path id="Vector" d="M12.723 15.6128C12.723 15.6128 13.4854 14.3936 13.1682 13.0532C12.8511 11.7124 19.609 5.59229 22.7866 5.96826C22.7866 5.96826 32.8503 5.36182 35.1741 7.13916C37.4979 8.9165 42.4382 11.4941 44.2742 20.7261C44.2742 20.7261 47.0919 35.5503 33.2285 42.1011C33.2285 42.1011 28.9529 44.3813 25.6655 44.0664C25.6655 44.0664 23.7687 43.1929 25.9216 40.8213C25.9216 40.8213 27.3123 40.0083 30.0996 40.5723C30.0996 40.5723 31.6183 40.5117 33.2041 38.4497L33.2651 37.9521L33.6432 37.7642C33.6432 37.7642 34.4667 37.3882 33.5823 35.8291C32.6979 34.2705 32.9479 31.2739 32.9479 31.2739C32.9479 31.2739 31.9965 27.6528 29.5323 27.1553C29.5323 27.1553 29.5323 25.5967 30.3557 25.4692C31.1792 25.3418 30.801 21.7876 30.801 21.7876C30.801 21.7876 28.8553 25.1172 25.2996 24.9839L22.1279 24.9839C22.1279 24.9839 18.4562 25.5967 18.3892 27.0947C18.3892 27.0947 14.2722 28.1562 11.3019 27.3433C8.32544 26.5308 6.36755 22.9097 6.36755 22.9097C6.36755 22.9097 5.60522 21.2231 6.08093 19.9131L6.07483 19.9194C6.07483 19.9194 10.0637 16.644 12.723 15.6128Z" stroke="#FBFBFB" stroke-opacity="1.000000" stroke-width="1.000000"/>
		<path id="Vector" d="M35.1742 7.13916C35.1742 7.13916 27.3123 0.818848 16.6143 5.12549C5.91626 9.43213 3.76331 19.7314 3.76331 19.7314C3.76331 19.7314 0.28064 34.0884 14.2722 41.8887C14.2722 41.8887 18.5782 44.7578 25.6655 44.0723C25.6655 44.0723 24.0238 43.2642 25.5286 41.2905C25.7717 40.9717 26.1099 40.7393 26.494 40.624C27.1149 40.438 28.1708 40.2158 29.3093 40.3911C29.8357 40.4717 30.3779 40.5269 30.8748 40.335C31.5797 40.0635 32.587 39.5386 33.1088 38.6367C33.1765 38.519 33.2125 38.3872 33.229 38.2529C33.2506 38.0767 33.3844 37.9346 33.54 37.8491C33.9067 37.6479 34.4183 37.1147 33.5823 35.8354C32.6692 34.438 32.7909 32.4678 32.8915 31.6543C32.9221 31.4062 32.9261 31.1533 32.8593 30.9126C32.6139 30.0303 31.7975 27.8198 29.6604 27.1982C29.5812 27.1738 29.5323 27.1011 29.5385 27.022C29.5751 26.6221 29.9349 25.9243 30.3496 25.4814C30.5997 25.2085 30.8621 24.2017 30.8499 23.1704C30.8499 22.7339 30.307 22.5215 30.0081 22.8369C29.1786 23.7349 27.6477 24.8994 25.2874 24.9902C21.6156 25.1299 19.4382 25.0874 18.5233 26.8037C18.4197 26.9917 18.2611 27.1436 18.0537 27.1982C16.5837 27.5801 10.6493 28.8418 7.85583 24.9961C4.65369 20.5864 6.07483 19.9316 6.07483 19.9316C6.07483 19.9316 10.9786 16.1465 12.4668 15.6191C12.6437 15.5581 12.7656 15.4492 12.9121 15.334C13.3207 14.9941 13.4305 14.0542 13.2109 12.6953C12.9303 10.9907 19.1028 7.42432 21.3595 6.32031C21.7986 6.10205 22.2743 5.98096 22.7683 5.95068C25.2019 5.81104 33.8384 5.45312 35.1803 7.15137L35.1742 7.13916Z" fill="#1D1D1B" fill-opacity="1.000000" fill-rule="nonzero"/>
		<path id="Vector" d="M16.6143 5.12549C5.91626 9.43213 3.76331 19.7314 3.76331 19.7314C3.76331 19.7314 0.28064 34.0884 14.2722 41.8887C14.2722 41.8887 18.5782 44.7578 25.6655 44.0723C25.6655 44.0723 24.0238 43.2642 25.5286 41.2905C25.7717 40.9717 26.1099 40.7393 26.494 40.624C27.1149 40.438 28.1708 40.2158 29.3093 40.3911C29.8357 40.4717 30.3779 40.5269 30.8748 40.335C31.5797 40.0635 32.587 39.5386 33.1088 38.6367C33.1765 38.519 33.2125 38.3872 33.229 38.2529C33.2506 38.0767 33.3844 37.9346 33.54 37.8491C33.9067 37.6479 34.4183 37.1147 33.5823 35.8354C32.6692 34.438 32.7909 32.4678 32.8915 31.6543C32.9221 31.4062 32.9261 31.1533 32.8593 30.9126C32.6139 30.0303 31.7975 27.8198 29.6604 27.1982C29.5812 27.1738 29.5323 27.1011 29.5385 27.022C29.5751 26.6221 29.9349 25.9243 30.3496 25.4814C30.5997 25.2085 30.8621 24.2017 30.8499 23.1704C30.8499 22.7339 30.307 22.5215 30.0081 22.8369C29.1786 23.7349 27.6477 24.8994 25.2874 24.9902C21.6156 25.1299 19.4382 25.0874 18.5233 26.8037C18.4197 26.9917 18.2611 27.1436 18.0537 27.1982C16.5837 27.5801 10.6493 28.8418 7.85583 24.9961C4.65369 20.5864 6.07483 19.9316 6.07483 19.9316C6.07483 19.9316 10.9786 16.1465 12.4668 15.6191C12.6437 15.5581 12.7656 15.4492 12.9121 15.334C13.3207 14.9941 13.4305 14.0542 13.2109 12.6953C12.9303 10.9907 19.1028 7.42432 21.3595 6.32031C21.7986 6.10205 22.2743 5.98096 22.7683 5.95068C25.2019 5.81104 33.8384 5.45312 35.1803 7.15137L35.1742 7.13916C35.1742 7.13916 27.3123 0.818848 16.6143 5.12549Z" stroke="#FBFBFB" stroke-opacity="1.000000" stroke-width="1.000000"/>
		<path id="Vector" d="M28.6846 32.1411C29.386 32.123 31.2096 32.2017 30.8254 33.2754C30.0081 33.5547 29.0566 32.8325 28.6846 32.1411Z" fill="#FBFBFB" fill-opacity="1.000000" fill-rule="nonzero"/>
		<path id="Vector" d="M30.8254 33.2754C30.0081 33.5547 29.0566 32.8325 28.6846 32.1411C29.386 32.123 31.2096 32.2017 30.8254 33.2754Z" stroke="#1D1D1B" stroke-opacity="1.000000" stroke-width="0.200000"/>
		<path id="Vector" d="M16.7545 15.728C16.7545 15.728 18.5111 14.6787 19.8773 15.1216" stroke="#999999" stroke-opacity="1.000000" stroke-width="1.000000"/>
		<path id="Vector" d="M24.165 11.543L24.5249 12.3374C24.6957 12.7075 24.7628 13.1138 24.7323 13.5205L24.6652 14.4243C24.6652 14.4243 23.738 19.5493 25.0189 20.7202C26.2998 21.8906 27.4403 21.2842 27.4403 21.2842L28.2028 20.9565" stroke="#999999" stroke-opacity="1.000000" stroke-width="0.500000"/>
		<path id="Vector" d="M31.1731 36.8784C31.1731 36.8784 30.1849 36.0112 28.7029 36.1201" stroke="#999999" stroke-opacity="1.000000" stroke-width="0.200000"/>
		<path id="Vector" d="M31.0754 37.127C31.0754 37.127 29.8861 36.563 28.4894 37.0786" stroke="#999999" stroke-opacity="1.000000" stroke-width="0.200000"/>
	</g>
</svg>
