<svg width="152.000000" height="67.000000" viewBox="0 0 152 67" fill="none" xmlns="http://www.w3.org/2000/svg" xmlns:xlink="http://www.w3.org/1999/xlink">
	<desc>
			Created with Pixso.
	</desc>
	<defs>
		<clipPath id="clip3_6122">
			<rect id="Logo" width="64.859695" height="67.000000" fill="white" fill-opacity="0"/>
		</clipPath>
	</defs>
	<path id="Vector" d="M146.213 31.5693L149.704 19.7754L152 19.7754L146.967 34.9619C146.851 35.2861 146.696 35.6348 146.503 36.0073C146.317 36.3887 146.078 36.749 145.784 37.0894C145.49 37.4302 145.134 37.7056 144.717 37.9165C144.307 38.1353 143.816 38.2446 143.244 38.2446C143.074 38.2446 142.857 38.2202 142.595 38.1719C142.332 38.123 142.146 38.0825 142.038 38.0503L142.026 36.2261C142.088 36.2344 142.185 36.2427 142.316 36.2505C142.455 36.2666 142.552 36.2749 142.606 36.2749C143.093 36.2749 143.507 36.2061 143.847 36.0684C144.187 35.9385 144.473 35.7158 144.705 35.3994C144.945 35.0913 145.15 34.666 145.32 34.123L146.213 31.5693ZM143.65 19.7754L146.909 29.9888L147.465 32.3599L145.923 33.1865L141.307 19.7754L143.65 19.7754Z" fill="#1D1D1B" fill-opacity="1.000000" fill-rule="nonzero"/>
	<path id="Vector" d="M140.171 19.7754L140.171 21.502L133.386 21.502L133.386 19.7754L140.171 19.7754ZM135.682 16.5776L137.828 16.5776L137.828 29.6729C137.828 30.1187 137.894 30.4551 138.025 30.6821C138.157 30.9087 138.327 31.0586 138.535 31.1318C138.744 31.2046 138.968 31.2412 139.208 31.2412C139.386 31.2412 139.571 31.2251 139.765 31.1924C139.966 31.1519 140.117 31.1196 140.217 31.0952L140.229 32.9312C140.059 32.9878 139.834 33.0405 139.556 33.0894C139.285 33.146 138.957 33.1743 138.57 33.1743C138.044 33.1743 137.561 33.0649 137.121 32.8462C136.68 32.6274 136.328 32.2627 136.065 31.752C135.81 31.2329 135.682 30.5361 135.682 29.6606L135.682 16.5776Z" fill="#1D1D1B" fill-opacity="1.000000" fill-rule="nonzero"/>
	<path id="Vector" d="M127.53 33.1743C126.656 33.1743 125.864 33.0205 125.152 32.7124C124.449 32.3965 123.842 31.9546 123.331 31.3872C122.829 30.8198 122.442 30.147 122.172 29.3687C121.901 28.5903 121.766 27.7393 121.766 26.8154L121.766 26.3047C121.766 25.2349 121.917 24.2822 122.218 23.4473C122.52 22.6045 122.929 21.8911 123.447 21.3076C123.965 20.7236 124.553 20.2822 125.21 19.9819C125.867 19.6821 126.548 19.5322 127.251 19.5322C128.148 19.5322 128.921 19.6943 129.571 20.0186C130.228 20.3428 130.765 20.7969 131.183 21.3804C131.6 21.9561 131.91 22.6367 132.111 23.4229C132.312 24.2012 132.412 25.0522 132.412 25.9766L132.412 26.9858L123.042 26.9858L123.042 25.1494L130.267 25.1494L130.267 24.9795C130.236 24.396 130.12 23.8281 129.919 23.2773C129.725 22.7261 129.416 22.272 128.991 21.9155C128.566 21.5586 127.986 21.3804 127.251 21.3804C126.764 21.3804 126.316 21.4897 125.906 21.7085C125.496 21.9194 125.144 22.2354 124.851 22.6572C124.557 23.0786 124.329 23.5933 124.166 24.2012C124.004 24.8091 123.923 25.5103 123.923 26.3047L123.923 26.8154C123.923 27.4395 124.004 28.0273 124.166 28.5786C124.337 29.1216 124.58 29.5996 124.897 30.0132C125.222 30.4268 125.612 30.751 126.068 30.9858C126.532 31.2207 127.058 31.3384 127.646 31.3384C128.403 31.3384 129.045 31.1763 129.571 30.8521C130.097 30.5278 130.557 30.0942 130.951 29.5513L132.25 30.6333C131.979 31.063 131.635 31.4722 131.218 31.8613C130.8 32.2505 130.286 32.5664 129.675 32.8096C129.072 33.0527 128.357 33.1743 127.53 33.1743Z" fill="#1D1D1B" fill-opacity="1.000000" fill-rule="nonzero"/>
	<path id="Vector" d="M117.544 32.9312L115.399 32.9312L115.399 18.3892C115.399 17.4409 115.561 16.6426 115.886 15.9941C116.218 15.3374 116.694 14.8428 117.312 14.5107C117.931 14.1704 118.665 14 119.516 14C119.763 14 120.011 14.0161 120.258 14.0488C120.513 14.0811 120.761 14.1299 121 14.1943L120.884 16.0308C120.722 15.9902 120.536 15.9614 120.328 15.9453C120.127 15.9292 119.926 15.9209 119.725 15.9209C119.268 15.9209 118.874 16.0186 118.542 16.2129C118.217 16.3994 117.969 16.6748 117.799 17.0396C117.629 17.4043 117.544 17.8545 117.544 18.3892L117.544 32.9312ZM120.212 19.7754L120.212 21.502L113.416 21.502L113.416 19.7754L120.212 19.7754Z" fill="#1D1D1B" fill-opacity="1.000000" fill-rule="nonzero"/>
	<path id="Vector" d="M108.823 30.6821L108.823 23.9092C108.823 23.3906 108.723 22.9409 108.522 22.5596C108.328 22.1709 108.034 21.8706 107.64 21.6602C107.246 21.4492 106.759 21.3438 106.179 21.3438C105.638 21.3438 105.162 21.4414 104.752 21.6357C104.35 21.8301 104.033 22.0854 103.801 22.4019C103.577 22.7178 103.465 23.0581 103.465 23.4229L101.32 23.4229C101.32 22.9531 101.436 22.4868 101.667 22.0249C101.899 21.563 102.232 21.1455 102.665 20.7725C103.106 20.3916 103.631 20.0913 104.242 19.8726C104.861 19.6455 105.549 19.5322 106.306 19.5322C107.219 19.5322 108.023 19.6943 108.719 20.0186C109.422 20.3428 109.971 20.833 110.365 21.4897C110.768 22.1382 110.969 22.9531 110.969 23.9336L110.969 30.062C110.969 30.4995 111.003 30.9658 111.073 31.46C111.15 31.9546 111.262 32.3799 111.409 32.7368L111.409 32.9312L109.171 32.9312C109.063 32.6719 108.978 32.3271 108.916 31.8979C108.854 31.46 108.823 31.0547 108.823 30.6821ZM109.194 24.9551L109.217 26.5356L107.049 26.5356C106.438 26.5356 105.893 26.5884 105.413 26.6938C104.934 26.791 104.532 26.9409 104.207 27.1436C103.883 27.3462 103.635 27.6016 103.465 27.9097C103.295 28.2095 103.21 28.562 103.21 28.9673C103.21 29.3809 103.299 29.7578 103.477 30.0981C103.655 30.4385 103.921 30.7104 104.277 30.9131C104.64 31.1074 105.085 31.2046 105.611 31.2046C106.268 31.2046 106.848 31.0586 107.35 30.7671C107.853 30.4751 108.251 30.1187 108.545 29.6973C108.846 29.2754 109.009 28.8662 109.032 28.4688L109.948 29.5513C109.894 29.8916 109.747 30.2686 109.507 30.6821C109.268 31.0952 108.947 31.4927 108.545 31.8735C108.15 32.2461 107.679 32.5586 107.13 32.8096C106.589 33.0527 105.978 33.1743 105.297 33.1743C104.447 33.1743 103.701 33 103.059 32.6519C102.425 32.3032 101.93 31.8369 101.575 31.2534C101.227 30.6616 101.053 30.001 101.053 29.2715C101.053 28.5664 101.184 27.9463 101.447 27.4111C101.71 26.8682 102.089 26.418 102.584 26.0615C103.078 25.6968 103.674 25.4214 104.37 25.2349C105.066 25.0483 105.843 24.9551 106.701 24.9551L109.194 24.9551Z" fill="#1D1D1B" fill-opacity="1.000000" fill-rule="nonzero"/>
	<path id="Vector" d="M96.646 28.457C96.646 28.0435 96.5841 27.6787 96.4604 27.3628C96.3445 27.0386 96.1356 26.7466 95.8341 26.4873C95.5403 26.2275 95.1306 25.9805 94.6049 25.7456C94.0868 25.5103 93.4296 25.2715 92.6333 25.0278C91.7982 24.7686 91.0444 24.481 90.3718 24.1646C89.6991 23.8403 89.1232 23.4717 88.6438 23.0581C88.1644 22.645 87.7972 22.1709 87.542 21.6357C87.2869 21.1006 87.1593 20.4888 87.1593 19.7998C87.1593 19.1108 87.2947 18.4746 87.5652 17.8906C87.8358 17.3071 88.2224 16.8008 88.725 16.3711C89.2352 15.9331 89.8422 15.5928 90.5458 15.3496C91.2493 15.1064 92.0341 14.9849 92.9 14.9849C94.168 14.9849 95.2427 15.2402 96.124 15.751C97.0132 16.2534 97.6897 16.9141 98.1536 17.7329C98.6176 18.5435 98.8495 19.4106 98.8495 20.335L96.6228 20.335C96.6228 19.6699 96.4874 19.0825 96.2168 18.5718C95.9463 18.0527 95.5365 17.6475 94.9875 17.356C94.4386 17.0562 93.7428 16.9058 92.9 16.9058C92.1036 16.9058 91.4465 17.0317 90.9285 17.2827C90.4104 17.5342 90.0239 17.8745 89.7687 18.3042C89.5214 18.7339 89.3976 19.2241 89.3976 19.7754C89.3976 20.1484 89.4711 20.4888 89.6179 20.7969C89.7726 21.0967 90.0084 21.3765 90.3254 21.6357C90.6501 21.895 91.0599 22.1343 91.5547 22.353C92.0573 22.5718 92.6565 22.7827 93.3523 22.9854C94.311 23.269 95.1383 23.5854 95.8341 23.9336C96.53 24.2822 97.1022 24.6753 97.5505 25.1133C98.0067 25.543 98.343 26.0332 98.5596 26.5845C98.7837 27.1274 98.8959 27.7437 98.8959 28.4326C98.8959 29.1538 98.7567 29.8066 98.4783 30.3901C98.2 30.9736 97.8019 31.4722 97.2838 31.8857C96.7657 32.2988 96.1434 32.6191 95.4166 32.8462C94.6976 33.0649 93.8936 33.1743 93.0044 33.1743C92.2235 33.1743 91.4542 33.061 90.6965 32.834C89.9465 32.6069 89.2623 32.2666 88.6438 31.8125C88.033 31.3589 87.542 30.7993 87.1709 30.1348C86.8075 29.4619 86.6259 28.6836 86.6259 27.8003L88.8525 27.8003C88.8525 28.4082 88.9646 28.9312 89.1888 29.3687C89.4131 29.7983 89.7185 30.1553 90.1051 30.439C90.4994 30.7227 90.944 30.9331 91.4387 31.0708C91.9413 31.2007 92.4631 31.2656 93.0044 31.2656C93.7853 31.2656 94.4463 31.1519 94.9875 30.9253C95.5287 30.6982 95.9385 30.374 96.2168 29.9526C96.5029 29.5308 96.646 29.0322 96.646 28.457Z" fill="#1D1D1B" fill-opacity="1.000000" fill-rule="nonzero"/>
	<path id="Vector" d="M84.8049 19.7754L84.8049 21.502L78.0205 21.502L78.0205 19.7754L84.8049 19.7754ZM80.3168 16.5776L82.4623 16.5776L82.4623 29.6729C82.4623 30.1187 82.528 30.4551 82.6594 30.6821C82.7909 30.9087 82.9609 31.0586 83.1697 31.1318C83.3784 31.2046 83.6027 31.2412 83.8424 31.2412C84.0201 31.2412 84.2058 31.2251 84.399 31.1924C84.6001 31.1519 84.7509 31.1196 84.8513 31.0952L84.8629 32.9312C84.6929 32.9878 84.4686 33.0405 84.1903 33.0894C83.9197 33.146 83.5911 33.1743 83.2045 33.1743C82.6788 33.1743 82.1956 33.0649 81.7549 32.8462C81.3142 32.6274 80.9624 32.2627 80.6995 31.752C80.4443 31.2329 80.3168 30.5361 80.3168 29.6606L80.3168 16.5776Z" fill="#1D1D1B" fill-opacity="1.000000" fill-rule="nonzero"/>
	<path id="Vector" d="M72.1639 33.1743C71.2903 33.1743 70.4978 33.0205 69.7865 32.7124C69.0829 32.3965 68.476 31.9546 67.9657 31.3872C67.4631 30.8198 67.0765 30.147 66.8059 29.3687C66.5353 28.5903 66.4 27.7393 66.4 26.8154L66.4 26.3047C66.4 25.2349 66.5508 24.2822 66.8523 23.4473C67.1538 22.6045 67.5636 21.8911 68.0817 21.3076C68.5996 20.7236 69.1873 20.2822 69.8445 19.9819C70.5016 19.6821 71.182 19.5322 71.8856 19.5322C72.7825 19.5322 73.5555 19.6943 74.2051 20.0186C74.8622 20.3428 75.3995 20.7969 75.817 21.3804C76.2346 21.9561 76.5438 22.6367 76.7449 23.4229C76.9459 24.2012 77.0464 25.0522 77.0464 25.9766L77.0464 26.9858L67.6758 26.9858L67.6758 25.1494L74.9009 25.1494L74.9009 24.9795C74.87 24.396 74.754 23.8281 74.553 23.2773C74.3596 22.7261 74.0504 22.272 73.6251 21.9155C73.2 21.5586 72.6201 21.3804 71.8856 21.3804C71.3984 21.3804 70.9501 21.4897 70.5403 21.7085C70.1305 21.9194 69.7787 22.2354 69.4849 22.6572C69.1912 23.0786 68.963 23.5933 68.8007 24.2012C68.6383 24.8091 68.5571 25.5103 68.5571 26.3047L68.5571 26.8154C68.5571 27.4395 68.6383 28.0273 68.8007 28.5786C68.9708 29.1216 69.2144 29.5996 69.5312 30.0132C69.8561 30.4268 70.2465 30.751 70.7026 30.9858C71.1665 31.2207 71.6923 31.3384 72.2799 31.3384C73.0376 31.3384 73.6793 31.1763 74.2051 30.8521C74.7308 30.5278 75.1908 30.0942 75.5851 29.5513L76.884 30.6333C76.6134 31.063 76.2694 31.4722 75.8518 31.8613C75.4343 32.2505 74.9202 32.5664 74.3094 32.8096C73.7063 33.0527 72.9912 33.1743 72.1639 33.1743Z" fill="#1D1D1B" fill-opacity="1.000000" fill-rule="nonzero"/>
	<path id="Vector" d="M58.6879 25.9888L54.1765 25.9888L54.1765 24.0796L58.6879 24.0796C59.5615 24.0796 60.2689 23.9336 60.8102 23.6421C61.3513 23.3501 61.7457 22.9448 61.993 22.4263C62.2483 21.9072 62.3759 21.3154 62.3759 20.6509C62.3759 20.043 62.2483 19.4717 61.993 18.9365C61.7457 18.4014 61.3513 17.9717 60.8102 17.6475C60.2689 17.3154 59.5615 17.1489 58.6879 17.1489L54.6984 17.1489L54.6984 32.9312L52.4601 32.9312L52.4601 15.228L58.6879 15.228C59.9635 15.228 61.0421 15.459 61.9235 15.9209C62.8049 16.3833 63.4736 17.0234 63.9298 17.8423C64.386 18.6528 64.6141 19.5811 64.6141 20.6265C64.6141 21.7612 64.386 22.73 63.9298 23.5327C63.4736 24.335 62.8049 24.9468 61.9235 25.3687C61.0421 25.7817 59.9635 25.9888 58.6879 25.9888Z" fill="#1D1D1B" fill-opacity="1.000000" fill-rule="nonzero"/>
	<rect id="Logo" width="64.859695" height="67.000000" fill="#FFFFFF" fill-opacity="0"/>
	<g clip-path="url(#clip3_6122)">
		<path id="Vector" d="M61.8113 56.8403C63.6497 58.7388 63.6497 61.9473 61.8113 63.8457C59.973 65.7446 56.8665 65.7446 55.0222 63.8457L42.3691 50.7808C40.5308 48.8823 40.5308 45.6733 42.3691 43.7749C43.2883 42.8228 44.5565 42.3496 45.819 42.3496C47.0813 42.3496 48.2332 42.8228 49.2687 43.7749L61.8113 56.8403Z" fill="#1D1D1B" fill-opacity="1.000000" fill-rule="nonzero"/>
		<path id="Vector" d="M61.8113 63.8457C59.973 65.7446 56.8665 65.7446 55.0222 63.8457L42.3691 50.7808C40.5308 48.8823 40.5308 45.6733 42.3691 43.7749C43.2883 42.8228 44.5565 42.3496 45.819 42.3496C47.0813 42.3496 48.2332 42.8228 49.2687 43.7749L61.8113 56.8403C63.6497 58.7388 63.6497 61.9473 61.8113 63.8457Z" stroke="#1D1D1B" stroke-opacity="1.000000" stroke-width="1.000000"/>
		<path id="Vector" d="M38.1106 8.26172C45.3593 15.7466 46.2784 27.2646 40.9845 35.8174C40.1816 37.1216 39.2567 38.3101 38.1106 39.3779C36.9587 40.5664 35.8069 41.5127 34.5444 42.3496C26.2603 47.8149 15.2186 46.8628 7.96997 39.3779C-0.314209 30.8252 -0.314209 16.814 7.96997 8.26172C16.2542 -0.291016 29.8264 -0.291016 38.1106 8.26172Z" fill="#FBFBFB" fill-opacity="1.000000" fill-rule="nonzero"/>
		<path id="Vector" d="M40.9845 35.8174C40.1816 37.1216 39.2567 38.3101 38.1106 39.3779C36.9587 40.5664 35.8069 41.5127 34.5444 42.3496C26.2603 47.8149 15.2186 46.8628 7.96997 39.3779C-0.314209 30.8252 -0.314209 16.814 7.96997 8.26172C16.2542 -0.291016 29.8264 -0.291016 38.1106 8.26172C45.3593 15.7466 46.2784 27.2646 40.9845 35.8174Z" stroke="#FBFBFB" stroke-opacity="1.000000" stroke-width="1.000000"/>
		<path id="Vector" d="M58.3615 66.6968C56.75 66.6968 55.1385 65.981 53.9926 64.7979L41.3394 51.7329C38.9252 49.2397 38.9252 45.0791 41.3394 42.5859C42.4912 41.397 44.1028 40.6875 45.7084 40.6875C47.314 40.6875 48.9313 41.4033 50.0774 42.5859L62.7305 55.6514C63.8823 56.8398 64.5688 58.502 64.5688 60.1641C64.5688 61.8257 63.8766 63.4878 62.7305 64.6768C61.5786 66.1021 60.0835 66.6968 58.3615 66.6968ZM45.8247 43.7749C44.9055 43.7749 44.0969 44.1328 43.4104 44.8423C42.1481 46.1465 42.1481 48.4028 43.4104 49.7129L56.0636 62.7783C56.7559 63.4878 57.5587 63.8457 58.4779 63.8457C59.397 63.8457 60.2057 63.4878 60.8921 62.7783C61.5845 62.0625 61.9276 61.2314 61.9276 60.2852C61.9276 59.3389 61.5845 58.502 60.8921 57.7925L48.239 44.7271C47.5468 44.1328 46.6276 43.7749 45.8247 43.7749Z" fill="#1D1D1B" fill-opacity="1.000000" fill-rule="nonzero"/>
		<path id="Vector" d="M53.9926 64.7979L41.3394 51.7329C38.9252 49.2397 38.9252 45.0791 41.3394 42.5859C42.4912 41.397 44.1028 40.6875 45.7084 40.6875C47.314 40.6875 48.9313 41.4033 50.0774 42.5859L62.7305 55.6514C63.8823 56.8398 64.5688 58.502 64.5688 60.1641C64.5688 61.8257 63.8766 63.4878 62.7305 64.6768C61.5786 66.1021 60.0835 66.6968 58.3615 66.6968C56.75 66.6968 55.1385 65.981 53.9926 64.7979ZM43.4104 44.8423C42.1481 46.1465 42.1481 48.4028 43.4104 49.7129L56.0636 62.7783C56.7559 63.4878 57.5587 63.8457 58.4779 63.8457C59.397 63.8457 60.2057 63.4878 60.8921 62.7783C61.5845 62.0625 61.9276 61.2314 61.9276 60.2852C61.9276 59.3389 61.5845 58.502 60.8921 57.7925L48.239 44.7271C47.5468 44.1328 46.6276 43.7749 45.8247 43.7749C44.9055 43.7749 44.0969 44.1328 43.4104 44.8423Z" stroke="#1D1D1B" stroke-opacity="1.000000" stroke-width="1.000000"/>
		<path id="Vector" d="M23.0432 47.3354C16.9465 47.3354 11.193 44.8423 6.93445 40.4448C-1.92554 31.3042 -1.92554 16.3345 6.93445 7.19385C11.193 2.79639 16.9407 0.303223 23.0432 0.303223C29.1459 0.303223 34.8936 2.79639 39.152 7.19385C42.8345 10.9966 45.1324 16.104 45.7084 21.4478C46.168 26.7915 45.0161 32.1353 42.1422 36.5327C41.223 37.958 40.304 39.2622 39.152 40.4512C38.0001 41.6401 36.7378 42.7075 35.3531 43.6597C31.6707 46.1528 27.4122 47.3413 23.0432 47.3413L23.0432 47.3354ZM23.0432 3.39062C17.7493 3.39062 12.688 5.52588 9.00549 9.4502C1.29736 17.4082 1.29736 30.4731 9.00549 38.4312C12.8044 42.3496 17.7493 44.4907 23.0432 44.4907C26.8422 44.4907 30.5188 43.4233 33.7417 41.2822C35.0099 40.4512 36.0454 39.4985 37.0809 38.4312C38.1165 37.3638 38.9193 36.29 39.7279 35.1074C44.7892 27.0342 43.6373 16.2251 37.0809 9.45605C33.3984 5.5376 28.4536 3.39648 23.0432 3.39648L23.0432 3.39062Z" fill="#1D1D1B" fill-opacity="1.000000" fill-rule="nonzero"/>
		<path id="Vector" d="M6.93445 40.4448C-1.92554 31.3042 -1.92554 16.3345 6.93445 7.19385C11.193 2.79639 16.9407 0.303223 23.0432 0.303223C29.1459 0.303223 34.8936 2.79639 39.152 7.19385C42.8345 10.9966 45.1324 16.104 45.7084 21.4478C46.168 26.7915 45.0161 32.1353 42.1422 36.5327C41.223 37.958 40.304 39.2622 39.152 40.4512C38.0001 41.6401 36.7378 42.7075 35.3531 43.6597C31.6707 46.1528 27.4122 47.3413 23.0432 47.3413L23.0432 47.3354C16.9465 47.3354 11.193 44.8423 6.93445 40.4448ZM9.00549 9.4502C1.29736 17.4082 1.29736 30.4731 9.00549 38.4312C12.8044 42.3496 17.7493 44.4907 23.0432 44.4907C26.8422 44.4907 30.5188 43.4233 33.7417 41.2822C35.0099 40.4512 36.0454 39.4985 37.0809 38.4312C38.1165 37.3638 38.9193 36.29 39.7279 35.1074C44.7892 27.0342 43.6373 16.2251 37.0809 9.45605C33.3984 5.5376 28.4536 3.39648 23.0432 3.39648L23.0432 3.39062C17.7493 3.39062 12.688 5.52588 9.00549 9.4502Z" stroke="#1D1D1B" stroke-opacity="1.000000" stroke-width="1.000000"/>
		<path id="Vector" d="M42.3691 45.3159C42.0259 45.3159 41.6768 45.1943 41.3336 44.8428L37.0752 40.4453C36.4991 39.8506 36.4991 38.8984 37.0752 38.3101C37.6511 37.7158 38.5702 37.7158 39.1462 38.3101L43.4047 42.7017C43.9806 43.2959 43.9806 44.248 43.4047 44.8428C43.0614 45.0791 42.7123 45.3159 42.3691 45.3159Z" fill="#1D1D1B" fill-opacity="1.000000" fill-rule="nonzero"/>
		<path id="Vector" d="M41.3336 44.8428L37.0752 40.4453C36.4991 39.8506 36.4991 38.8984 37.0752 38.3101C37.6511 37.7158 38.5702 37.7158 39.1462 38.3101L43.4047 42.7017C43.9806 43.2959 43.9806 44.248 43.4047 44.8428C43.0614 45.0791 42.7123 45.3159 42.3691 45.3159C42.0259 45.3159 41.6768 45.1943 41.3336 44.8428Z" stroke="#1D1D1B" stroke-opacity="1.000000" stroke-width="1.000000"/>
		<path id="Vector" d="M12.1354 15.6128C12.1354 15.6128 12.8625 14.3936 12.5601 13.0532C12.2574 11.7124 18.7034 5.59229 21.7343 5.96826C21.7343 5.96826 31.3333 5.36182 33.5497 7.13916C35.7661 8.9165 40.4784 11.4941 42.2295 20.7261C42.2295 20.7261 44.9171 35.5503 31.6938 42.1011C31.6938 42.1011 27.6158 44.3813 24.4801 44.0664C24.4801 44.0664 22.6709 43.1929 24.7245 40.8213C24.7245 40.8213 26.0509 40.0083 28.7095 40.5723C28.7095 40.5723 30.1581 40.5117 31.6707 38.4497L31.7288 37.9521L32.0895 37.7642C32.0895 37.7642 32.8749 37.3882 32.0312 35.8291C31.1877 34.2705 31.4263 31.2739 31.4263 31.2739C31.4263 31.2739 30.5188 27.6528 28.1685 27.1553C28.1685 27.1553 28.1685 25.5967 28.9539 25.4692C29.7391 25.3418 29.3785 21.7876 29.3785 21.7876C29.3785 21.7876 27.5227 25.1172 24.1311 24.9839L21.106 24.9839C21.106 24.9839 17.6038 25.5967 17.5398 27.0947C17.5398 27.0947 13.613 28.1562 10.7798 27.3433C7.94092 26.5308 6.07349 22.9097 6.07349 22.9097C6.07349 22.9097 5.34631 21.2231 5.80005 19.9131L5.79419 19.9194C5.79419 19.9194 9.59888 16.644 12.1354 15.6128Z" stroke="#FBFBFB" stroke-opacity="1.000000" stroke-width="1.000000"/>
		<path id="Vector" d="M33.5497 7.13916C33.5497 7.13916 26.0509 0.818848 15.8469 5.12549C5.64294 9.43213 3.58936 19.7314 3.58936 19.7314C3.58936 19.7314 0.267578 34.0884 13.6129 41.8887C13.6129 41.8887 17.7201 44.7578 24.4801 44.0723C24.4801 44.0723 22.8827 43.2476 24.3936 41.231C24.6001 40.9551 24.8849 40.749 25.2124 40.6426C26.8704 40.104 30.7389 40.1621 31.5802 38.6353C31.5804 38.6353 31.5806 38.6348 31.5808 38.6343C31.6447 38.5181 31.6785 38.3887 31.6938 38.2568C31.7147 38.0781 31.8499 37.9331 32.0046 37.8413C32.3531 37.6338 32.8185 37.0981 32.0312 35.8354C31.1543 34.4282 31.2782 32.4399 31.3745 31.6372C31.4028 31.4004 31.4065 31.1592 31.3458 30.9287C31.1171 30.0571 30.3413 27.8237 28.2906 27.1982C28.215 27.1738 28.1685 27.1011 28.1743 27.022C28.2091 26.6221 28.5524 25.9243 28.948 25.4814C29.1865 25.2085 29.4366 24.2017 29.425 23.1704C29.425 22.7339 28.9072 22.5215 28.6222 22.8369C27.8311 23.7349 26.3708 24.8994 24.1194 24.9902C20.6173 25.1299 18.5404 25.0874 17.6678 26.8037C17.5688 26.9917 17.4176 27.1436 17.2198 27.1982C15.8179 27.5801 10.1573 28.8418 7.49292 24.9961C4.43872 20.5864 5.79419 19.9316 5.79419 19.9316C5.79419 19.9316 10.4716 16.1465 11.891 15.6191C12.0597 15.5581 12.176 15.4492 12.3157 15.334C12.7054 14.9941 12.8102 14.0542 12.6007 12.6953C12.3331 10.9907 18.2205 7.42432 20.3729 6.32031C20.7917 6.10205 21.2456 5.98096 21.7168 5.95068C24.038 5.81104 32.2756 5.45312 33.5554 7.15137L33.5497 7.13916Z" fill="#1D1D1B" fill-opacity="1.000000" fill-rule="nonzero"/>
		<path id="Vector" d="M15.8469 5.12549C5.64294 9.43213 3.58936 19.7314 3.58936 19.7314C3.58936 19.7314 0.267578 34.0884 13.6129 41.8887C13.6129 41.8887 17.7201 44.7578 24.4801 44.0723C24.4801 44.0723 22.8827 43.2476 24.3936 41.231C24.6001 40.9551 24.8849 40.749 25.2124 40.6426C26.8704 40.104 30.7389 40.1621 31.5802 38.6353C31.5804 38.6353 31.5806 38.6348 31.5808 38.6343C31.6447 38.5181 31.6785 38.3887 31.6938 38.2568C31.7147 38.0781 31.8499 37.9331 32.0046 37.8413C32.3531 37.6338 32.8185 37.0981 32.0312 35.8354C31.1543 34.4282 31.2782 32.4399 31.3745 31.6372C31.4028 31.4004 31.4065 31.1592 31.3458 30.9287C31.1171 30.0571 30.3413 27.8237 28.2906 27.1982C28.215 27.1738 28.1685 27.1011 28.1743 27.022C28.2091 26.6221 28.5524 25.9243 28.948 25.4814C29.1865 25.2085 29.4366 24.2017 29.425 23.1704C29.425 22.7339 28.9072 22.5215 28.6222 22.8369C27.8311 23.7349 26.3708 24.8994 24.1194 24.9902C20.6173 25.1299 18.5404 25.0874 17.6678 26.8037C17.5688 26.9917 17.4176 27.1436 17.2198 27.1982C15.8179 27.5801 10.1573 28.8418 7.49292 24.9961C4.43872 20.5864 5.79419 19.9316 5.79419 19.9316C5.79419 19.9316 10.4716 16.1465 11.891 15.6191C12.0597 15.5581 12.176 15.4492 12.3157 15.334C12.7054 14.9941 12.8102 14.0542 12.6007 12.6953C12.3331 10.9907 18.2205 7.42432 20.3729 6.32031C20.7917 6.10205 21.2456 5.98096 21.7168 5.95068C24.038 5.81104 32.2756 5.45312 33.5554 7.15137L33.5497 7.13916C33.5497 7.13916 26.0509 0.818848 15.8469 5.12549Z" stroke="#FBFBFB" stroke-opacity="1.000000" stroke-width="1.000000"/>
		<path id="Vector" d="M27.3599 32.1411C28.0289 32.123 29.7683 32.2017 29.4019 33.2754C28.6223 33.5547 27.7147 32.8325 27.3599 32.1411Z" fill="#FBFBFB" fill-opacity="1.000000" fill-rule="nonzero"/>
		<path id="Vector" d="M29.4019 33.2754C28.6223 33.5547 27.7147 32.8325 27.3599 32.1411C28.0289 32.123 29.7683 32.2017 29.4019 33.2754Z" stroke="#1D1D1B" stroke-opacity="1.000000" stroke-width="0.200000"/>
		<path id="Vector" d="M15.9807 15.7275C15.9807 15.7275 17.6561 14.6782 18.9594 15.1211" stroke="#999999" stroke-opacity="1.000000" stroke-width="1.000000"/>
		<path id="Vector" d="M23.0491 11.543L23.3923 12.3374C23.5552 12.7075 23.6191 13.1138 23.5901 13.5205L23.5261 14.4243C23.5261 14.4243 22.6418 19.5493 23.8635 20.7202C25.0852 21.8906 26.1731 21.2842 26.1731 21.2842L26.9003 20.9565" stroke="#999999" stroke-opacity="1.000000" stroke-width="0.500000"/>
		<path id="Vector" d="M29.7334 36.8784C29.7334 36.8784 28.791 36.0112 27.3773 36.1201" stroke="#999999" stroke-opacity="1.000000" stroke-width="0.200000"/>
		<path id="Vector" d="M29.6404 37.127C29.6404 37.127 28.506 36.563 27.1737 37.0786" stroke="#999999" stroke-opacity="1.000000" stroke-width="0.200000"/>
	</g>
</svg>
