<svg width="1080.696289" height="444.000000" viewBox="0 0 1080.7 444" fill="none" xmlns="http://www.w3.org/2000/svg" xmlns:xlink="http://www.w3.org/1999/xlink">
	<desc>
			Created with Pixso.
	</desc>
	<defs>
		<clipPath id="clip621_7120">
			<rect id="Cat throwing a vase-bro 1" width="1080.696045" height="444.000000" fill="white" fill-opacity="0"/>
		</clipPath>
	</defs>
	<rect id="Cat throwing a vase-bro 1" width="1080.696045" height="444.000000" fill="#FFFFFF" fill-opacity="0"/>
	<g clip-path="url(#clip621_7120)">
		<path id="505" d="M188.047 217.701L206.258 57.2718L383.165 57.2718L383.165 109.52L257.639 109.52L249.835 177.377Q272.165 165.453 297.313 165.453Q342.407 165.453 367.989 193.42Q393.571 221.387 393.571 271.684Q393.571 302.252 380.672 326.425Q367.772 350.598 343.708 363.931Q319.643 377.264 286.907 377.264Q258.29 377.264 233.792 365.665Q209.294 354.067 195.093 333.037Q180.893 312.008 180.026 285.125L242.03 285.125Q243.981 304.854 255.797 315.802Q267.612 326.75 286.69 326.75Q307.936 326.75 319.426 311.466Q330.917 296.182 330.917 268.215Q330.917 241.332 317.692 227.024Q304.467 212.715 280.186 212.715Q257.856 212.715 243.981 224.422L237.911 230.059L188.047 217.701ZM646.056 242.416Q646.056 307.889 618.956 342.576Q591.856 377.264 539.608 377.264Q488.011 377.264 460.694 343.227Q433.378 309.19 432.728 245.668L432.728 187.567Q432.728 121.444 460.152 87.1897Q487.577 52.9358 539.175 52.9358Q590.772 52.9358 618.089 86.8645Q645.405 120.793 646.056 184.315L646.056 242.416ZM583.401 178.678Q583.401 139.438 572.67 121.552Q561.938 103.666 539.175 103.666Q517.062 103.666 506.547 120.685Q496.032 137.703 495.382 173.908L495.382 250.655Q495.382 289.244 505.896 307.997Q516.411 326.75 539.608 326.75Q562.589 326.75 572.778 308.756Q582.968 290.762 583.401 253.69L583.401 178.678ZM697.786 217.701L715.997 57.2718L892.904 57.2718L892.904 109.52L767.378 109.52L759.574 177.377Q781.904 165.453 807.052 165.453Q852.146 165.453 877.728 193.42Q903.31 221.387 903.31 271.684Q903.31 302.252 890.411 326.425Q877.511 350.598 853.447 363.931Q829.382 377.264 796.646 377.264Q768.029 377.264 743.531 365.665Q719.033 354.067 704.832 333.037Q690.632 312.008 689.765 285.125L751.769 285.125Q753.72 304.854 765.536 315.802Q777.351 326.75 796.429 326.75Q817.675 326.75 829.165 311.466Q840.656 296.182 840.656 268.215Q840.656 241.332 827.431 227.024Q814.206 212.715 789.925 212.715Q767.595 212.715 753.72 224.422L747.65 230.059L697.786 217.701Z" fill="#FBCFBE" fill-opacity="1.000000" fill-rule="evenodd"/>
		<path id="Vector" d="M694.753 33.2733L694.753 192.483L585.121 192.483L585.121 33.2733L694.753 33.2733Z" stroke="#263238" stroke-opacity="1.000000" stroke-width="0.888000" stroke-linejoin="round"/>
		<path id="Vector" d="M685.847 46.2204L685.847 179.545L594.036 179.545L594.036 46.2204L685.847 46.2204Z" stroke="#263238" stroke-opacity="1.000000" stroke-width="0.888000" stroke-linejoin="round"/>
		<path id="Vector" d="M664.331 77.4604L664.331 148.305L615.544 148.305L615.544 77.4604L664.331 77.4604Z" stroke="#263238" stroke-opacity="1.000000" stroke-width="0.888000" stroke-linejoin="round"/>
		<path id="Vector" d="M573.035 33.2733L573.035 115.902L508.931 115.902L508.931 33.2733L573.035 33.2733Z" stroke="#263238" stroke-opacity="1.000000" stroke-width="0.888000" stroke-linejoin="round"/>
		<path id="Vector" d="M567.823 39.9955L567.823 109.197L514.143 109.197L514.143 39.9955L567.823 39.9955Z" stroke="#263238" stroke-opacity="1.000000" stroke-width="0.888000" stroke-linejoin="round"/>
		<path id="Vector" d="M555.249 56.2104L555.249 92.9825L526.726 92.9825L526.726 56.2104L555.249 56.2104Z" stroke="#263238" stroke-opacity="1.000000" stroke-width="0.888000" stroke-linejoin="round"/>
		<path id="Vector" d="M449.328 122.828C449.328 122.828 430.928 109.73 428.451 93.462C425.973 77.1938 429.872 54.541 421.018 42.5086C412.165 30.4762 379.797 29.304 377.879 48.5203C376.458 62.675 392.735 59.1763 401.225 55.9529C409.714 52.7294 412.547 63.7406 411.881 86.731C411.215 109.721 426.027 134.496 440.892 139.807C455.757 145.117 449.328 122.828 449.328 122.828Z" fill="#F05E25" fill-opacity="1.000000" fill-rule="nonzero"/>
		<path id="Vector" d="M428.451 93.462C425.973 77.1938 429.872 54.541 421.018 42.5086C412.165 30.4762 379.797 29.304 377.879 48.5203C376.458 62.675 392.735 59.1763 401.225 55.9529C409.714 52.7294 412.547 63.7406 411.881 86.731C411.215 109.721 426.027 134.496 440.892 139.807C455.757 145.117 449.328 122.828 449.328 122.828C449.328 122.828 430.928 109.73 428.451 93.462Z" stroke="#263238" stroke-opacity="1.000000" stroke-width="0.888000" stroke-linejoin="round"/>
		<path id="Vector" d="M469.672 201.469C469.672 201.469 473.091 209.062 478.597 213.431C484.103 217.8 487.477 217.8 487.477 217.8C487.477 217.8 486.527 223.678 488.427 226.529C490.327 229.379 503.612 249.688 505.699 251.393C507.785 253.098 512.909 252.911 516.523 252.716C520.137 252.521 521.079 250.629 518.992 247.024C516.905 243.419 511.391 242.273 511.391 242.273C511.391 242.273 509.304 235.249 511.204 228.42C513.104 221.591 515.191 217.764 520.315 215.695C525.439 213.626 545.943 213.804 547.275 215.509C550.838 220.775 556.152 224.61 562.273 226.333C571.766 228.997 577.076 227.657 579.926 230.321C582.777 232.985 582.2 238.863 586.569 239.431C590.938 240 593.406 236.767 592.074 231.075C590.742 225.383 586.951 222.151 581.827 216.867C576.703 211.584 569.102 204.906 566.829 199.019C564.555 193.131 556.172 171.686 550.125 158.588C544.078 145.49 537.782 122.517 511.053 110.556C484.324 98.5946 452.206 112.27 442.677 127.073C433.149 141.876 429.357 159.156 433.939 179.465C438.521 199.773 444 198.068 444.382 209.657C444.764 221.245 444.569 229.592 451.024 239.467C457.48 249.341 460.712 251.428 463.75 251.801C466.787 252.174 471.342 252.565 471.91 250.283C472.479 248.001 472.292 244.022 470.01 242.504C467.728 240.985 465.268 242.69 463.181 239.467C461.094 236.243 458.43 222.382 462.231 217.445C466.032 212.507 469.299 209.444 469.672 201.469Z" fill="#FFFFFF" fill-opacity="1.000000" fill-rule="nonzero"/>
		<path id="Vector" d="M478.597 213.431C484.103 217.8 487.477 217.8 487.477 217.8C487.477 217.8 486.527 223.678 488.427 226.529C490.327 229.379 503.612 249.688 505.699 251.393C507.785 253.098 512.909 252.911 516.523 252.716C520.137 252.521 521.079 250.629 518.992 247.024C516.905 243.419 511.391 242.273 511.391 242.273C511.391 242.273 509.304 235.249 511.204 228.42C513.104 221.591 515.191 217.764 520.315 215.695C525.439 213.626 545.943 213.804 547.275 215.509C550.838 220.775 556.152 224.61 562.273 226.333C571.766 228.997 577.076 227.657 579.926 230.321C582.777 232.985 582.2 238.863 586.569 239.431C590.938 240 593.406 236.767 592.074 231.075C590.742 225.383 586.951 222.151 581.827 216.867C576.703 211.584 569.102 204.906 566.829 199.019C564.555 193.131 556.172 171.686 550.125 158.588C544.078 145.49 537.782 122.517 511.053 110.556C484.324 98.5946 452.206 112.27 442.677 127.073C433.149 141.876 429.357 159.156 433.939 179.465C438.521 199.773 444 198.068 444.382 209.657C444.764 221.245 444.569 229.592 451.024 239.467C457.48 249.341 460.712 251.428 463.75 251.801C466.787 252.174 471.342 252.565 471.91 250.283C472.479 248.001 472.292 244.022 470.01 242.504C467.728 240.985 465.268 242.69 463.181 239.467C461.094 236.243 458.43 222.382 462.231 217.445C466.032 212.507 469.299 209.444 469.672 201.469C469.672 201.469 473.091 209.062 478.597 213.431Z" stroke="#263238" stroke-opacity="1.000000" stroke-width="0.888000" stroke-linejoin="round"/>
		<path id="Vector" d="M496.631 160.657C496.631 160.657 480.497 173.977 478.783 192.927C477.069 211.877 484.288 205.075 487.325 203.183C490.362 201.292 489.607 206.789 489.607 206.789C489.607 206.789 487.521 214.381 487.521 217.8C487.521 221.219 489.226 225.579 492.644 223.874C496.063 222.169 490.744 219.123 497.395 209.444C504.046 199.764 503.842 203.556 517.517 190.654C531.192 177.751 522.641 158.375 515.999 158.57C509.356 158.766 503.469 165.399 503.273 161.794C503.078 158.188 499.855 158.952 496.631 160.657Z" fill="#F05E25" fill-opacity="1.000000" fill-rule="nonzero"/>
		<path id="Vector" d="M455.543 115.333C449.887 118.788 445.411 122.873 442.729 127.055C433.237 141.867 429.41 159.138 433.992 179.447C434.978 184.18 436.466 188.794 438.432 193.211C441.451 198.681 444.328 201.274 445.979 203.752C449.017 208.307 455.854 208.875 456.422 198.051C456.991 187.226 441.611 161.794 444.878 137.498C446.246 126.655 450.864 119.711 455.543 115.333Z" fill="#F05E25" fill-opacity="1.000000" fill-rule="nonzero"/>
		<path id="Vector" d="M547.007 151.289C541.422 138.12 533.359 120.51 511.052 110.538C503.995 107.44 496.355 105.89 488.648 105.992C479.563 107.395 467.203 111.986 457.328 125.528C439.479 150.019 459.602 190.076 466.821 193.486C474.041 196.896 474.218 192.918 476.118 174.696C478.019 156.474 503.833 138.821 510.67 140.144C517.508 141.467 502.678 147.168 502.883 151.688C503.087 156.208 504.214 154.92 519.754 149.983C528.691 147.059 538.391 147.524 547.007 151.289Z" fill="#F05E25" fill-opacity="1.000000" fill-rule="nonzero"/>
		<path id="Vector" d="M478.597 213.431C484.103 217.8 487.477 217.8 487.477 217.8C487.477 217.8 486.527 223.678 488.427 226.529C490.327 229.379 503.612 249.688 505.699 251.393C507.785 253.098 512.909 252.911 516.523 252.716C520.137 252.521 521.079 250.629 518.992 247.024C516.905 243.419 511.391 242.273 511.391 242.273C511.391 242.273 509.304 235.249 511.204 228.42C513.104 221.591 515.191 217.764 520.315 215.695C525.439 213.626 545.943 213.804 547.275 215.509C550.838 220.775 556.152 224.61 562.273 226.333C571.766 228.997 577.076 227.657 579.926 230.321C582.777 232.985 582.2 238.863 586.569 239.431C590.938 240 593.406 236.767 592.074 231.075C590.742 225.383 586.951 222.151 581.827 216.867C576.703 211.584 569.102 204.906 566.829 199.019C564.555 193.131 556.172 171.686 550.125 158.588C544.078 145.49 537.782 122.517 511.053 110.556C484.324 98.5946 452.206 112.27 442.677 127.073C433.149 141.876 429.357 159.156 433.939 179.465C438.521 199.773 444 198.068 444.382 209.657C444.764 221.245 444.569 229.592 451.024 239.467C457.48 249.341 460.712 251.428 463.75 251.801C466.787 252.174 471.342 252.565 471.91 250.283C472.479 248.001 472.292 244.022 470.01 242.504C467.728 240.985 465.268 242.69 463.181 239.467C461.094 236.243 458.43 222.382 462.231 217.445C466.032 212.507 469.299 209.444 469.672 201.469C469.672 201.469 473.091 209.062 478.597 213.431Z" stroke="#263238" stroke-opacity="1.000000" stroke-width="0.888000" stroke-linejoin="round"/>
		<path id="Vector" d="M465.401 186.72C465.223 185.734 465.081 184.775 464.992 183.86" stroke="#263238" stroke-opacity="1.000000" stroke-width="0.888000" stroke-linejoin="round" stroke-linecap="round"/>
		<path id="Vector" d="M469.672 201.469C468.248 197.67 467.044 193.792 466.066 189.854" stroke="#263238" stroke-opacity="1.000000" stroke-width="0.888000" stroke-linejoin="round" stroke-linecap="round"/>
		<path id="Vector" d="M543.74 222.826C547.239 221.245 547.443 218.759 547.443 218.759C547.443 218.759 542.026 216.459 539.691 217.658C538.835 218.146 538.108 218.831 537.57 219.655C537.031 220.479 536.696 221.42 536.592 222.4C536.592 222.4 540.242 224.406 543.74 222.826Z" stroke="#263238" stroke-opacity="1.000000" stroke-width="0.888000" stroke-linejoin="round"/>
		<path id="Vector" d="M498.487 185.352C498.487 185.352 495.503 200.448 496.063 203.112C496.623 205.776 501.285 201.247 501.285 201.247C501.285 201.247 501.657 214.123 505.209 215.615C508.761 217.107 509.312 214.496 509.312 214.496C511.331 216.121 513.826 217.038 516.416 217.107C520.519 217.107 524.408 217.107 525.749 219.354C526.45 220.657 527.506 221.734 528.795 222.46C530.084 223.187 531.553 223.532 533.03 223.456C536.583 223.27 539.939 219.727 541.431 219.54C542.923 219.354 545.347 221.032 549.085 219.354C552.824 217.675 554.121 211.886 555.053 211.513C555.985 211.14 561.402 207.961 564.199 208.334C566.997 208.707 570.735 199.933 570.735 199.933C570.735 199.933 573.159 202.18 574.092 199.56C575.024 196.941 574.464 187.057 574.464 187.057C574.464 187.057 578.576 189.295 578.203 184.819C577.83 180.344 571.099 170.611 571.099 170.611C571.099 170.611 564.19 158.854 543.101 156.617C543.101 156.617 525.554 155.116 513.983 163.33C502.412 171.544 498.487 185.352 498.487 185.352Z" fill="#F05E25" fill-opacity="1.000000" fill-rule="nonzero"/>
		<path id="Vector" d="M496.063 203.112C496.623 205.776 501.285 201.247 501.285 201.247C501.285 201.247 501.657 214.123 505.209 215.615C508.761 217.107 509.312 214.496 509.312 214.496C511.331 216.121 513.826 217.038 516.416 217.107C520.519 217.107 524.408 217.107 525.749 219.354C526.45 220.657 527.506 221.734 528.795 222.46C530.084 223.187 531.553 223.532 533.03 223.456C536.583 223.27 539.939 219.727 541.431 219.54C542.923 219.354 545.347 221.032 549.085 219.354C552.824 217.675 554.121 211.886 555.053 211.513C555.985 211.14 561.402 207.961 564.199 208.334C566.997 208.707 570.735 199.933 570.735 199.933C570.735 199.933 573.159 202.18 574.092 199.56C575.024 196.941 574.464 187.057 574.464 187.057C574.464 187.057 578.576 189.295 578.203 184.819C577.83 180.344 571.099 170.611 571.099 170.611C571.099 170.611 564.19 158.854 543.101 156.617C543.101 156.617 525.554 155.116 513.983 163.33C502.412 171.544 498.487 185.352 498.487 185.352C498.487 185.352 495.503 200.448 496.063 203.112Z" stroke="#263238" stroke-opacity="1.000000" stroke-width="0.888000" stroke-linejoin="round"/>
		<path id="Vector" d="M515.102 170.416C515.102 170.416 512.304 166.864 504.836 166.314C497.368 165.763 486.393 165.701 486.748 168.978C487.103 172.254 503.735 187.563 503.735 187.563M515.422 170.138L515.45 170.141C515.604 170.337 515.572 170.611 515.376 170.765C515.181 170.919 514.907 170.886 514.753 170.691L514.756 170.663L515.422 170.138ZM504.007 187.238L504.036 187.237C504.219 187.405 504.23 187.681 504.062 187.864C503.894 188.047 503.617 188.058 503.435 187.89L503.433 187.862L504.007 187.238Z" fill="#F05E25" fill-opacity="1.000000" fill-rule="nonzero"/>
		<path id="Vector" d="M515.102 170.416C515.102 170.416 512.304 166.864 504.836 166.314C497.368 165.763 486.393 165.701 486.748 168.978C487.103 172.254 503.735 187.563 503.735 187.563" stroke="#263238" stroke-opacity="1.000000" stroke-width="0.888000" stroke-linejoin="round" stroke-linecap="round"/>
		<path id="Vector" d="M486.748 168.995C486.748 168.995 493.63 168.178 504.277 172.094C514.924 176.01 513.21 179.367 511.55 182.173C509.126 186.285 504.446 187.768 503.736 187.581C503.025 187.395 486.393 176.153 486.748 168.995Z" fill="#FFFFFF" fill-opacity="1.000000" fill-rule="nonzero"/>
		<path id="Vector" d="M504.277 172.094C514.924 176.01 513.211 179.367 511.55 182.173C509.126 186.285 504.446 187.768 503.736 187.581C503.025 187.395 486.393 176.153 486.748 168.995C486.748 168.995 493.63 168.178 504.277 172.094Z" stroke="#263238" stroke-opacity="1.000000" stroke-width="0.888000" stroke-linejoin="round"/>
		<path id="Vector" d="M545.658 165.701C545.658 165.701 546.733 161.305 553.286 157.709C559.839 154.112 569.794 149.486 570.842 152.621C571.89 155.755 563.134 176.597 563.134 176.597M546.075 165.782L546.089 165.806C546.03 166.048 545.794 166.191 545.553 166.132C545.311 166.073 545.168 165.837 545.227 165.595L545.251 165.581L546.075 165.782ZM563.533 176.742L563.543 176.769C563.447 176.998 563.191 177.102 562.962 177.006C562.733 176.91 562.628 176.654 562.725 176.425L562.751 176.414L563.533 176.742Z" fill="#F05E25" fill-opacity="1.000000" fill-rule="nonzero"/>
		<path id="Vector" d="M545.658 165.701C545.658 165.701 546.733 161.305 553.286 157.709C559.839 154.112 569.794 149.486 570.842 152.621C571.89 155.755 563.134 176.597 563.134 176.597" stroke="#263238" stroke-opacity="1.000000" stroke-width="0.888000" stroke-linejoin="round" stroke-linecap="round"/>
		<path id="Vector" d="M570.842 152.603C570.842 152.603 564.244 154.725 556.199 162.717C548.153 170.709 551.102 173.053 553.774 174.918C557.69 177.636 562.53 177.058 563.134 176.579C563.738 176.099 574.145 158.952 570.842 152.603Z" fill="#FFFFFF" fill-opacity="1.000000" fill-rule="nonzero"/>
		<path id="Vector" d="M556.199 162.717C548.153 170.709 551.102 173.053 553.774 174.918C557.69 177.636 562.53 177.058 563.134 176.579C563.738 176.099 574.145 158.952 570.842 152.603C570.842 152.603 564.244 154.725 556.199 162.717Z" stroke="#263238" stroke-opacity="1.000000" stroke-width="0.888000" stroke-linejoin="round"/>
		<path id="Vector" d="M563.986 207.295C563.196 195.058 552.14 196.807 550.826 198.708C549.512 200.608 547.691 200.111 547.185 196.656C546.679 193.202 536.254 183.816 532.8 187.581C529.345 191.346 526.53 199.649 527.942 201.842C529.354 204.036 527.472 205.599 525.438 205.394C523.405 205.19 519.64 206.336 517.606 211.193C516.301 214.301 516.984 215.544 517.606 216.042C521.238 216.042 524.515 216.272 525.687 218.279C526.388 219.582 527.444 220.66 528.733 221.386C530.022 222.112 531.491 222.457 532.968 222.382C536.521 222.195 539.877 218.652 541.369 218.466C542.861 218.279 545.285 219.958 549.023 218.279C552.762 216.601 554.058 210.811 554.991 210.438C555.923 210.065 561.136 207.09 563.986 207.295Z" fill="#FFFFFF" fill-opacity="1.000000" fill-rule="nonzero"/>
		<path id="Vector" d="M521.469 200.617C520.581 198.042 521.939 195.218 528.173 195.387" stroke="#263238" stroke-opacity="1.000000" stroke-width="2.664000" stroke-linejoin="round" stroke-linecap="round"/>
		<path id="Vector" d="M541.68 192.696C541.68 192.696 547.896 186.835 551.181 192.696" stroke="#263238" stroke-opacity="1.000000" stroke-width="2.664000" stroke-linejoin="round" stroke-linecap="round"/>
		<path id="Vector" d="M529.035 215.26L516.958 219.789" stroke="#263238" stroke-opacity="1.000000" stroke-width="0.888000" stroke-linejoin="round" stroke-linecap="round"/>
		<path id="Vector" d="M528.022 217.604L522.659 221.964" stroke="#263238" stroke-opacity="1.000000" stroke-width="0.888000" stroke-linejoin="round" stroke-linecap="round"/>
		<path id="Vector" d="M528.528 218.945L525.003 225.321" stroke="#263238" stroke-opacity="1.000000" stroke-width="0.888000" stroke-linejoin="round" stroke-linecap="round"/>
		<path id="Vector" d="M548.899 212.01L561.793 212.081" stroke="#263238" stroke-opacity="1.000000" stroke-width="0.888000" stroke-linejoin="round" stroke-linecap="round"/>
		<path id="Vector" d="M550.657 213.866L557.193 216.095" stroke="#263238" stroke-opacity="1.000000" stroke-width="0.888000" stroke-linejoin="round" stroke-linecap="round"/>
		<path id="Vector" d="M550.648 215.296L556.154 220.055" stroke="#263238" stroke-opacity="1.000000" stroke-width="0.888000" stroke-linejoin="round" stroke-linecap="round"/>
		<path id="Vector" d="M549.139 201.665C548.064 203.441 546.377 204.329 545.365 203.734C544.353 203.139 544.397 201.194 545.472 199.427C546.546 197.66 548.233 196.763 549.246 197.358C550.258 197.953 550.213 199.907 549.139 201.665Z" fill="#263238" fill-opacity="1.000000" fill-rule="nonzero"/>
		<path id="Vector" d="M526.673 206.069C528.28 207.357 530.225 207.659 530.927 206.735C531.628 205.812 530.971 204.009 529.355 202.722C527.739 201.434 525.803 201.132 525.101 202.056C524.4 202.979 525.066 204.782 526.673 206.069Z" fill="#263238" fill-opacity="1.000000" fill-rule="nonzero"/>
		<path id="Vector" d="M542.701 209.115C542.612 207.979 541.227 207.792 540.1 207.952C538.323 208.201 535.517 208.787 535.304 210.083C534.976 212.01 537.515 214.381 540.082 213.875C541.84 213.529 542.861 211.095 542.701 209.115Z" fill="#F05E25" fill-opacity="1.000000" fill-rule="nonzero"/>
		<path id="Vector" d="M540.1 207.952C538.323 208.201 535.517 208.787 535.304 210.083C534.976 212.01 537.515 214.381 540.082 213.875C541.84 213.529 542.861 211.095 542.701 209.115C542.612 207.979 541.227 207.792 540.1 207.952Z" stroke="#263238" stroke-opacity="1.000000" stroke-width="0.888000" stroke-linejoin="round"/>
		<path id="Vector" d="M540.081 213.875L540.587 217.418" stroke="#263238" stroke-opacity="1.000000" stroke-width="0.888000" stroke-linejoin="round" stroke-linecap="round"/>
		<path id="Vector" d="M378.324 408.658L378.324 261.525L669.783 261.525L669.783 410.611M378.748 408.638L378.768 408.658C378.768 408.906 378.572 409.102 378.324 409.102C378.075 409.102 377.88 408.906 377.88 408.658L377.9 408.638L378.748 408.638ZM670.207 410.591L670.227 410.611C670.227 410.86 670.032 411.055 669.783 411.055C669.534 411.055 669.339 410.86 669.339 410.611L669.359 410.591L670.207 410.591Z" fill="#FFFFFF" fill-opacity="1.000000" fill-rule="nonzero"/>
		<path id="Vector" d="M378.324 408.658L378.324 261.525L669.783 261.525L669.783 410.611" stroke="#263238" stroke-opacity="1.000000" stroke-width="0.888000" stroke-linejoin="round" stroke-linecap="round"/>
		<path id="Vector" d="M378.324 261.525L669.774 261.525L669.774 273.531L378.324 273.531L378.324 261.525Z" fill="#263238" fill-opacity="1.000000" fill-rule="evenodd"/>
		<path id="Vector" d="M651.589 279.161L394.326 279.161L394.326 337.946L651.589 337.946L651.589 279.161Z" fill="#FFFFFF" fill-opacity="1.000000" fill-rule="nonzero"/>
		<path id="Vector" d="M651.589 279.161L651.589 337.946L394.326 337.946L394.326 279.161L651.589 279.161Z" stroke="#263238" stroke-opacity="1.000000" stroke-width="0.888000" stroke-linejoin="round"/>
		<path id="Vector" d="M531.283 309.53C531.283 312.777 528.65 315.409 525.404 315.409C522.157 315.409 519.525 312.777 519.525 309.53C519.525 306.284 522.157 303.652 525.404 303.652C528.65 303.652 531.283 306.284 531.283 309.53Z" fill="#263238" fill-opacity="1.000000" fill-rule="evenodd"/>
		<path id="Vector" d="M651.589 347.359L394.326 347.359L394.326 406.145L651.589 406.145L651.589 347.359Z" fill="#FFFFFF" fill-opacity="1.000000" fill-rule="nonzero"/>
		<path id="Vector" d="M651.589 347.359L651.589 406.145L394.326 406.145L394.326 347.359L651.589 347.359Z" stroke="#263238" stroke-opacity="1.000000" stroke-width="0.888000" stroke-linejoin="round"/>
		<path id="Vector" d="M531.283 377.738C531.283 380.984 528.65 383.616 525.404 383.616C522.157 383.616 519.525 380.984 519.525 377.738C519.525 374.491 522.157 371.859 525.404 371.859C528.65 371.859 531.283 374.491 531.283 377.738Z" fill="#263238" fill-opacity="1.000000" fill-rule="evenodd"/>
		<path id="Vector" d="M682.881 252.219L361.55 252.219L361.55 266.915L682.881 266.915L682.881 252.219Z" fill="#FFFFFF" fill-opacity="1.000000" fill-rule="nonzero"/>
		<path id="Vector" d="M682.881 252.219L682.881 266.915L361.55 266.915L361.55 252.219L682.881 252.219Z" stroke="#263238" stroke-opacity="1.000000" stroke-width="0.888000" stroke-linejoin="round"/>
		<path id="Vector" d="M651.091 352.536C651.232 353.54 639.227 356.017 624.282 358.059C609.337 360.102 597.118 360.954 596.976 359.942C596.834 358.93 608.839 356.461 623.785 354.419C638.729 352.376 650.958 351.533 651.091 352.536Z" fill="#FFFFFF" fill-opacity="1.000000" fill-rule="nonzero"/>
		<path id="Vector" d="M624.282 358.059C609.337 360.102 597.118 360.954 596.976 359.942C596.834 358.93 608.839 356.461 623.785 354.419C638.729 352.376 650.958 351.533 651.091 352.536C651.232 353.54 639.227 356.017 624.282 358.059Z" stroke="#263238" stroke-opacity="1.000000" stroke-width="0.888000" stroke-linejoin="round"/>
		<path id="Vector" d="M609.115 353.531C606.715 361.153 603.353 368.437 599.107 375.207C591.764 387.168 579.998 405.816 579.074 411.224C578.151 416.632 581.641 406.385 597.625 393.384C613.795 380.189 614.95 349.739 614.95 349.739L609.115 353.531Z" fill="#F05E25" fill-opacity="1.000000" fill-rule="nonzero"/>
		<path id="Vector" d="M599.107 375.207C591.764 387.168 579.998 405.816 579.074 411.224C578.151 416.632 581.641 406.385 597.625 393.384C613.795 380.189 614.95 349.739 614.95 349.739L609.115 353.531C606.715 361.153 603.353 368.437 599.107 375.207Z" stroke="#263238" stroke-opacity="1.000000" stroke-width="0.888000"/>
		<path id="Vector" d="M617.212 349.428C617.212 349.428 621.555 364.142 616.378 387.15C611.201 410.158 609.896 420.006 609.896 420.006" stroke="#263238" stroke-opacity="1.000000" stroke-width="1.776000" stroke-linejoin="round" stroke-linecap="round"/>
		<path id="Vector" d="M622.541 347.039C622.541 347.039 630.302 374.567 635.941 384.14C641.58 393.713 642.912 396.164 642.912 396.164" stroke="#263238" stroke-opacity="1.000000" stroke-width="1.776000" stroke-linejoin="round" stroke-linecap="round"/>
		<path id="Vector" d="M635.941 384.14C635.941 384.14 630.764 386.804 632.096 394.982C634.121 407.352 647.592 408.48 647.592 408.48L649.11 404.928L653.115 405.043C653.115 405.043 653.737 394.974 648.462 388.038C647.091 386.106 645.123 384.677 642.86 383.973C640.598 383.269 638.167 383.327 635.941 384.14Z" fill="#F05E25" fill-opacity="1.000000" fill-rule="nonzero"/>
		<path id="Vector" d="M632.096 394.982C634.121 407.352 647.592 408.48 647.592 408.48L649.11 404.928L653.115 405.043C653.115 405.043 653.737 394.974 648.462 388.038C647.091 386.106 645.123 384.677 642.86 383.973C640.598 383.269 638.167 383.327 635.941 384.14C635.941 384.14 630.764 386.804 632.096 394.982Z" stroke="#263238" stroke-opacity="1.000000" stroke-width="0.888000"/>
		<path id="Vector" d="M613.421 399.538C613.421 399.538 609.931 398.348 601.442 406.837C592.953 415.327 594.498 429.082 594.498 429.082L604.878 424.642L609.558 429.659L615.277 425.219L623.313 430.44C623.313 430.44 629.298 411.011 613.421 399.538Z" fill="#F05E25" fill-opacity="1.000000" fill-rule="nonzero"/>
		<path id="Vector" d="M601.442 406.837C592.953 415.327 594.498 429.082 594.498 429.082L604.878 424.642L609.558 429.659L615.277 425.219L623.313 430.44C623.313 430.44 629.298 411.011 613.421 399.538C613.421 399.538 609.931 398.348 601.442 406.837Z" stroke="#263238" stroke-opacity="1.000000" stroke-width="0.888000"/>
		<path id="Vector" d="M616.272 346.151C618.822 353.723 620.398 361.589 620.961 369.559C622.106 383.572 623.563 405.514 626.032 410.46C628.5 415.406 625.277 405.017 630.472 385.126C635.809 364.968 618.759 339.669 618.759 339.669L616.272 346.151Z" fill="#F05E25" fill-opacity="1.000000" fill-rule="nonzero"/>
		<path id="Vector" d="M620.961 369.559C622.106 383.572 623.563 405.514 626.032 410.46C628.5 415.406 625.277 405.017 630.472 385.126C635.809 364.968 618.759 339.669 618.759 339.669L616.272 346.151C618.822 353.723 620.398 361.589 620.961 369.559Z" stroke="#263238" stroke-opacity="1.000000" stroke-width="0.888000"/>
		<path id="Vector" d="M624.078 352.243C630.788 356.576 636.917 361.748 642.318 367.632C651.926 377.889 666.72 394.166 671.737 396.501C676.754 398.836 667.759 392.718 659.447 373.901C651.011 354.818 621.965 345.619 621.965 345.619L624.078 352.243Z" fill="#F05E25" fill-opacity="1.000000" fill-rule="nonzero"/>
		<path id="Vector" d="M642.318 367.632C651.926 377.889 666.72 394.166 671.737 396.501C676.754 398.836 667.759 392.718 659.447 373.901C651.011 354.818 621.965 345.619 621.965 345.619L624.078 352.243C630.788 356.576 636.917 361.748 642.318 367.632Z" stroke="#263238" stroke-opacity="1.000000" stroke-width="0.888000"/>
		<path id="Vector" d="M596.674 359.951L596.985 359.906C597.127 358.876 609.017 356.443 623.785 354.419C638.241 352.438 650.149 351.586 651.037 352.447C646.738 347.51 643.269 341.908 640.763 335.859C638.921 331.409 638.105 326.601 638.376 321.793C638.647 316.984 639.997 312.298 642.326 308.083C647.157 299.07 649.306 287.57 647.654 275.475C644.191 250.141 625.401 231.795 605.687 234.494C585.974 237.194 572.831 259.918 576.268 285.243C578.043 298.377 583.984 309.637 592.021 317.052C595.956 320.726 598.875 325.354 600.496 330.488C602.117 335.622 602.385 341.088 601.274 346.356C600.32 351.063 598.775 355.631 596.674 359.951Z" fill="#263238" fill-opacity="1.000000" fill-rule="nonzero"/>
		<g opacity="0.300000">
			<path id="Vector" d="M631.572 253.08C632.202 255.285 632.16 257.627 631.453 259.809C630.747 261.99 629.406 263.911 627.603 265.328C625.799 266.744 623.615 267.591 621.329 267.762C619.042 267.932 616.756 267.417 614.764 266.283C612.771 265.15 611.16 263.448 610.138 261.395C609.116 259.343 608.729 257.032 609.024 254.759C609.321 252.485 610.287 250.351 611.801 248.628C613.314 246.906 615.307 245.674 617.524 245.088C618.971 244.687 620.483 244.575 621.974 244.76C623.464 244.945 624.903 245.422 626.209 246.165C627.514 246.908 628.66 247.901 629.58 249.088C630.5 250.274 631.178 251.631 631.572 253.08Z" fill="#FFFFFF" fill-opacity="1.000000" fill-rule="nonzero"/>
		</g>
		<path id="Vector" d="M622.728 243.801C623.026 244.828 623.011 245.921 622.686 246.94C622.359 247.959 621.737 248.857 620.898 249.521C620.059 250.184 619.041 250.583 617.975 250.665C616.908 250.748 615.841 250.51 614.91 249.983C613.979 249.457 613.226 248.664 612.748 247.708C612.269 246.751 612.086 245.673 612.223 244.612C612.359 243.551 612.81 242.555 613.515 241.751C614.22 240.947 615.149 240.371 616.184 240.098C617.542 239.724 618.994 239.904 620.221 240.598C621.447 241.292 622.349 242.443 622.728 243.801Z" fill="#FFFFFF" fill-opacity="1.000000" fill-rule="nonzero"/>
		<path id="Vector" d="" fill="#FFFFFF" fill-opacity="1.000000" fill-rule="nonzero"/>
		<path id="Vector" d="" stroke="#263238" stroke-opacity="1.000000" stroke-width="0.888000" stroke-linejoin="round"/>
	</g>
</svg>
