<svg width="386.000000" height="308.000000" viewBox="0 0 386 308" fill="none" xmlns="http://www.w3.org/2000/svg" xmlns:xlink="http://www.w3.org/1999/xlink">
	<desc>
			Created with Pixso.
	</desc>
	<defs/>
	<path id="Vector" d="M299.036 221.594C295.099 230.102 288.394 236.971 281.237 242.934C274.083 248.888 266.341 254.128 259.482 260.425C253.144 266.231 247.628 272.868 242.38 279.713C241.087 281.386 239.821 283.062 238.561 284.749C242.473 285.336 245.952 288.268 247.253 292.058C248.551 295.858 247.613 300.357 244.902 303.282C244.568 303.651 244.172 304.007 243.678 304.082C243.266 304.141 242.855 303.987 242.464 303.83C235.085 300.935 227.699 298.028 220.318 295.134C219.435 294.783 218.506 294.405 217.887 293.669C217.16 292.786 217.017 291.551 216.929 290.404C216.432 283.457 217.095 276.434 218.856 269.695C219.724 266.359 220.862 263.096 222.261 259.951C220.921 259.497 219.58 259.043 218.231 258.585C220.942 256.551 223.302 254.037 225.19 251.201C222.238 250.801 219.394 249.714 216.912 248.047C220.568 245.535 227.188 241.734 226.877 236.688C226.517 230.935 225.373 225.373 225.528 219.543C225.839 208.532 229.286 197.439 236.235 188.977C243.174 180.521 253.773 174.967 264.613 175.287C270.091 175.444 275.445 177.046 280.51 179.18C288.08 182.368 295.47 187.098 299.378 194.413C303.792 202.672 302.973 213.086 299.036 221.594Z" fill="#B25109" fill-opacity="1.000000" fill-rule="nonzero"/>
	<path id="Vector" d="M244.903 303.281C244.569 303.65 244.173 304.005 243.679 304.081C243.266 304.14 242.856 303.986 242.465 303.829C235.085 300.934 227.7 298.027 220.319 295.132C219.436 294.782 218.507 294.404 217.888 293.668C217.16 292.785 217.018 291.55 216.93 290.403C216.432 283.456 217.096 276.433 218.857 269.694C220.841 268.559 223.928 267.771 225.146 266.436C222.478 269.377 222.81 274.576 225.827 277.132C229.526 280.273 235.32 278.902 239.138 275.918C238.573 276.791 238.012 277.655 237.456 278.531C238.861 279.543 240.629 279.605 242.381 279.711C241.088 281.385 239.822 283.061 238.562 284.748C242.474 285.334 245.953 288.267 247.254 292.057C248.551 295.856 247.613 300.356 244.903 303.281Z" fill="#E0BB86" fill-opacity="1.000000" fill-rule="nonzero"/>
	<path id="Vector" d="M101.566 272.373C99.2076 276.955 98.0291 281.993 99.2352 286.953C104.127 283.33 111.705 284.233 115.639 288.915C117.521 291.152 118.391 294.913 116.202 296.842C115.234 297.687 113.92 297.955 112.661 298.184C102.761 300.036 92.8497 301.88 82.9497 303.731C80.0347 297.87 77.764 291.678 76.1702 285.315C73.391 274.228 72.6678 262.614 74.1265 251.272C70.5917 256.306 65.5203 260.209 59.7936 262.292C64.34 255.735 66.9962 247.833 67.3462 239.816C64.1433 241.43 60.9412 243.044 57.7469 244.656C65.1282 235.311 66.584 223.06 68.9755 211.724C71.2982 200.765 79.4562 195.44 89.8927 192.417C101.353 189.085 115.484 189.754 122.901 199.238C125.297 202.295 126.75 206.006 127.828 209.76C131.237 221.604 130.926 235.079 124.433 245.509C119.973 252.669 113.055 257.807 107.421 264.046C105.18 266.524 103.121 269.353 101.566 272.373Z" fill="#B25109" fill-opacity="1.000000" fill-rule="nonzero"/>
	<path id="Vector" d="M116.202 296.841C115.234 297.687 113.92 297.955 112.661 298.183C102.761 300.035 92.8497 301.88 82.9497 303.731C80.0347 297.87 77.764 291.677 76.1702 285.314C76.3322 284.946 76.5115 284.574 76.693 284.211C77.3337 282.924 80.2184 278.955 79.9877 277.603C80.2588 279.151 80.6609 280.671 81.1997 282.144C81.4094 282.721 81.7153 283.371 82.304 283.526C82.9432 283.706 83.5615 283.204 84.0511 282.739C87.5996 279.335 91.1583 275.938 94.709 272.543C94.4154 274.813 94.5348 277.136 95.0547 279.365C96.3362 276.792 98.2596 274.548 100.589 272.905C100.893 272.693 101.224 272.483 101.567 272.374C99.2085 276.955 98.0298 281.993 99.236 286.953C104.127 283.331 111.706 284.234 115.64 288.915C117.522 291.152 118.391 294.912 116.202 296.841Z" fill="#E0BB86" fill-opacity="1.000000" fill-rule="nonzero"/>
	<path id="Vector" d="M330.749 72.4786C330.731 72.8787 330.659 73.2874 330.525 73.6602C330.436 73.9329 330.302 74.1871 330.141 74.4231C328.622 76.5764 325.825 75.2134 323.84 73.9329C319.828 71.3525 315.457 69.3176 310.917 67.9003C307.271 66.7645 302.114 67.0005 298.941 64.9113C298.502 64.6208 298.082 64.3025 297.672 63.957C293.542 60.5048 290.781 54.4171 288.877 48.7933C288.145 46.6217 287.536 44.5229 287.036 42.6697C284.828 34.5743 283.497 26.1886 280.226 18.4749C278.403 14.1683 275.963 10.0612 274.309 5.71875C273.38 3.29272 275.9 0.985229 278.188 2.1665C278.475 2.31213 278.752 2.45764 279.037 2.60242C292.381 9.5708 305.135 18.1932 314.859 29.7952C322.464 38.8535 328.104 49.902 330.052 61.5671C330.65 65.1553 330.901 68.8081 330.749 72.4786Z" fill="#FF7D00" fill-opacity="1.000000" fill-rule="nonzero"/>
	<path id="Vector" d="M322.294 59.8585C315.922 59.9674 309.523 58.3684 303.919 55.2706C302.846 49.8644 302.453 44.2317 300.63 39.0527C298.449 32.8746 294.624 27.4501 290.53 22.3894C288.502 19.8906 286.249 16.856 287.107 13.7397C298.091 18.3733 307.69 26.3414 314.348 36.3628C319.023 43.3951 322.231 51.4265 323.777 59.7675C323.286 59.8409 322.795 59.8497 322.294 59.8585Z" fill="#FFDCA2" fill-opacity="1.000000" fill-rule="nonzero"/>
	<path id="Vector" d="M324.823 70.5071C324.823 70.7975 324.823 71.0974 324.805 71.3885C320.274 69.608 315.644 68.0811 310.943 66.8093C308.995 65.4192 306.85 64.5017 305.929 62.2662C305 60.0219 304.392 57.6687 303.918 55.2706C309.522 58.3693 315.921 59.9681 322.294 59.8586C322.794 59.8497 323.286 59.8402 323.778 59.7675C324.43 63.302 324.788 66.8998 324.823 70.5071Z" fill="#E0BB86" fill-opacity="1.000000" fill-rule="nonzero"/>
	<path id="Vector" d="M310.944 66.8094C306.574 65.6281 302.15 64.6747 297.672 63.9564C293.542 60.5042 290.781 54.4165 288.877 48.7927C290.325 48.8383 291.461 50.0374 292.488 51.0916C293.543 52.1729 294.955 53.2543 296.403 52.8544C296.751 52.7544 297.073 52.5728 297.422 52.464C298.816 52.0553 300.219 52.9728 301.434 53.7814C302.239 54.3173 303.07 54.8171 303.919 55.2715C304.393 57.6703 305 60.0234 305.93 62.2671C306.85 64.5018 308.995 65.4193 310.944 66.8094Z" fill="#EA6A00" fill-opacity="1.000000" fill-rule="nonzero"/>
	<path id="Vector" d="M330.749 72.4785C330.731 72.8784 330.659 73.2872 330.525 73.6599C329.757 73.4417 329.006 73.1145 328.274 72.8057C327.13 72.3153 325.967 71.8427 324.806 71.3883C324.824 71.0973 324.824 70.7981 324.824 70.507C324.789 66.8997 324.431 63.3019 323.778 59.7681C324.145 59.7321 324.511 59.6681 324.869 59.5681C325.271 59.4497 325.673 59.2865 326.093 59.2593C327.067 59.1777 327.961 59.7769 328.721 60.3951C329.177 60.7678 329.624 61.1582 330.052 61.5669C330.651 65.1552 330.901 68.808 330.749 72.4785Z" fill="#EA6A00" fill-opacity="1.000000" fill-rule="nonzero"/>
	<path id="Vector" d="M324.806 71.3887C324.77 71.9789 324.663 72.5604 324.368 73.0691C323.322 74.832 320.694 74.6049 318.907 73.6506C316.253 72.2333 314.349 69.8441 312.177 67.8085C311.784 67.4358 311.373 67.1086 310.944 66.8094C315.645 68.0812 320.275 69.6082 324.806 71.3887Z" fill="#FFDCA2" fill-opacity="1.000000" fill-rule="nonzero"/>
	<path id="Vector" d="M376.911 129.136C372.648 135.587 368.367 140.721 363.809 144.5C361.431 145.817 358.974 146.98 356.489 148.052C352.047 149.969 347.31 151.887 342.51 152.44C342.519 152.449 342.528 152.467 342.537 152.476C341.447 152.495 340.329 152.449 339.195 152.367C323.519 151.177 309.996 137.431 309.996 137.431C309.996 137.431 316.288 172.037 341.009 172.274L343.458 179.734C341.107 180.651 338.309 180.551 335.771 180.106C327.924 178.726 320.988 175.218 315.653 169.203C315.68 169.739 315.716 170.275 315.733 170.821C314.214 169.395 313.15 168.376 313.034 168.268C313.115 168.713 314.607 176.099 316.055 185.367C316.037 194.007 315.671 202.702 315.161 211.133C314.625 220.083 310.827 228.569 305.455 235.719C305.455 235.727 305.455 235.727 305.446 235.727C299.307 244.048 290.324 250.948 282.012 256.579C264.279 268.587 259.007 268.155 243.885 273.669C240.712 274.832 237.584 276.14 234.447 277.375C212.496 281.546 189.589 284.116 182.583 283.553C169.292 282.481 138.163 258.314 115.426 259.022C92.7507 259.721 48.9664 269.69 39.8865 267.199C31.3337 264.85 29.5178 237.487 29.7161 228.558C29.7161 228.483 29.7319 227.989 29.7515 227.731C29.7515 227.731 27.1184 235.751 22.9183 237.877C22.9183 237.877 25.2028 216.711 28.697 204.627C32.1914 192.535 39.538 186.847 39.538 186.847C39.538 186.847 24.505 180.069 23.1021 172.083C21.7078 164.096 28.697 150.941 28.697 150.941C28.697 150.941 28.0896 148.152 28.1786 144.754C28.3485 138.257 31.056 129.517 45.3651 133.642C45.3651 133.642 45.3651 145.017 48.3951 149.76C51.4338 154.502 63.5532 164.215 63.5532 164.215C63.5532 164.215 74.9756 150.232 93.6279 148.924C112.28 147.625 146.556 149.287 161.714 154.975C176.863 160.663 203.908 161.371 213.006 155.684C222.095 149.996 238.183 125.583 238.415 113.49C238.648 101.407 257.774 60.9943 283.997 60.6399C309.885 60.3422 328.304 59.4042 342.403 81.6185C356.391 103.66 351.501 104.014 356.391 105.913C361.581 107.814 373.1 104.237 378.547 104.487C381.326 104.614 383.721 106.759 383.865 111.111C384.008 115.172 382.193 121.131 376.911 129.136Z" fill="#FF7D00" fill-opacity="1.000000" fill-rule="nonzero"/>
	<path id="Vector" d="M337.108 91.0225C336.9 92.1267 336.816 93.261 336.948 94.377C337.238 96.825 338.558 99.0516 340.239 100.83C341.211 101.858 342.348 102.783 343.693 103.193C345.037 103.602 346.619 103.415 347.646 102.444C348.568 101.573 348.914 100.212 348.845 98.934C348.776 97.6564 348.343 96.4324 347.915 95.2289C346.828 92.1744 345.66 88.6172 343.178 86.4066C340.114 83.677 337.615 88.3312 337.108 91.0225Z" fill="#EA6A00" fill-opacity="1.000000" fill-rule="nonzero"/>
	<path id="Vector" d="M296.828 98.063C295.358 101.615 295.572 105.714 296.739 109.38C297.282 111.083 298.068 112.783 299.437 113.91C301.448 115.564 304.408 115.642 306.795 114.626C309.182 113.611 311.073 111.666 312.633 109.567C313.248 108.74 313.824 107.879 314.284 106.953C315.819 103.865 315.942 100.043 314.424 96.9471C310.552 89.0474 300.013 90.3735 296.828 98.063Z" fill="#EA6A00" fill-opacity="1.000000" fill-rule="nonzero"/>
	<path id="Vector" d="M315.305 100.308C315.305 101.181 315.171 102.025 314.939 102.816C314.93 102.824 314.93 102.824 314.93 102.834C313.875 106.277 310.702 108.785 306.967 108.785C302.364 108.785 298.628 104.987 298.628 100.308C298.628 98.7548 299.039 97.3007 299.754 96.056C299.754 96.056 299.762 96.0472 299.762 96.0377C301.21 93.5214 303.9 91.8401 306.966 91.8401C311.569 91.8401 315.305 95.629 315.305 100.308Z" fill="#E2E2E2" fill-opacity="1.000000" fill-rule="nonzero"/>
	<path id="Vector" d="M315.305 100.308C315.305 101.181 315.171 102.025 314.938 102.816C314.93 102.824 314.93 102.824 314.93 102.834C313.482 105.35 310.801 107.041 307.726 107.041C303.124 107.041 299.388 103.243 299.388 98.5636C299.388 97.6918 299.513 96.8463 299.754 96.056C299.754 96.056 299.763 96.0472 299.763 96.0377C301.211 93.5214 303.901 91.8401 306.966 91.8401C311.569 91.8401 315.305 95.629 315.305 100.308Z" fill="#FFFFFF" fill-opacity="1.000000" fill-rule="nonzero"/>
	<path id="Vector" d="M309.783 93.285C313.652 94.2137 316.048 98.1552 315.134 102.088C314.221 106.021 310.344 108.457 306.475 107.528C302.606 106.599 300.21 102.658 301.124 98.725C302.037 94.792 305.914 92.3563 309.783 93.285Z" fill="#201600" fill-opacity="1.000000" fill-rule="evenodd"/>
	<path id="Vector" d="M312.712 96.8958C313.332 98.3359 313.259 99.7584 312.551 100.073C311.843 100.388 310.766 99.4753 310.147 98.036C309.527 96.5958 309.599 95.1733 310.307 94.8588C311.016 94.5433 312.093 95.4557 312.712 96.8958Z" fill="#FFFFFF" fill-opacity="1.000000" fill-rule="nonzero"/>
	<path id="Vector" d="M384.258 117.561C383.784 123.63 381.005 129.563 377.019 134.196C373.336 138.476 368.751 141.792 363.809 144.499C361.432 145.817 358.974 146.98 356.49 148.052C352.048 149.969 347.311 151.886 342.511 152.44C342.52 152.448 342.529 152.467 342.538 152.476C343.923 154.766 345.112 157.191 346.077 159.698C346.836 161.616 347.453 163.587 347.945 165.595C349.017 169.992 349.169 175.326 345.818 178.315C345.112 178.942 344.317 179.405 343.458 179.732C341.108 180.65 338.31 180.55 335.772 180.105C327.925 178.724 320.989 175.217 315.654 169.202C315.68 169.656 315.707 170.102 315.725 170.565C315.725 170.647 315.734 170.738 315.734 170.819C315.984 175.607 316.083 180.478 316.056 185.366C316.038 194.006 315.672 202.701 315.162 211.132C314.626 220.082 310.827 228.567 305.456 235.717C305.456 235.726 305.456 235.726 305.447 235.726C304.965 236.38 304.455 237.025 303.946 237.652C303.937 237.671 303.919 237.679 303.91 237.698C297.761 245.202 290.003 251.163 282.013 256.578C276.633 260.221 271.083 263.656 265.148 266.253C258.257 269.261 250.937 271.096 243.885 273.667C240.713 274.83 237.585 276.139 234.448 277.374C231.704 278.464 228.96 279.5 226.144 280.354C223.526 281.144 220.871 281.771 218.199 282.317C216.009 282.78 213.819 283.18 211.621 283.58C209.985 283.88 208.484 284.597 206.858 284.924C192.826 287.832 178.204 285.452 164.512 281.191C150.82 276.92 137.762 270.797 124.257 265.954C115.346 262.756 105.891 260.094 96.5328 261.429C90.9377 262.229 85.6378 264.419 80.4904 266.781C79.0332 267.444 77.5854 268.125 76.1471 268.825C68.3804 272.614 47.4811 256.105 41.1448 262.001C45.2654 255.378 63.5005 270.261 68.9255 264.854C76.5223 257.277 85.2993 250.981 95.0323 246.211C100.073 243.739 105.436 241.94 110.932 240.868C108.671 237.452 104.202 236.544 100.198 235.917C121.953 235.162 143.858 239.36 163.842 248.118C163.118 244.857 161.733 241.74 159.793 239.042C170.438 248.927 184.631 253.042 199.065 255.577C202.676 256.213 206.295 256.749 209.888 257.249C210.523 257.349 211.158 257.43 211.792 257.521C218.361 258.43 224.992 259.348 231.598 258.712C244.798 257.449 257.025 249.853 265.265 239.296C273.505 228.729 280.173 215.801 278.528 202.427C277.849 196.966 276.464 191.588 274.417 186.482C272.093 180.712 268.241 174.761 262.244 173.471C257.641 172.472 252.976 174.48 248.686 176.442C249.678 172.526 250.679 168.601 251.671 164.686C248.641 166.103 245.254 166.73 241.92 166.493C245.021 162.132 247.792 157.526 250.214 152.738C246.666 152.265 243.198 151.202 239.989 149.603C256.434 139.455 276.848 139.291 295.169 133.34C299.173 132.041 303.124 130.441 306.591 128.043C314.421 122.628 319.301 113.08 319.166 103.457C319.103 99.4237 318.219 95.4348 316.958 91.6011C312.776 78.9082 304.124 67.879 293.14 60.5378C300.996 60.5018 308.065 60.7195 314.474 61.9736C321.57 68.3517 327.325 76.2103 332.009 84.6056C334.869 89.739 337.344 95.0901 340.401 100.115C341.34 101.65 342.367 103.195 343.833 104.221C344.021 104.348 344.208 104.467 344.396 104.576C345.799 105.375 347.426 105.72 349.026 105.929C351.707 106.274 354.397 106.256 357.096 106.129C360.367 105.974 363.657 105.656 366.928 105.583C367.535 105.575 368.143 105.575 368.76 105.602C370.69 105.675 372.63 105.92 374.525 106.374C377.931 107.174 381.156 108.618 383.82 110.853C383.838 110.934 383.855 111.026 383.865 111.107C384.32 113.246 384.437 115.417 384.258 117.561Z" fill="#FFDCA2" fill-opacity="1.000000" fill-rule="nonzero"/>
	<path id="Vector" d="M384.258 117.561C383.784 123.63 381.005 129.563 377.019 134.196C373.336 138.476 368.751 141.792 363.809 144.499C361.432 145.817 358.974 146.98 356.49 148.051C352.048 149.969 347.311 151.886 342.511 152.439C342.52 152.448 342.529 152.467 342.538 152.475C343.923 154.766 345.111 157.191 346.077 159.698C343.797 160.098 341.501 160.344 339.194 160.425C332.938 160.644 326.521 159.653 320.998 156.646C316.395 154.13 310.889 149.114 309.978 143.572C313.99 147.142 318.531 148.596 323.84 148.987C338.283 150.031 353.057 145.443 364.461 136.358C368.107 133.459 371.45 130.08 373.774 126.009C374.498 124.755 375.115 123.438 375.999 122.302C377.223 120.731 378.886 119.586 380.629 118.659C381.755 118.07 383.024 117.552 384.258 117.561Z" fill="#E0BB86" fill-opacity="1.000000" fill-rule="nonzero"/>
	<path id="Vector" d="M374.525 106.376C374.445 106.412 374.355 106.44 374.275 106.468C372.389 107.085 370.405 107.303 368.448 107.603C364.408 108.23 360.422 109.194 356.543 110.502C354.782 111.102 353.031 111.765 351.208 112.165C348.714 112.71 346.14 112.755 343.593 112.774C338.686 112.81 333.788 112.801 328.882 112.728C328.31 112.719 325.833 113.046 325.557 112.392C325.199 111.547 327.166 110.829 327.701 110.557C329.65 109.557 331.652 108.649 333.68 107.84C337.157 106.46 340.741 105.369 344.396 104.578C345.799 105.378 347.426 105.723 349.026 105.932C351.707 106.277 354.397 106.259 357.096 106.132C360.367 105.977 363.657 105.659 366.928 105.586C367.535 105.577 368.143 105.577 368.76 105.605C370.691 105.677 372.63 105.922 374.525 106.376Z" fill="#E0BB86" fill-opacity="1.000000" fill-rule="nonzero"/>
	<path id="Vector" d="M347.485 92.3817C347.66 93.1779 347.752 93.9667 347.778 94.7188C347.775 94.7283 347.775 94.7283 347.776 94.7363C347.863 98.0173 346.548 100.719 344.408 101.205C341.771 101.803 338.869 98.8223 337.931 94.5504C337.619 93.1323 337.563 91.7517 337.723 90.5219C337.723 90.5219 337.727 90.5123 337.724 90.5042C338.049 88.0187 339.253 86.1338 341.01 85.7354C343.646 85.1377 346.546 88.1106 347.485 92.3817Z" fill="#E2E2E2" fill-opacity="1.000000" fill-rule="nonzero"/>
	<path id="Vector" d="M347.485 92.3815C347.66 93.1776 347.752 93.9664 347.778 94.7185C347.775 94.728 347.775 94.728 347.776 94.7361C347.452 97.2224 346.255 99.1139 344.493 99.5131C341.856 100.111 338.954 97.1305 338.016 92.8586C337.841 92.0624 337.743 91.2744 337.723 90.5216C337.723 90.5216 337.726 90.5121 337.724 90.5039C338.049 88.0184 339.253 86.1335 341.01 85.7351C343.646 85.1375 346.546 88.1104 347.485 92.3815Z" fill="#FFFFFF" fill-opacity="1.000000" fill-rule="nonzero"/>
	<path id="Vector" d="M347.483 92.3862C348.293 96.0759 347.104 99.4862 344.826 100.003C342.548 100.52 340.046 97.9482 339.235 94.2587C338.424 90.569 339.614 87.1587 341.891 86.642C344.169 86.1244 346.673 88.6965 347.483 92.3862Z" fill="#201600" fill-opacity="1.000000" fill-rule="nonzero"/>
	<path id="Vector" d="M345.315 89.6045C345.958 90.8387 346.203 92.1465 345.86 92.5259C345.517 92.9052 344.718 92.2128 344.074 90.9784C343.431 89.7441 343.186 88.4363 343.529 88.057C343.871 87.6769 344.671 88.3701 345.315 89.6045Z" fill="#FFFFFF" fill-opacity="1.000000" fill-rule="nonzero"/>
	<path id="Vector" d="M373.659 103.596C377.684 103.365 382.35 103.838 384.66 107.195C386.717 110.184 386.048 114.254 385.023 117.748C384.296 120.229 383.257 122.885 381.015 124.11C379.872 124.735 378.544 124.905 377.248 124.965C369.574 125.32 361.967 122.108 356.172 116.982C344.553 106.704 367.815 103.933 373.659 103.596Z" fill="#201600" fill-opacity="1.000000" fill-rule="nonzero"/>
	<path id="Vector" d="M292.514 90.3234C283.156 85.0496 304.629 72.8073 307.004 81.1871C308.212 85.4495 296.262 92.4354 292.514 90.3234Z" fill="#FFDCA2" fill-opacity="1.000000" fill-rule="nonzero"/>
	<path id="Vector" d="M336.239 77.5178C337.563 77.5399 338.993 77.6869 340.007 78.9396C340.45 79.4872 340.796 80.4025 340.55 81.1736C340.387 81.6831 340.016 81.9677 339.658 82.1661C337.86 83.1659 335.871 82.8923 333.949 82.8674C333.376 82.86 332.794 82.874 332.241 82.649C331.69 82.4241 331.16 81.9161 330.934 81.1414C329.875 77.5046 335.031 77.4972 336.239 77.5178Z" fill="#FFDCA2" fill-opacity="1.000000" fill-rule="nonzero"/>
	<path id="Vector" d="M347.748 175.6C345.326 178.853 339.231 179.943 330.105 175.273C328.416 174.419 326.628 173.356 324.742 172.084C312.632 163.898 309.262 142.238 309.262 142.238C312.783 151.751 322.892 153.486 330.391 153.359C330.912 153.35 342.471 152.459 342.51 152.441C348.213 159.445 350.626 171.738 347.748 175.6Z" fill="#A14944" fill-opacity="1.000000" fill-rule="nonzero"/>
	<path id="Vector" d="M332.17 169.667C331.723 171.62 331.034 173.51 330.105 175.272C328.416 174.418 326.628 173.355 324.742 172.083C312.632 163.897 309.262 142.237 309.262 142.237C312.783 151.75 322.892 153.485 330.391 153.358C331.061 154.548 331.472 156.093 331.803 157.21C332.983 161.236 333.108 165.579 332.17 169.667Z" fill="#8C312F" fill-opacity="1.000000" fill-rule="nonzero"/>
	<path id="Vector" d="M256.739 269.416C223.994 282.209 214.94 283.705 212.741 284.105C211.105 284.405 208.484 284.599 206.858 284.926C192.826 287.833 178.204 285.453 164.512 281.192C150.82 276.922 137.762 270.798 124.257 265.956C115.346 262.758 105.891 260.095 96.5328 261.431C90.9377 262.231 85.6378 264.42 80.4904 266.782C79.0332 267.445 77.5854 268.126 76.1471 268.826C77.4611 267.782 78.7837 266.755 80.1245 265.746C83.1986 263.43 86.3986 261.176 90.0093 259.895C96.1495 257.724 106.919 253.044 141.319 263.929C143.348 264.574 179.379 281.646 196.599 280.667C229.939 278.772 257.891 265.037 256.739 269.416Z" fill="#E0BB86" fill-opacity="1.000000" fill-rule="nonzero"/>
	<path id="Vector" d="M356.292 210.388C354.683 217.22 348.669 222.254 341.76 221.827C336.755 221.527 332.188 218.32 332.965 207.235C334.592 183.885 319.086 168.603 315.457 160.917C315.457 160.917 324.216 157.964 329.114 160.917C329.114 160.917 330.168 159.772 332.661 159.245C332.975 159.173 333.305 159.118 333.662 159.073C338.408 158.473 343.065 160.763 345.791 164.76C351.26 172.774 360.967 190.545 356.292 210.388Z" fill="#D5584D" fill-opacity="1.000000" fill-rule="nonzero"/>
	<path id="Vector" d="M240.466 95.526C232.088 92.0333 226.561 83.6072 223.787 74.8444C221.013 66.0815 220.511 56.7747 219.165 47.6715C217.134 33.9274 213.161 20.5714 209.906 7.07288C209.581 5.72607 209.266 4.28894 209.706 2.97668C210.32 1.14697 212.303 0.0743408 214.203 0.0045166C216.104 -0.0645752 217.938 0.674194 219.66 1.49463C230.376 6.59949 239.09 15.2035 246.821 24.3125C254.551 33.4216 261.54 43.2129 269.98 51.6449C272.208 53.871 274.557 56.0264 276.254 58.692C277.951 61.3575 278.945 64.6724 278.141 67.7407C277.521 70.1086 275.922 72.0641 274.367 73.9358C271.284 77.6482 268.2 81.3606 265.116 85.0724C258.137 93.4764 251.925 100.303 240.466 95.526Z" fill="#FF7D00" fill-opacity="1.000000" fill-rule="nonzero"/>
	<path id="Vector" d="M267.588 66.8092C267.543 67.0452 267.463 67.282 267.355 67.4995C266.909 68.4353 265.979 69.1528 264.978 69.0081C263.727 68.8176 262.994 67.4275 262.842 66.1549C261.823 66.2733 261.162 67.2819 260.644 68.1898C258.883 71.306 257.113 74.4224 255.353 77.5481C254.799 75.7125 254.37 73.8503 254.057 71.9603C252.385 75.3494 250.884 78.8287 249.587 82.3816C248.845 84.4076 248.023 89.7683 244.797 88.6964C244.324 88.5421 243.868 88.2333 243.421 87.8334C241.571 86.1433 239.98 82.7367 239.105 81.0194C237.639 78.1479 236.548 75.0957 235.717 71.9883C234.126 66.0734 233.456 59.9592 232.642 53.8811C231.427 44.7588 229.907 35.6827 228.066 26.67C227.414 23.4449 226.708 20.1736 226.922 16.8846C226.994 15.7577 227.449 14.3499 228.558 14.2587C229.21 14.2042 229.782 14.649 230.274 15.0857C236.557 20.5735 241.312 27.6146 245.799 34.6925C248.4 38.8086 250.982 43.0055 254.486 46.3585C255.943 47.7574 257.56 48.9932 258.919 50.4922C259.947 51.6367 260.814 52.9181 261.681 54.1898C263.629 57.0518 265.587 59.932 266.936 63.1299C267.427 64.2921 267.838 65.5735 267.588 66.8092Z" fill="#FFDCA2" fill-opacity="1.000000" fill-rule="nonzero"/>
	<path id="Vector" d="M335.049 198.971C335.098 202.079 334.74 205.177 334.603 208.282C334.474 211.178 334.604 214.297 336.298 216.629C337.887 218.818 340.685 219.918 343.356 219.76C346.028 219.601 348.551 218.294 350.535 216.47C351.893 215.222 353.077 213.608 353.216 211.752C353.241 211.411 353.224 211.047 353.038 210.762C352.776 210.362 352.256 210.233 351.784 210.206C348.672 210.029 345.724 212.818 342.729 211.941C341.099 211.464 339.924 209.964 339.321 208.353C338.718 206.741 338.585 204.995 338.353 203.287C337.844 199.548 336.836 195.9 335.584 192.353C335.047 190.833 333.198 183.739 331.421 183.785C332.192 186.262 333.409 188.56 334.037 191.13C334.662 193.693 335.006 196.329 335.049 198.971Z" fill="#E07873" fill-opacity="1.000000" fill-rule="nonzero"/>
	<path id="Vector" d="M341.134 181.969C340.634 181.969 340.365 181.369 340.222 180.878C338.372 174.573 335.351 168.622 331.356 163.443C330.82 162.743 330.248 162.09 329.622 161.471C329.399 161.253 329.229 161.081 329.113 160.917C329.113 160.917 330.167 159.772 332.661 159.245C332.536 159.8 332.509 160.381 332.581 160.944C332.741 162.162 333.26 163.297 333.805 164.396C336.423 169.748 339.578 174.927 340.981 180.732C341.081 181.142 341.17 181.551 341.134 181.969Z" fill="#C63F38" fill-opacity="1.000000" fill-rule="nonzero"/>
	<path id="Vector" d="M378.648 105.436C379.938 105.504 381.542 105.867 381.819 107.15C379.476 107.9 376.977 107.901 374.537 108.197C372.099 108.492 369.561 109.161 367.826 110.928C367.427 111.334 367.068 111.815 366.959 112.379C366.642 114.008 368.464 115.667 367.752 117.162C367.413 117.874 366.574 118.225 365.796 118.203C365.018 118.181 364.282 117.856 363.576 117.524C361.869 116.723 360.147 115.813 358.927 114.36C357.838 113.062 356.706 110.413 358.247 109.133C359.716 107.911 362.51 107.248 364.315 106.735C368.961 105.414 373.852 105.182 378.648 105.436Z" fill="#595651" fill-opacity="1.000000" fill-rule="nonzero"/>
	<path id="Vector" d="M377.475 105.386C377.821 105.419 378.277 105.603 378.209 105.949C378.162 106.192 377.88 106.291 377.642 106.344C376.574 106.58 368.841 108.2 368.733 107.132C368.508 104.903 376.285 105.271 377.475 105.386Z" fill="#FFFFFF" fill-opacity="1.000000" fill-rule="nonzero"/>
	<path id="Vector" d="M75.4695 269.743C73.2131 271.192 70.792 272.392 68.2371 273.277C60.3452 276.008 51.7867 275.595 43.5493 276.861C40.2748 277.361 36.9252 278.251 33.8503 279.611C29.1859 281.674 25.1594 284.845 23.037 289.477C29.0818 289.775 34.4259 295.313 34.6002 301.466C34.6841 304.409 33.041 307.891 30.1455 307.997C28.8699 308.038 27.681 307.408 26.5594 306.784C17.7073 301.912 8.85217 297.027 0 292.154C1.34729 285.731 3.40112 279.461 6.08765 273.489C10.7665 263.083 17.371 253.579 25.5072 245.677C19.6475 247.343 13.2903 247.147 7.54553 245.117C15.1328 242.911 22.078 238.452 27.2985 232.432C26.054 232.152 24.8093 231.871 23.5728 231.595C21.3274 231.089 19.0812 230.584 16.8358 230.079C26.9058 227.828 34.8251 220.956 42.5809 214.388L42.5853 214.38C43.218 213.842 43.8624 213.299 44.4908 212.769C44.9623 212.371 45.4374 211.986 45.9045 211.597C54.4768 204.544 64.1158 205.602 74.1084 209.904C85.088 214.619 95.6787 224.153 95.6013 236.269C95.5804 240.178 94.4219 243.995 92.9445 247.604C89.3243 256.468 83.3511 264.659 75.4695 269.743Z" fill="#FF7D00" fill-opacity="1.000000" fill-rule="nonzero"/>
	<path id="Vector" d="M30.1455 307.998C28.8699 308.038 27.681 307.409 26.5594 306.785C17.7073 301.913 8.85217 297.028 0 292.155C1.34729 285.731 3.40112 279.461 6.08765 273.49C6.44116 273.306 6.81079 273.131 7.1759 272.964C8.46826 272.371 13.165 271.121 13.8195 269.92C13.0754 271.299 12.45 272.739 11.9603 274.229C11.7672 274.812 11.6045 275.514 11.9675 276.009C12.3545 276.558 13.1456 276.561 13.8137 276.511C18.6777 276.123 23.546 275.748 28.4064 275.368C26.7764 276.95 25.4357 278.834 24.4652 280.901C27.0504 279.715 29.9337 279.195 32.7612 279.401C33.1287 279.428 33.5162 279.477 33.8503 279.61C29.1859 281.673 25.1594 284.844 23.037 289.476C29.0818 289.775 34.4259 295.312 34.6002 301.466C34.6841 304.409 33.0403 307.892 30.1455 307.998Z" fill="#FFDCA2" fill-opacity="1.000000" fill-rule="nonzero"/>
	<path id="Vector" d="M272.105 195.589C278.039 202.801 281.345 211.875 283.652 220.985C285.954 230.088 287.37 239.433 290.101 248.41C292.613 256.698 296.213 264.578 300.111 272.298C301.06 274.197 302.022 276.068 302.996 277.941C305.166 274.58 309.248 272.606 313.178 273.003C317.114 273.406 320.734 276.165 322.203 279.895C322.391 280.358 322.542 280.873 322.401 281.36C322.281 281.765 321.97 282.079 321.666 282.373C315.975 287.96 310.273 293.546 304.583 299.132C303.899 299.798 303.17 300.497 302.253 300.758C301.159 301.057 299.997 300.668 298.936 300.267C292.529 297.801 286.541 294.232 281.269 289.771C278.658 287.566 276.226 285.144 274.008 282.53C273.038 283.575 272.068 284.619 271.092 285.67C270.419 282.315 269.17 279.079 267.433 276.145C265.833 278.698 263.666 280.864 261.134 282.449C260.432 278.021 259.827 270.316 255.193 268.479C249.909 266.389 244.465 265.101 239.328 262.505C229.634 257.582 221.187 249.734 216.562 239.763C211.938 229.805 211.446 217.694 216.294 207.833C218.74 202.848 222.424 198.585 226.459 194.813C232.491 189.176 239.823 184.353 247.995 183.829C257.224 183.239 266.172 188.377 272.105 195.589Z" fill="#FF7D00" fill-opacity="1.000000" fill-rule="nonzero"/>
	<path id="Vector" d="M322.203 279.896C322.391 280.359 322.542 280.873 322.401 281.361C322.281 281.765 321.97 282.079 321.666 282.374C315.975 287.96 310.273 293.546 304.583 299.133C303.899 299.799 303.17 300.497 302.253 300.758C301.159 301.057 299.997 300.668 298.936 300.267C292.528 297.801 286.541 294.232 281.269 289.771C281.092 287.465 281.688 284.286 281.01 282.601C282.511 286.3 287.289 288.182 290.839 286.477C295.199 284.388 296.416 278.468 295.36 273.692C295.901 274.58 296.436 275.461 296.984 276.344C298.478 275.474 299.278 273.87 300.11 272.298C301.06 274.196 302.021 276.068 302.995 277.94C305.166 274.58 309.247 272.606 313.177 273.002C317.114 273.406 320.734 276.166 322.203 279.896Z" fill="#FFDCA2" fill-opacity="1.000000" fill-rule="nonzero"/>
	<path id="Vector" d="M267.355 67.4998C266.908 68.4357 265.979 69.1531 264.978 69.0083C263.727 68.8179 262.994 67.4277 262.842 66.1552C261.823 66.2736 261.162 67.2822 260.644 68.1901C258.883 71.3063 257.113 74.4226 255.352 77.5483C254.798 75.7128 254.37 73.8506 254.057 71.9606C252.385 75.3496 250.884 78.829 249.587 82.3818C248.845 84.408 248.023 89.7686 244.797 88.6968C244.324 88.5424 243.868 88.2335 243.421 87.8336C244.1 87.6793 245.003 87.988 245.691 87.3705C246.442 86.6802 246.799 85.6532 247.121 84.6719C248.783 79.62 250.454 74.5593 252.126 69.5082C252.761 67.5734 253.457 65.5465 254.959 64.2019C256.21 65.6832 255.647 68.418 257.309 69.4082C259.025 66.655 261.125 64.1387 263.53 61.976C263.727 63.1661 263.932 64.3475 264.129 65.5282C264.236 66.1641 264.361 66.8271 264.763 67.3182C265.38 68.0901 266.595 68.0813 267.355 67.4998Z" fill="#E0BB86" fill-opacity="1.000000" fill-rule="nonzero"/>
	<path id="Vector" d="M316.056 185.366C316.037 194.006 315.672 202.702 315.162 211.133C314.626 220.082 310.827 228.568 305.456 235.718C305.456 235.727 305.456 235.727 305.447 235.727C304.964 236.381 304.455 237.026 303.946 237.653C303.937 237.671 303.919 237.68 303.91 237.698C305.813 234.509 307.476 231.166 308.888 227.723C307.914 228.195 306.94 228.659 305.966 229.131C309.899 219.028 311.034 207.807 309.21 197.095C308.191 197.504 307.217 198.058 306.332 198.731C307.958 191.19 309.594 183.367 307.95 175.835C306.806 170.593 304.142 165.851 301.506 161.199C300.603 159.6 299.7 157.991 298.797 156.392C303.811 160.181 308.7 164.152 313.446 168.285C314.277 169.012 315.037 169.776 315.725 170.566C315.725 170.647 315.734 170.739 315.734 170.82C315.984 175.609 316.082 180.478 316.056 185.366Z" fill="#E0BB86" fill-opacity="1.000000" fill-rule="nonzero"/>
	<path id="Vector" d="M337.001 214.805C337.878 216.404 339.684 217.631 341.439 217.221C341.609 217.181 341.805 217.094 341.828 216.918C341.854 216.713 341.631 216.578 341.446 216.492C340.433 216.021 339.553 215.273 338.896 214.361C338.093 213.249 338.131 212.059 337.583 210.899C337.196 210.078 336.468 209.688 335.999 210.843C335.606 211.809 336.537 213.958 337.001 214.805Z" fill="#FFFFFF" fill-opacity="1.000000" fill-rule="nonzero"/>
</svg>
