<svg width="622.045898" height="446.026794" viewBox="0 0 622.046 446.027" fill="none" xmlns="http://www.w3.org/2000/svg" xmlns:xlink="http://www.w3.org/1999/xlink">
	<desc>
			Created with Pixso.
	</desc>
	<defs/>
	<path id="Vector" d="M482.202 288.043C468.487 286.11 471.961 279.303 471.961 279.303C471.961 279.303 467.61 280.149 460.932 280.654C448.293 281.599 427.319 281.284 411.62 271.612C387.611 256.808 478.94 233.062 478.94 233.062C478.94 233.062 485.358 238.136 490.263 243.238C490.263 243.238 490.912 243.083 491.992 242.998C495.505 242.692 503.595 243.014 509 251.127C516.073 261.735 495.899 289.972 482.202 288.043Z" fill="#B25109" fill-opacity="1.000000" fill-rule="nonzero"/>
	<path id="Vector" d="M487.007 179.442C482.067 178.524 477.337 176.222 472.867 173.841C458.843 166.37 445.78 157.541 434.248 147.725C430.711 144.708 427.268 141.557 424.896 138.056C421.623 133.24 420.565 127.74 422.126 123.286C423.863 118.332 428.457 118.324 435.191 119.598C437.838 120.101 440.487 120.674 443.126 121.313C454.445 124.051 465.692 128.032 476.303 132.904C483.737 136.322 490.91 140.223 497.663 144.555C501.178 146.803 504.662 149.239 507.054 152.172C509.451 155.112 510.605 158.676 509.094 161.253C508.433 162.383 507.269 163.312 507.104 164.619C506.776 167.062 509.927 169.735 510.116 172.277C510.293 174.627 507.409 176.282 504.292 175.622C503.262 175.405 502.159 174.97 501.229 175.141C500.258 175.324 499.854 176.09 499.382 176.725C499.133 177.06 498.849 177.362 498.521 177.633C495.996 179.772 491.391 180.265 487.007 179.442Z" fill="#FF7D00" fill-opacity="1.000000" fill-rule="nonzero"/>
	<path id="Vector" d="M485.398 179.561C480.57 178.658 475.947 176.392 471.578 174.049C457.871 166.695 445.103 158.005 433.83 148.342C430.373 145.372 427.007 142.27 424.688 138.824C421.488 134.083 420.452 128.668 421.977 124.282C423.672 119.404 428.161 119.396 434.742 120.649C437.329 121.144 439.918 121.708 442.497 122.336C451.482 126.325 460.015 131.191 467.762 136.757C469.883 138.282 472.011 139.936 473.146 141.899C473.927 143.262 474.173 144.676 474.7 146.074C475.663 148.607 477.549 151.03 479.41 153.408C483.249 158.302 487.085 163.206 490.924 168.1C493.35 171.197 495.865 174.556 496.646 177.777C494.181 179.884 489.682 180.37 485.398 179.561Z" fill="#B25109" fill-opacity="1.000000" fill-rule="nonzero"/>
	<path id="Vector" d="M311.247 387.427C308.788 393.666 305.43 400.42 297.141 402.09C293.087 402.906 288.34 402.343 283.795 401.196C271.641 398.13 260.196 390.719 253.855 381.811C252.697 380.184 251.682 378.462 251.51 376.779C251.23 374.039 253.2 371.885 255.281 370.055C258.363 367.342 261.844 364.914 265.585 362.727C269.895 360.207 274.575 357.989 278.259 354.962C282.97 351.091 285.866 346.054 289.375 341.416C292.882 336.779 297.272 332.361 303.95 330.412C307.518 329.371 312.055 329.164 315.994 331.04C321.898 333.851 323.64 339.722 323.767 344.458C324.169 359.584 316.531 374.019 311.247 387.427Z" fill="#B25109" fill-opacity="1.000000" fill-rule="nonzero"/>
	<path id="Vector" d="M347.662 319.349C308.257 302.569 207.958 209.047 207.958 209.047C207.958 209.047 212.204 208.348 218.169 206.416C218.375 206.353 218.585 206.277 218.794 206.201C226.227 203.72 236.104 199.352 243.719 192.092C248.785 187.266 252.86 181.16 254.572 173.481C257.973 158.226 269.629 137.882 286.983 122.457C302.586 108.592 322.805 98.7136 345.723 100.1C345.723 100.1 415.794 98.0793 469.667 165.938C523.544 233.785 472.893 272.905 456.57 276.777C445.367 279.428 411.315 288.65 386.823 301.008C375.623 306.662 366.414 312.971 362.315 319.612C360.259 322.939 355.015 322.482 347.662 319.349Z" fill="#FF7D00" fill-opacity="1.000000" fill-rule="nonzero"/>
	<path id="Vector" d="M339.927 319.033C333.696 314.982 327.93 310.345 322.654 305.568C311.209 295.167 301.539 283.808 290.005 273.455C271.014 256.428 247.491 242.613 227.654 226.128C221.745 221.222 215.97 215.789 213.759 209.798C213.563 209.264 213.391 208.745 213.254 208.237C213.456 208.175 213.662 208.101 213.866 208.026C214.32 208.523 214.808 208.999 215.349 209.481C217.545 211.428 220.577 213.15 223.512 213.173C226.481 213.208 228.469 211.547 230.18 209.982C235.607 205.016 240.892 199.962 246.064 194.825C273.674 197.844 310.133 208.89 321.391 212.471C335.236 216.862 349.451 222.262 360.167 231.02C371.539 240.31 377.622 252.409 379.714 263.804C381.801 275.191 380.31 286.105 378.799 296.895C378.604 298.273 378.414 299.659 378.229 301.034C367.274 306.583 358.267 312.773 354.259 319.289C352.249 322.554 347.12 322.106 339.927 319.033Z" fill="#B25109" fill-opacity="1.000000" fill-rule="nonzero"/>
	<path id="Vector" d="M328.8 369.918C328.8 369.918 322.86 370.007 315.032 369.944C310.369 369.889 305.037 369.792 299.891 369.593C292.806 369.311 286.073 368.835 281.899 368.012C269.582 365.602 246.046 364.086 246.046 364.086C246.046 364.086 179.161 322.946 167.789 295.296C160.869 278.494 163.194 254.821 166.098 238.83C166.946 234.081 167.855 230.016 168.59 227C169.448 223.459 170.059 221.378 170.059 221.378C170.059 221.378 253.233 234.67 265.688 236.476C278.143 238.282 318.917 271.24 318.917 271.24L346.164 322.338L328.8 369.918Z" fill="#FF7D00" fill-opacity="1.000000" fill-rule="nonzero"/>
	<path id="Vector" d="M226.335 231.715C224.868 231.998 223.379 232.254 221.901 232.506C203.12 235.628 183.847 237.998 164.213 239.565C156.253 240.213 148.244 240.728 140.169 241.103C127.482 241.706 113.399 241.736 101.723 236.397C88.5876 230.4 82.6221 218.749 85.8621 209.804C86.8254 207.16 88.4497 204.745 90.6013 202.592C94.3621 198.783 99.7473 195.73 105.942 193.5C106.265 193.389 106.592 193.265 106.921 193.162C108.667 192.553 110.497 192.02 112.366 191.555C112.585 191.498 112.745 191.449 112.848 191.429C125.673 188.288 140.343 187.94 154.891 188.144C164.344 188.269 177.259 189.609 190.896 190.621C212.842 192.239 236.647 193.017 250.855 186.554C259.339 182.701 259.177 192.739 254.992 204.058C254.779 204.627 254.568 205.196 254.333 205.772C251.004 214.08 245.67 222.725 240.101 226.853C239.272 227.477 238.445 227.996 237.603 228.394C234.312 229.963 230.387 230.939 226.335 231.715Z" fill="#FF7D00" fill-opacity="1.000000" fill-rule="nonzero"/>
	<path id="Vector" d="M226.135 231.419C224.678 231.7 223.198 231.953 221.73 232.203C203.073 235.292 191.425 237 171.921 238.55C169.871 237.144 148.316 221.567 146.359 218.876C135.562 204.025 128.454 212.612 122.054 209.3C108.92 202.494 98.7969 201.837 91.304 202.577C95.0405 198.806 100.39 195.784 106.544 193.577C106.865 193.467 107.19 193.344 107.517 193.243C110.058 192.481 112.003 191.914 112.926 191.652C113.144 191.596 113.302 191.547 113.406 191.527C126.146 188.419 140.718 188.075 155.171 188.278C164.562 188.402 177.39 189.73 190.938 190.733C192.279 191.089 193.625 191.467 194.965 191.856C211.087 196.482 237.589 202.184 253.925 203.901C254.167 203.927 254.385 203.974 254.606 204.041C257.237 204.837 258.303 208.484 258.976 210.654C260.623 215.99 252.104 220.614 247.79 222.921C245.25 224.283 242.58 225.493 239.812 226.608C235.422 228.404 230.798 229.946 226.135 231.419Z" fill="#B25109" fill-opacity="1.000000" fill-rule="nonzero"/>
	<path id="Vector" d="M352.128 400.19C346.342 400.265 340.717 396.041 336.606 392.029C315.582 371.527 306.193 345.322 312.226 323.987C313.797 318.442 316.335 313.193 316.909 307.362C317.327 303.049 316.596 298.475 314.843 293.953C312.556 288 308.511 282.126 303.035 277.037C299.014 273.305 294.353 270.049 289.322 267.206C283.208 263.753 276.537 260.92 269.833 258.607C257.595 254.397 245.019 251.739 232.551 248.674C214.252 244.176 195.614 238.57 179.528 228.956C163.451 219.338 150.233 204.99 148.889 191.005C148.818 190.282 148.786 189.515 149.284 188.997C150.189 188.067 152.258 188.382 153.973 188.763C187.144 196.068 220.368 202.557 253.567 208.225C267.045 210.528 280.701 212.744 293.847 217.428C300.733 219.886 307.389 223.086 313.644 226.836C330.12 236.692 344.006 250.375 352.836 264.47C355.471 268.675 357.646 272.917 359.322 277.111C369.136 301.737 358.907 324.44 357.599 348.149C356.938 360.085 358.577 372.446 360.405 384.768C360.896 388.139 361.41 391.588 360.365 394.605C359.326 397.612 356.381 400.135 352.128 400.19Z" fill="#FF7D00" fill-opacity="1.000000" fill-rule="nonzero"/>
	<path id="Vector" d="M193.208 277.056C191.142 281.363 191.535 286.924 195.499 291.603C201.109 298.225 211.677 301.169 221.053 303.284C222.766 303.67 224.533 304.056 226.146 303.918C231.05 303.5 231.896 298.906 234.372 295.95C237.083 292.711 242.534 290.866 242.99 286.721C243.316 283.746 240.9 280.524 238.586 277.588C234.173 271.989 225.214 260.443 215.611 261.653C210.88 262.249 206.629 265.364 203.198 267.428C198.969 269.973 195.143 273.02 193.208 277.056Z" fill="#EA6A00" fill-opacity="1.000000" fill-rule="nonzero"/>
	<path id="Vector" d="M259.762 324.864C258.146 325.944 256.013 326.652 254.983 328.12C254.415 328.929 254.228 329.909 254.054 330.875C253.301 335.023 252.75 339.645 256.026 343.816C258.776 347.319 263.614 349.685 268.226 351.725C271.259 353.066 274.579 354.408 277.621 354.2C280.404 354.01 282.373 352.554 284.06 351.076C285.682 349.654 287.194 348.153 288.589 346.583C289.762 345.262 290.869 343.861 291.257 342.191C291.752 340.061 291.045 337.664 290.142 335.35C287.997 329.863 283.325 318.688 275.095 315.917C266.658 313.077 263.823 322.151 259.762 324.864Z" fill="#EA6A00" fill-opacity="1.000000" fill-rule="nonzero"/>
	<path id="Vector" d="M222.246 375.56C214.797 377.768 206.432 379.424 197.586 377.539C190.563 376.043 183.991 372.484 177.952 368.716C167.846 362.403 157.881 354.337 155.625 345.329C153.619 337.284 158.22 330.479 160.644 323.317C162.47 317.924 163.063 312.074 162.409 306.077C161.821 300.682 159.356 291.897 168.507 293.19C176.225 294.279 186.968 300.317 194.907 302.674C197.043 303.304 199.176 303.912 201.313 304.44C206.604 305.804 211.919 306.821 217.149 307.129C225.035 307.601 232.267 306.443 238.76 304.213C247.066 301.366 254.177 296.761 259.946 291.541C264.574 287.341 275.509 278.491 286.257 267.12C297.84 254.857 309.23 239.668 312.285 224.224C329.904 234.7 344.752 249.243 354.192 264.222C343.03 276.559 327.827 287.168 313.546 295.547C298.349 304.468 284.199 310.862 277.068 314.138C272.092 316.409 267.438 319.203 263.494 322.468C255.482 329.059 250.34 337.568 251.238 347.618C251.582 351.425 252.736 355.526 251.998 359.011C251.988 359.014 251.995 359.023 251.984 359.026C251.789 359.969 251.449 360.876 250.91 361.711C249.552 363.816 247.081 365.246 244.596 366.556C237.705 370.166 230.223 373.188 222.246 375.56Z" fill="#FFDCA2" fill-opacity="1.000000" fill-rule="nonzero"/>
	<path id="Vector" d="M212.244 364.797C213.21 365.923 214.161 367.086 214.627 368.31C215.645 370.985 214.082 373.472 211.51 374.757C208.938 376.042 205.528 376.321 202.143 376.325C195.028 376.335 187.435 375.197 180.414 372.334C173.394 369.471 167.011 364.76 163.811 359.256C160.393 353.375 160.85 347.326 161.383 341.599C161.594 339.324 161.842 336.965 163.399 335.244C168.939 329.121 182.514 339.626 188.38 343.645C197.491 349.889 205.603 357.059 212.244 364.797Z" fill="#201600" fill-opacity="1.000000" fill-rule="nonzero"/>
	<path id="Vector" d="M173.182 338.025C175.571 338.013 177.972 339.47 180.06 340.828C187.502 345.669 194.994 350.548 201.429 356.184C202 356.684 202.583 357.218 202.818 357.815C203.052 358.412 202.802 359.079 202.083 359.168C201.385 359.255 200.612 358.803 199.972 358.386C196.945 356.412 193.917 354.439 190.889 352.464C188.361 350.816 185.017 349.021 182.602 349.887C181.784 350.18 181.235 350.75 180.446 351.074C172.197 354.469 162.339 338.08 173.182 338.025Z" fill="#48443E" fill-opacity="1.000000" fill-rule="nonzero"/>
	<path id="Vector" d="M194.586 351.584C196.772 353.205 198.915 354.949 200.284 356.968C200.476 357.252 200.658 357.564 200.602 357.837C200.516 358.257 199.876 358.414 199.289 358.296C198.702 358.178 198.161 357.859 197.649 357.549C194.158 355.435 190.752 353.225 187.44 350.927C185.88 349.844 177.945 344.611 182.791 344.615C186.131 344.618 192.091 349.735 194.586 351.584Z" fill="#FFFFFF" fill-opacity="1.000000" fill-rule="nonzero"/>
	<path id="Vector" d="M218.719 265.909C217.877 262.969 218.209 259.336 221.784 258.994C224.638 258.72 227.643 260.778 230.029 262.636C236 267.286 241.986 271.949 247.377 276.978C248.544 278.066 249.716 279.217 250.239 280.485C251.522 283.594 248.13 286.098 244.179 286.026C231.938 285.801 221.068 274.109 218.719 265.909Z" fill="#FFDCA2" fill-opacity="1.000000" fill-rule="nonzero"/>
	<path id="Vector" d="M207.795 289.906C203.412 284.11 203.647 276.845 203.662 276.48C203.712 275.256 205.132 274.467 206.832 274.716C208.532 274.966 209.869 276.159 209.821 277.384C209.729 279.804 210.498 286.832 215.083 290.303C216.994 291.751 219.432 292.467 222.534 292.491C224.213 292.505 225.797 293.528 226.069 294.777C226.342 296.026 225.202 297.027 223.524 297.014C218.559 296.975 214.35 295.671 211.015 293.139C209.732 292.165 208.671 291.064 207.795 289.906Z" fill="#201600" fill-opacity="1.000000" fill-rule="nonzero"/>
	<path id="Vector" d="M263.709 338.347C259.181 333.428 258.438 326.817 258.404 326.484C258.288 325.37 259.408 324.544 260.905 324.638C262.403 324.732 263.709 325.711 263.826 326.826C264.062 329.029 265.637 335.348 270.037 338.14C271.872 339.306 274.063 339.766 276.74 339.547C278.188 339.429 279.686 340.234 280.081 341.346C280.479 342.458 279.628 343.455 278.179 343.574C273.898 343.924 270.104 343.068 266.902 341.029C265.671 340.246 264.614 339.33 263.709 338.347Z" fill="#201600" fill-opacity="1.000000" fill-rule="nonzero"/>
	<path id="Vector" d="M264.112 259.299C262.31 259.455 205.777 264.17 169.557 241.798C170.427 236.942 171.36 232.785 172.114 229.701C172.114 229.701 223.191 257.723 264.112 259.299Z" fill="#B25109" fill-opacity="1.000000" fill-rule="nonzero"/>
	<path id="Vector" d="M311.004 366.184C306.317 366.128 300.958 366.031 295.785 365.831C293.02 344.534 301.417 327.813 306.179 320.321C299.807 334.714 311.008 366.171 311.008 366.171C311.008 366.171 311.008 366.172 311.004 366.184Z" fill="#B25109" fill-opacity="1.000000" fill-rule="nonzero"/>
	<path id="Vector" d="M297.377 335.54C298.438 338.074 298.981 341.144 296.521 342.322C294.893 343.102 292.397 342.707 290.373 341.739C288.348 340.771 286.705 339.321 285.196 337.866C281.031 333.851 277.467 329.512 274.637 325.012C273.345 322.956 272.182 320.791 272.142 318.723C272.03 312.996 279.141 314.1 283.813 317.411C290.152 321.903 294.961 329.766 297.377 335.54Z" fill="#FFDCA2" fill-opacity="1.000000" fill-rule="nonzero"/>
	<path id="Vector" d="M305.724 136.155C305.724 136.155 304.889 132.363 303.974 126.501C301.889 113.041 299.418 88.6753 305.882 74.3282C306.182 73.6742 306.494 73.0378 306.827 72.4283C307.031 72.0412 307.238 71.6753 307.442 71.3214C301.433 69.1788 278.267 60.0818 276.288 46.3522C274.01 30.5764 321.845 53.0144 331.693 55.0424C341.538 57.0819 348.684 70.9358 348.911 77.6252C348.948 78.6071 349.703 79.9075 350.991 81.4651C356.407 87.9801 371.105 98.8563 380.36 108.313C383.986 112.023 386.773 115.514 387.831 118.439C392.226 130.613 305.724 136.155 305.724 136.155Z" fill="#FF7D00" fill-opacity="1.000000" fill-rule="nonzero"/>
	<path id="Vector" d="M354.388 81.8846C352.02 81.4878 349.526 80.6311 347.152 79.9645C340.563 78.1378 333.741 77.7917 327.85 78.9781C328.382 76.7562 328.915 74.5342 329.447 72.3116C321.233 71.6681 315.086 72.8793 309.097 74.7243C309.397 74.0682 309.711 73.4298 310.045 72.8185C310.25 72.4301 310.458 72.0631 310.663 71.7081C304.629 69.5587 281.369 60.4329 279.384 46.6606C277.096 30.8356 325.125 53.3445 335.014 55.3791C344.898 57.4251 352.073 71.3222 352.3 78.0324C352.337 79.0174 353.095 80.3221 354.388 81.8846Z" fill="#FFDCA2" fill-opacity="1.000000" fill-rule="nonzero"/>
	<path id="Vector" d="M482.51 286.499C468.91 284.584 472.355 277.849 472.355 277.849C472.355 277.849 468.041 278.685 461.417 279.185C462.087 278.221 462.92 277.318 463.751 276.449C467.938 272.05 472.135 267.648 476.313 263.24C476.997 264.591 477.674 265.932 478.35 267.274C477.458 265.497 485.296 256.931 486.41 254.893C488.691 250.702 490.586 246.362 492.225 241.921C495.708 241.619 503.731 241.939 509.09 249.967C516.103 260.465 496.094 288.407 482.51 286.499Z" fill="#E0BB86" fill-opacity="1.000000" fill-rule="nonzero"/>
	<path id="Vector" d="M134.711 243.898C134.203 247.672 132.062 251.33 127.89 253.463C123.107 255.908 116.28 256.039 110.023 254.874C101.716 253.327 93.8933 249.599 88.5271 244.63C84.3867 240.796 81.7488 236.349 79.6167 231.903C76.2942 224.974 83.4771 212.122 88.9067 206.686C98.5186 197.063 109.503 207.245 120.923 214.832C131.849 222.093 135.993 234.37 134.711 243.898Z" fill="#FF7D00" fill-opacity="1.000000" fill-rule="nonzero"/>
	<path id="Vector" d="M247.978 357.308C243.951 349.983 244.961 342.276 240.541 335.018C238.175 331.142 234.422 327.664 230.728 324.264C227.5 321.298 224.252 318.307 220.508 315.716C216.051 312.626 211.01 310.179 206.009 307.752C204.174 306.862 202.346 305.982 200.521 305.089C205.522 306.381 210.544 307.344 215.488 307.636C222.941 308.083 229.775 306.985 235.912 304.872C237.2 305.609 238.408 306.403 239.408 307.005C246.783 311.387 253.512 316.526 259.29 322.164C251.719 328.408 246.86 336.469 247.71 345.99C248.035 349.597 249.126 353.482 248.429 356.783C248.419 356.786 248.426 356.794 248.415 356.798C248.275 356.969 248.135 357.142 247.978 357.308Z" fill="#E0BB86" fill-opacity="1.000000" fill-rule="nonzero"/>
</svg>
