<svg width="473.515137" height="443.789124" viewBox="0 0 473.515 443.789" fill="none" xmlns="http://www.w3.org/2000/svg" xmlns:xlink="http://www.w3.org/1999/xlink">
	<desc>
			Created with Pixso.
	</desc>
	<defs/>
	<path id="Vector" d="M149.5 211.171L149.251 218.913L148.319 218.617C146.733 218.111 145.45 217.552 144.47 216.938C143.49 216.324 142.602 215.591 141.803 214.74C141.004 213.889 139.607 212.103 137.613 209.382C136.569 207.937 135.598 207.072 134.698 206.786C133.799 206.5 133.093 206.498 132.58 206.78C132.067 207.062 131.796 207.652 131.767 208.548C131.735 209.512 132.094 210.433 132.843 211.309C133.592 212.186 134.919 213.017 136.826 213.803L135.395 221.333C131.904 219.947 129.121 217.993 127.046 215.473C124.971 212.952 123.995 209.791 124.117 205.988C124.212 203.027 125.034 200.873 126.581 199.528C128.672 197.697 131.394 197.315 134.746 198.383C136.136 198.826 137.467 199.572 138.739 200.622C140.01 201.672 141.546 203.479 143.348 206.043C144.612 207.831 145.635 209.032 146.416 209.644C147.196 210.255 148.224 210.765 149.5 211.171ZM151.72 219.967L151.986 211.675L160.793 214.481L160.526 222.773L151.72 219.967Z" fill="#F05E25" fill-opacity="1.000000" fill-rule="nonzero"/>
	<path id="Vector" d="M214.376 175.983L207.152 174.042L207.128 173.42C207.085 172.362 207.19 171.539 207.441 170.953C207.694 170.368 208.084 169.876 208.614 169.478C209.143 169.08 210.343 168.452 212.214 167.593C213.211 167.149 213.698 166.626 213.674 166.026C213.649 165.425 213.425 164.904 212.999 164.46C212.573 164.016 211.942 163.682 211.106 163.457C210.206 163.215 209.472 163.272 208.903 163.627C208.334 163.981 207.993 164.776 207.88 166.008L200.472 163.241C200.632 160.972 201.541 159.356 203.201 158.393C204.86 157.429 207.465 157.425 211.013 158.378C213.776 159.12 216.026 160.216 217.765 161.665C220.125 163.628 221.351 165.728 221.442 167.967C221.479 168.895 221.217 169.71 220.656 170.412C220.096 171.115 218.921 171.841 217.134 172.592C215.89 173.122 215.11 173.606 214.795 174.045C214.481 174.486 214.341 175.132 214.376 175.983ZM206.971 175.63L214.709 177.709L214.946 183.588L207.208 181.51L206.971 175.63Z" fill="#F05E25" fill-opacity="1.000000" fill-rule="nonzero"/>
	<path id="Vector" d="M231.384 188.185L226.918 183.522L227.319 183.268C228.002 182.836 228.642 182.575 229.241 182.486C229.839 182.396 230.485 182.418 231.179 182.551C231.872 182.684 233.257 183.092 235.336 183.774C236.436 184.143 237.179 184.205 237.566 183.96C237.953 183.715 238.126 183.391 238.087 182.989C238.047 182.587 237.769 182.117 237.251 181.577C236.694 180.996 236.068 180.621 235.374 180.449C234.678 180.279 233.868 180.4 232.942 180.815L228.889 175.733C230.552 174.944 232.374 174.812 234.355 175.339C236.335 175.866 238.423 177.275 240.617 179.566C242.325 181.349 243.384 182.992 243.793 184.493C244.353 186.53 243.911 188.006 242.468 188.919C241.869 189.297 241.107 189.47 240.183 189.438C239.259 189.405 237.827 189.05 235.888 188.372C234.533 187.902 233.581 187.666 233.032 187.666C232.482 187.663 231.933 187.837 231.384 188.185ZM225.698 184.037L230.481 189.031L226.689 191.429L221.905 186.435L225.698 184.037Z" fill="#F05E25" fill-opacity="1.000000" fill-rule="nonzero"/>
	<path id="Vector" d="M361.567 327.216L349.792 344.147C347.448 347.518 343.54 348.569 341.243 346.446L266.085 276.995L279.447 257.783L361.289 317.893C363.739 319.696 363.865 323.911 361.567 327.216Z" fill="#7E7F82" fill-opacity="1.000000" fill-rule="nonzero"/>
	<g opacity="0.400000">
		<path id="Vector" d="M361.567 327.216L349.792 344.147C347.448 347.518 343.54 348.569 341.243 346.446L266.085 276.995L279.447 257.783L361.289 317.893C363.739 319.696 363.865 323.911 361.567 327.216Z" fill="#000000" fill-opacity="1.000000" fill-rule="nonzero"/>
	</g>
	<path id="Vector" d="M273.387 190.472C273.373 190.129 273.361 189.784 273.342 189.442C273.273 188.217 273.185 186.998 273.068 185.787C273.052 185.622 273.03 185.461 273.012 185.296C272.906 184.244 272.778 183.197 272.635 182.156C272.584 181.785 272.527 181.417 272.473 181.05C272.339 180.164 272.192 179.284 272.033 178.406C271.972 178.072 271.915 177.734 271.849 177.401C271.622 176.228 271.374 175.061 271.098 173.908C271.066 173.774 271.028 173.641 270.996 173.507C270.746 172.484 270.476 171.47 270.186 170.464C270.086 170.116 269.982 169.771 269.877 169.426C269.626 168.589 269.361 167.761 269.083 166.938C268.975 166.62 268.873 166.3 268.762 165.984C268.375 164.882 267.97 163.791 267.535 162.715C267.493 162.611 267.446 162.509 267.403 162.406C267.004 161.433 266.583 160.472 266.147 159.52C265.999 159.2 265.847 158.886 265.697 158.569C265.329 157.798 264.948 157.035 264.554 156.281C264.4 155.985 264.249 155.689 264.089 155.396C263.544 154.387 262.982 153.389 262.389 152.411C262.349 152.344 262.306 152.281 262.265 152.215C261.709 151.303 261.129 150.409 260.531 149.527C260.339 149.242 260.14 148.962 259.943 148.68C259.458 147.989 258.963 147.308 258.454 146.637C258.253 146.371 258.052 146.102 257.847 145.839C257.146 144.942 256.426 144.058 255.678 143.2C255.648 143.168 255.619 143.137 255.591 143.105C254.868 142.28 254.118 141.478 253.353 140.691C253.113 140.444 252.868 140.204 252.624 139.96C252.028 139.366 251.42 138.786 250.799 138.214C250.546 137.982 250.297 137.749 250.04 137.522C249.181 136.76 248.308 136.012 247.403 135.292C215.276 109.774 166.023 122.421 137.427 163.521L128.107 176.917C156.704 135.817 205.956 123.17 238.083 148.688C238.988 149.408 239.862 150.155 240.72 150.918C240.977 151.145 241.226 151.38 241.478 151.61C242.099 152.181 242.707 152.762 243.303 153.356C243.547 153.599 243.792 153.839 244.031 154.086C244.797 154.874 245.547 155.676 246.27 156.501C246.298 156.533 246.327 156.563 246.357 156.595C247.105 157.454 247.823 158.338 248.526 159.235C248.733 159.498 248.932 159.766 249.135 160.033C249.642 160.702 250.137 161.381 250.62 162.07C250.818 162.354 251.02 162.636 251.214 162.923C251.811 163.803 252.389 164.697 252.946 165.607C252.987 165.674 253.031 165.737 253.072 165.803C253.665 166.781 254.226 167.779 254.772 168.789C254.93 169.082 255.08 169.379 255.236 169.674C255.63 170.428 256.011 171.191 256.38 171.962C256.531 172.279 256.683 172.594 256.83 172.913C257.266 173.864 257.687 174.825 258.086 175.799C258.128 175.902 258.175 176.004 258.218 176.107C258.652 177.183 259.056 178.273 259.444 179.375C259.555 179.693 259.659 180.015 259.768 180.334C260.044 181.155 260.309 181.983 260.559 182.819C260.663 183.164 260.767 183.51 260.867 183.857C261.155 184.864 261.425 185.876 261.677 186.899C261.709 187.034 261.747 187.166 261.78 187.3C262.056 188.454 262.303 189.619 262.531 190.793C262.596 191.126 262.654 191.462 262.714 191.799C262.875 192.675 263.021 193.556 263.156 194.441C263.211 194.81 263.268 195.178 263.318 195.548C263.461 196.589 263.587 197.636 263.695 198.689C263.712 198.853 263.735 199.015 263.75 199.181C263.867 200.392 263.954 201.612 264.024 202.837C264.043 203.178 264.055 203.523 264.07 203.867C264.111 204.782 264.139 205.702 264.154 206.625C264.16 207.011 264.167 207.398 264.168 207.784C264.172 208.836 264.16 209.891 264.13 210.949C264.124 211.146 264.125 211.345 264.118 211.544C264.074 212.79 264.003 214.041 263.912 215.294C263.886 215.643 263.853 215.992 263.825 216.342C263.747 217.28 263.657 218.219 263.552 219.16C263.507 219.557 263.463 219.954 263.413 220.352C263.283 221.405 263.135 222.46 262.972 223.516C262.938 223.737 262.91 223.956 262.875 224.176C262.67 225.439 262.438 226.704 262.185 227.969C262.117 228.311 262.04 228.652 261.968 228.996C261.769 229.947 261.556 230.9 261.328 231.852C261.232 232.25 261.135 232.65 261.035 233.047C260.775 234.085 260.497 235.122 260.203 236.159C260.135 236.398 260.074 236.639 260.004 236.877C259.891 237.265 259.761 237.65 259.643 238.037C259.293 239.189 258.932 240.342 258.542 241.489C258.355 242.038 258.152 242.586 257.956 243.132C257.607 244.107 257.25 245.081 256.872 246.052C256.641 246.643 256.401 247.232 256.16 247.82C255.778 248.752 255.383 249.681 254.973 250.608C254.712 251.198 254.449 251.787 254.176 252.374C253.74 253.316 253.283 254.253 252.817 255.189C252.521 255.785 252.231 256.382 251.923 256.976C251.695 257.415 251.458 257.849 251.224 258.285C250.784 259.106 250.332 259.923 249.868 260.739C249.614 261.186 249.356 261.634 249.094 262.081C248.599 262.921 248.088 263.757 247.569 264.589C247.328 264.976 247.093 265.365 246.846 265.749C246.076 266.953 245.285 268.15 244.461 269.332L253.781 255.936C254.605 254.752 255.394 253.557 256.166 252.353C256.413 251.969 256.647 251.58 256.888 251.195C257.407 250.363 257.918 249.527 258.413 248.687C258.675 248.24 258.932 247.793 259.188 247.344C259.65 246.531 260.102 245.715 260.543 244.893C260.777 244.457 261.014 244.021 261.242 243.582C261.352 243.369 261.471 243.159 261.58 242.947C261.775 242.565 261.945 242.178 262.134 241.796C262.601 240.86 263.057 239.924 263.493 238.982C263.765 238.394 264.028 237.805 264.288 237.217C264.698 236.29 265.094 235.36 265.476 234.428C265.717 233.839 265.957 233.252 266.187 232.661C266.567 231.69 266.923 230.714 267.272 229.738C267.469 229.191 267.671 228.646 267.856 228.098C268.247 226.949 268.608 225.796 268.958 224.643C269.055 224.322 269.169 224.003 269.265 223.682C269.284 223.617 269.3 223.55 269.319 223.484C269.388 223.246 269.45 223.005 269.518 222.766C269.812 221.729 270.089 220.693 270.35 219.653C270.45 219.255 270.546 218.859 270.64 218.461C270.868 217.508 271.081 216.556 271.281 215.603C271.354 215.261 271.43 214.92 271.499 214.576C271.751 213.311 271.983 212.046 272.186 210.783C272.222 210.563 272.25 210.344 272.283 210.123C272.447 209.067 272.594 208.014 272.725 206.96C272.774 206.562 272.818 206.166 272.862 205.769C272.967 204.826 273.058 203.885 273.136 202.946C273.165 202.599 273.199 202.25 273.224 201.903C273.315 200.648 273.388 199.398 273.43 198.151C273.437 197.952 273.437 197.755 273.443 197.556C273.473 196.498 273.487 195.443 273.481 194.391C273.481 194.003 273.473 193.619 273.467 193.232C273.459 192.307 273.429 191.388 273.387 190.472Z" fill="#7E7F82" fill-opacity="1.000000" fill-rule="nonzero"/>
	<g opacity="0.400000">
		<path id="Vector" d="M273.387 190.472C273.373 190.129 273.361 189.784 273.342 189.442C273.273 188.217 273.185 186.998 273.068 185.787C273.052 185.622 273.03 185.461 273.012 185.296C272.906 184.244 272.778 183.197 272.635 182.156C272.584 181.785 272.527 181.417 272.473 181.05C272.339 180.164 272.192 179.284 272.033 178.406C271.972 178.072 271.915 177.734 271.849 177.401C271.622 176.228 271.374 175.061 271.098 173.908C271.066 173.774 271.028 173.641 270.996 173.507C270.746 172.484 270.476 171.47 270.186 170.464C270.086 170.116 269.982 169.771 269.877 169.426C269.626 168.589 269.361 167.761 269.083 166.938C268.975 166.62 268.873 166.3 268.762 165.984C268.375 164.882 267.97 163.791 267.535 162.715C267.493 162.611 267.446 162.509 267.403 162.406C267.004 161.433 266.583 160.472 266.147 159.52C265.999 159.2 265.847 158.886 265.697 158.569C265.329 157.798 264.948 157.035 264.554 156.281C264.4 155.985 264.249 155.689 264.089 155.396C263.544 154.387 262.982 153.389 262.389 152.411C262.349 152.344 262.306 152.281 262.265 152.215C261.709 151.303 261.129 150.409 260.531 149.527C260.339 149.242 260.14 148.962 259.943 148.68C259.458 147.989 258.963 147.308 258.454 146.637C258.253 146.371 258.052 146.102 257.847 145.839C257.146 144.942 256.426 144.058 255.678 143.2C255.648 143.168 255.619 143.137 255.591 143.105C254.868 142.28 254.118 141.478 253.353 140.691C253.113 140.444 252.868 140.204 252.624 139.96C252.028 139.366 251.42 138.786 250.799 138.214C250.546 137.982 250.297 137.749 250.04 137.522C249.181 136.76 248.308 136.012 247.403 135.292C215.276 109.774 166.023 122.421 137.427 163.521L128.107 176.917C156.704 135.817 205.956 123.17 238.083 148.688C238.988 149.408 239.862 150.155 240.72 150.918C240.977 151.145 241.226 151.38 241.478 151.61C242.099 152.181 242.707 152.762 243.303 153.356C243.547 153.599 243.792 153.839 244.031 154.086C244.797 154.874 245.547 155.676 246.27 156.501C246.298 156.533 246.327 156.563 246.357 156.595C247.105 157.454 247.823 158.338 248.526 159.235C248.733 159.498 248.932 159.766 249.135 160.033C249.642 160.702 250.137 161.381 250.62 162.07C250.818 162.354 251.02 162.636 251.214 162.923C251.811 163.803 252.389 164.697 252.946 165.607C252.987 165.674 253.031 165.737 253.072 165.803C253.665 166.781 254.226 167.779 254.772 168.789C254.93 169.082 255.08 169.379 255.236 169.674C255.63 170.428 256.011 171.191 256.38 171.962C256.531 172.279 256.683 172.594 256.83 172.913C257.266 173.864 257.687 174.825 258.086 175.799C258.128 175.902 258.175 176.004 258.218 176.107C258.652 177.183 259.056 178.273 259.444 179.375C259.555 179.693 259.659 180.015 259.768 180.334C260.044 181.155 260.309 181.983 260.559 182.819C260.663 183.164 260.767 183.51 260.867 183.857C261.155 184.864 261.425 185.876 261.677 186.899C261.709 187.034 261.747 187.166 261.78 187.3C262.056 188.454 262.303 189.619 262.531 190.793C262.596 191.126 262.654 191.462 262.714 191.799C262.875 192.675 263.021 193.556 263.156 194.441C263.211 194.81 263.268 195.178 263.318 195.548C263.461 196.589 263.587 197.636 263.695 198.689C263.712 198.853 263.735 199.015 263.75 199.181C263.867 200.392 263.954 201.612 264.024 202.837C264.043 203.178 264.055 203.523 264.07 203.867C264.111 204.782 264.139 205.702 264.154 206.625C264.16 207.011 264.167 207.398 264.168 207.784C264.172 208.836 264.16 209.891 264.13 210.949C264.124 211.146 264.125 211.345 264.118 211.544C264.074 212.79 264.003 214.041 263.912 215.294C263.886 215.643 263.853 215.992 263.825 216.342C263.747 217.28 263.657 218.219 263.552 219.16C263.507 219.557 263.463 219.954 263.413 220.352C263.283 221.405 263.135 222.46 262.972 223.516C262.938 223.737 262.91 223.956 262.875 224.176C262.67 225.439 262.438 226.704 262.185 227.969C262.117 228.311 262.04 228.652 261.968 228.996C261.769 229.947 261.556 230.9 261.328 231.852C261.232 232.25 261.135 232.65 261.035 233.047C260.775 234.085 260.497 235.122 260.203 236.159C260.135 236.398 260.074 236.639 260.004 236.877C259.891 237.265 259.761 237.65 259.643 238.037C259.293 239.189 258.932 240.342 258.542 241.489C258.355 242.038 258.152 242.586 257.956 243.132C257.607 244.107 257.25 245.081 256.872 246.052C256.641 246.643 256.401 247.232 256.16 247.82C255.778 248.752 255.383 249.681 254.973 250.608C254.712 251.198 254.449 251.787 254.176 252.374C253.74 253.316 253.283 254.253 252.817 255.189C252.521 255.785 252.231 256.382 251.923 256.976C251.695 257.415 251.458 257.849 251.224 258.285C250.784 259.106 250.332 259.923 249.868 260.739C249.614 261.186 249.356 261.634 249.094 262.081C248.599 262.921 248.088 263.757 247.569 264.589C247.328 264.976 247.093 265.365 246.846 265.749C246.076 266.953 245.285 268.15 244.461 269.332L253.781 255.936C254.605 254.752 255.394 253.557 256.166 252.353C256.413 251.969 256.647 251.58 256.888 251.195C257.407 250.363 257.918 249.527 258.413 248.687C258.675 248.24 258.932 247.793 259.188 247.344C259.65 246.531 260.102 245.715 260.543 244.893C260.777 244.457 261.014 244.021 261.242 243.582C261.352 243.369 261.471 243.159 261.58 242.947C261.775 242.565 261.945 242.178 262.134 241.796C262.601 240.86 263.057 239.924 263.493 238.982C263.765 238.394 264.028 237.805 264.288 237.217C264.698 236.29 265.094 235.36 265.476 234.428C265.717 233.839 265.957 233.252 266.187 232.661C266.567 231.69 266.923 230.714 267.272 229.738C267.469 229.191 267.671 228.646 267.856 228.098C268.247 226.949 268.608 225.796 268.958 224.643C269.055 224.322 269.169 224.003 269.265 223.682C269.284 223.617 269.3 223.55 269.319 223.484C269.388 223.246 269.45 223.005 269.518 222.766C269.812 221.729 270.089 220.693 270.35 219.653C270.45 219.255 270.546 218.859 270.64 218.461C270.868 217.508 271.081 216.556 271.281 215.603C271.354 215.261 271.43 214.92 271.499 214.576C271.751 213.311 271.983 212.046 272.186 210.783C272.222 210.563 272.25 210.344 272.283 210.123C272.447 209.067 272.594 208.014 272.725 206.96C272.774 206.562 272.818 206.166 272.862 205.769C272.967 204.826 273.058 203.885 273.136 202.946C273.165 202.599 273.199 202.25 273.224 201.903C273.315 200.648 273.388 199.398 273.43 198.151C273.437 197.952 273.437 197.755 273.443 197.556C273.473 196.498 273.487 195.443 273.481 194.391C273.481 194.003 273.473 193.619 273.467 193.232C273.459 192.307 273.429 191.388 273.387 190.472Z" fill="#000000" fill-opacity="1.000000" fill-rule="nonzero"/>
	</g>
	<path id="Vector" d="M133.301 300.413C132.127 299.481 130.992 298.509 129.877 297.518C129.546 297.223 129.224 296.922 128.898 296.623C128.091 295.88 127.298 295.123 126.523 294.352C126.207 294.037 125.89 293.726 125.581 293.409C124.586 292.385 123.61 291.343 122.671 290.27C122.637 290.231 122.599 290.193 122.564 290.153C121.593 289.04 120.659 287.892 119.748 286.729C119.479 286.386 119.219 286.036 118.956 285.69C118.296 284.82 117.653 283.94 117.026 283.044C116.77 282.678 116.512 282.314 116.262 281.945C115.486 280.801 114.734 279.643 114.012 278.461C113.959 278.374 113.902 278.289 113.848 278.202C113.08 276.934 112.35 275.64 111.645 274.331C111.437 273.948 111.239 273.558 111.037 273.17C110.528 272.194 110.035 271.209 109.559 270.211C109.363 269.799 109.163 269.388 108.972 268.973C108.404 267.736 107.858 266.487 107.339 265.222C107.286 265.09 107.225 264.962 107.172 264.828C106.609 263.433 106.083 262.017 105.58 260.588C105.435 260.176 105.3 259.758 105.16 259.343C104.8 258.275 104.456 257.202 104.13 256.117C103.996 255.669 103.86 255.221 103.731 254.77C103.358 253.468 103.008 252.156 102.685 250.831C102.642 250.652 102.591 250.478 102.548 250.299C102.19 248.804 101.87 247.293 101.574 245.774C101.489 245.337 101.414 244.897 101.334 244.458C101.127 243.325 100.937 242.184 100.763 241.038C100.691 240.558 100.618 240.078 100.552 239.595C100.365 238.247 100.202 236.892 100.063 235.531C100.042 235.315 100.012 235.1 99.991 234.884C99.8398 233.312 99.7249 231.731 99.635 230.143C99.6096 229.696 99.5952 229.247 99.5747 228.799C99.5208 227.613 99.4829 226.421 99.4644 225.226C99.4561 224.727 99.4485 224.226 99.4463 223.725C99.4399 222.359 99.457 220.989 99.4973 219.613C99.5046 219.355 99.5042 219.1 99.5134 218.841C99.5698 217.224 99.6628 215.601 99.7815 213.975C99.8137 213.526 99.8572 213.072 99.8958 212.622C99.9968 211.4 100.116 210.178 100.253 208.952C100.311 208.44 100.368 207.928 100.432 207.416C100.6 206.047 100.792 204.676 101.005 203.303C101.049 203.018 101.085 202.734 101.131 202.45C101.396 200.81 101.697 199.17 102.024 197.528C102.114 197.084 102.213 196.64 102.307 196.194C102.566 194.958 102.843 193.723 103.139 192.489C103.262 191.971 103.387 191.454 103.516 190.937C103.855 189.588 104.216 188.238 104.599 186.891C104.687 186.583 104.765 186.275 104.854 185.967C104.999 185.465 105.17 184.968 105.321 184.466C105.774 182.97 106.243 181.472 106.75 179.98C106.993 179.266 107.257 178.556 107.512 177.843C107.965 176.578 108.428 175.316 108.918 174.058C109.217 173.29 109.531 172.526 109.844 171.761C110.34 170.551 110.852 169.345 111.385 168.141C111.723 167.377 112.065 166.613 112.418 165.851C112.984 164.629 113.577 163.412 114.18 162.199C114.566 161.422 114.944 160.645 115.346 159.872C115.641 159.306 115.946 158.743 116.249 158.178C116.823 157.111 117.411 156.046 118.014 154.986C118.344 154.406 118.676 153.827 119.016 153.251C119.659 152.157 120.323 151.071 121 149.987C121.313 149.487 121.616 148.984 121.935 148.487C122.937 146.924 123.963 145.37 125.033 143.833L115.702 157.243C114.634 158.78 113.607 160.334 112.604 161.897C112.287 162.394 111.982 162.896 111.671 163.395C110.997 164.478 110.331 165.564 109.688 166.66C109.349 167.236 109.016 167.816 108.685 168.395C108.082 169.455 107.494 170.518 106.92 171.587C106.617 172.152 106.312 172.715 106.017 173.282C105.871 173.559 105.717 173.834 105.574 174.112C105.321 174.607 105.099 175.11 104.853 175.608C104.249 176.822 103.657 178.037 103.091 179.26C102.737 180.021 102.396 180.786 102.057 181.551C101.525 182.754 101.012 183.96 100.516 185.17C100.203 185.936 99.8901 186.699 99.5903 187.468C99.0989 188.726 98.637 189.989 98.1846 191.254C97.929 191.966 97.6653 192.677 97.4226 193.39C96.9158 194.881 96.4465 196.378 95.9932 197.877C95.8665 198.292 95.7178 198.708 95.5955 199.123C95.5715 199.207 95.55 199.294 95.5247 199.378C95.4353 199.685 95.3574 199.994 95.27 200.3C94.8875 201.647 94.5264 202.996 94.1868 204.347C94.0566 204.862 93.9319 205.38 93.8091 205.895C93.5134 207.13 93.2375 208.367 92.9768 209.603C92.8831 210.047 92.7837 210.491 92.6943 210.935C92.3674 212.577 92.0659 214.217 91.8003 215.858C91.7537 216.143 91.719 216.426 91.6736 216.711C91.4607 218.084 91.27 219.455 91.1003 220.825C91.0369 221.336 90.979 221.848 90.9214 222.36C90.7854 223.587 90.6667 224.809 90.5654 226.031C90.5286 226.481 90.4839 226.933 90.4512 227.383C90.3325 229.01 90.2393 230.634 90.1841 232.251C90.1748 232.505 90.1758 232.759 90.1689 233.014C90.1296 234.392 90.1121 235.765 90.1174 237.134C90.1196 237.634 90.1274 238.136 90.1355 238.635C90.1555 239.83 90.1924 241.02 90.2458 242.208C90.2651 242.656 90.281 243.105 90.3062 243.551C90.396 245.14 90.5095 246.721 90.6621 248.292C90.6833 248.508 90.7134 248.723 90.7346 248.939C90.874 250.303 91.0374 251.659 91.2231 253.007C91.2893 253.487 91.3616 253.965 91.4338 254.443C91.6069 255.593 91.7979 256.736 92.0066 257.873C92.0854 258.309 92.1602 258.745 92.2444 259.179C92.54 260.7 92.8618 262.211 93.2195 263.708C93.2622 263.887 93.313 264.063 93.356 264.24C93.6797 265.564 94.0308 266.877 94.4023 268.179C94.5315 268.63 94.6672 269.078 94.8015 269.526C95.1274 270.611 95.4712 271.684 95.8308 272.752C95.9709 273.167 96.1064 273.583 96.2517 273.995C96.7544 275.424 97.2793 276.84 97.843 278.237C97.8975 278.371 97.9568 278.498 98.0105 278.631C98.5286 279.897 99.0747 281.146 99.6436 282.382C99.8345 282.797 100.033 283.208 100.23 283.62C100.706 284.618 101.201 285.605 101.71 286.583C101.911 286.967 102.108 287.355 102.314 287.736C103.022 289.045 103.752 290.342 104.521 291.611C104.57 291.694 104.626 291.773 104.675 291.856C105.4 293.042 106.155 294.204 106.932 295.352C107.181 295.722 107.44 296.085 107.696 296.451C108.323 297.346 108.966 298.227 109.626 299.097C109.889 299.444 110.149 299.793 110.418 300.135C111.33 301.299 112.261 302.446 113.234 303.56C113.269 303.6 113.307 303.638 113.342 303.677C114.282 304.75 115.256 305.792 116.252 306.816C116.56 307.135 116.878 307.446 117.194 307.759C117.97 308.53 118.762 309.288 119.57 310.03C119.896 310.329 120.219 310.63 120.549 310.925C121.664 311.916 122.799 312.886 123.973 313.82C165.672 346.938 229.571 330.529 266.702 277.17L276.032 263.761C238.901 317.122 175.001 333.531 133.301 300.413Z" fill="#7E7F82" fill-opacity="1.000000" fill-rule="nonzero"/>
	<g opacity="0.400000">
		<path id="Vector" d="M133.301 300.413C132.127 299.481 130.992 298.509 129.877 297.518C129.546 297.223 129.224 296.922 128.898 296.623C128.091 295.88 127.298 295.123 126.523 294.352C126.207 294.037 125.89 293.726 125.581 293.409C124.586 292.385 123.61 291.343 122.671 290.27C122.637 290.231 122.599 290.193 122.564 290.153C121.593 289.04 120.659 287.892 119.748 286.729C119.479 286.386 119.219 286.036 118.956 285.69C118.296 284.82 117.653 283.94 117.026 283.044C116.77 282.678 116.512 282.314 116.262 281.945C115.486 280.801 114.734 279.643 114.012 278.461C113.959 278.374 113.902 278.289 113.848 278.202C113.08 276.934 112.35 275.64 111.645 274.331C111.437 273.948 111.239 273.558 111.037 273.17C110.528 272.194 110.035 271.209 109.559 270.211C109.363 269.799 109.163 269.388 108.972 268.973C108.404 267.736 107.858 266.487 107.339 265.222C107.286 265.09 107.225 264.962 107.172 264.828C106.609 263.433 106.083 262.017 105.58 260.588C105.435 260.176 105.3 259.758 105.16 259.343C104.8 258.275 104.456 257.202 104.13 256.117C103.996 255.669 103.86 255.221 103.731 254.77C103.358 253.468 103.008 252.156 102.685 250.831C102.642 250.652 102.591 250.478 102.548 250.299C102.19 248.804 101.87 247.293 101.574 245.774C101.489 245.337 101.414 244.897 101.334 244.458C101.127 243.325 100.937 242.184 100.763 241.038C100.691 240.558 100.618 240.078 100.552 239.595C100.365 238.247 100.202 236.892 100.063 235.531C100.042 235.315 100.012 235.1 99.991 234.884C99.8398 233.312 99.7249 231.731 99.635 230.143C99.6096 229.696 99.5952 229.247 99.5747 228.799C99.5208 227.613 99.4829 226.421 99.4644 225.226C99.4561 224.727 99.4485 224.226 99.4463 223.725C99.4399 222.359 99.457 220.989 99.4973 219.613C99.5046 219.355 99.5042 219.1 99.5134 218.841C99.5698 217.224 99.6628 215.601 99.7815 213.975C99.8137 213.526 99.8572 213.072 99.8958 212.622C99.9968 211.4 100.116 210.178 100.253 208.952C100.311 208.44 100.368 207.928 100.432 207.416C100.6 206.047 100.792 204.676 101.005 203.303C101.049 203.018 101.085 202.734 101.131 202.45C101.396 200.81 101.697 199.17 102.024 197.528C102.114 197.084 102.213 196.64 102.307 196.194C102.566 194.958 102.843 193.723 103.139 192.489C103.262 191.971 103.387 191.454 103.516 190.937C103.855 189.588 104.216 188.238 104.599 186.891C104.687 186.583 104.765 186.275 104.854 185.967C104.999 185.465 105.17 184.968 105.321 184.466C105.774 182.97 106.243 181.472 106.75 179.98C106.993 179.266 107.257 178.556 107.512 177.843C107.965 176.578 108.428 175.316 108.918 174.058C109.217 173.29 109.531 172.526 109.844 171.761C110.34 170.551 110.852 169.345 111.385 168.141C111.723 167.377 112.065 166.613 112.418 165.851C112.984 164.629 113.577 163.412 114.18 162.199C114.566 161.422 114.944 160.645 115.346 159.872C115.641 159.306 115.946 158.743 116.249 158.178C116.823 157.111 117.411 156.046 118.014 154.986C118.344 154.406 118.676 153.827 119.016 153.251C119.659 152.157 120.323 151.071 121 149.987C121.313 149.487 121.616 148.984 121.935 148.487C122.937 146.924 123.963 145.37 125.033 143.833L115.702 157.243C114.634 158.78 113.607 160.334 112.604 161.897C112.287 162.394 111.982 162.896 111.671 163.395C110.997 164.478 110.331 165.564 109.688 166.66C109.349 167.236 109.016 167.816 108.685 168.395C108.082 169.455 107.494 170.518 106.92 171.587C106.617 172.152 106.312 172.715 106.017 173.282C105.871 173.559 105.717 173.834 105.574 174.112C105.321 174.607 105.099 175.11 104.853 175.608C104.249 176.822 103.657 178.037 103.091 179.26C102.737 180.021 102.396 180.786 102.057 181.551C101.525 182.754 101.012 183.96 100.516 185.17C100.203 185.936 99.8901 186.699 99.5903 187.468C99.0989 188.726 98.637 189.989 98.1846 191.254C97.929 191.966 97.6653 192.677 97.4226 193.39C96.9158 194.881 96.4465 196.378 95.9932 197.877C95.8665 198.292 95.7178 198.708 95.5955 199.123C95.5715 199.207 95.55 199.294 95.5247 199.378C95.4353 199.685 95.3574 199.994 95.27 200.3C94.8875 201.647 94.5264 202.996 94.1868 204.347C94.0566 204.862 93.9319 205.38 93.8091 205.895C93.5134 207.13 93.2375 208.367 92.9768 209.603C92.8831 210.047 92.7837 210.491 92.6943 210.935C92.3674 212.577 92.0659 214.217 91.8003 215.858C91.7537 216.143 91.719 216.426 91.6736 216.711C91.4607 218.084 91.27 219.455 91.1003 220.825C91.0369 221.336 90.979 221.848 90.9214 222.36C90.7854 223.587 90.6667 224.809 90.5654 226.031C90.5286 226.481 90.4839 226.933 90.4512 227.383C90.3325 229.01 90.2393 230.634 90.1841 232.251C90.1748 232.505 90.1758 232.759 90.1689 233.014C90.1296 234.392 90.1121 235.765 90.1174 237.134C90.1196 237.634 90.1274 238.136 90.1355 238.635C90.1555 239.83 90.1924 241.02 90.2458 242.208C90.2651 242.656 90.281 243.105 90.3062 243.551C90.396 245.14 90.5095 246.721 90.6621 248.292C90.6833 248.508 90.7134 248.723 90.7346 248.939C90.874 250.303 91.0374 251.659 91.2231 253.007C91.2893 253.487 91.3616 253.965 91.4338 254.443C91.6069 255.593 91.7979 256.736 92.0066 257.873C92.0854 258.309 92.1602 258.745 92.2444 259.179C92.54 260.7 92.8618 262.211 93.2195 263.708C93.2622 263.887 93.313 264.063 93.356 264.24C93.6797 265.564 94.0308 266.877 94.4023 268.179C94.5315 268.63 94.6672 269.078 94.8015 269.526C95.1274 270.611 95.4712 271.684 95.8308 272.752C95.9709 273.167 96.1064 273.583 96.2517 273.995C96.7544 275.424 97.2793 276.84 97.843 278.237C97.8975 278.371 97.9568 278.498 98.0105 278.631C98.5286 279.897 99.0747 281.146 99.6436 282.382C99.8345 282.797 100.033 283.208 100.23 283.62C100.706 284.618 101.201 285.605 101.71 286.583C101.911 286.967 102.108 287.355 102.314 287.736C103.022 289.045 103.752 290.342 104.521 291.611C104.57 291.694 104.626 291.773 104.675 291.856C105.4 293.042 106.155 294.204 106.932 295.352C107.181 295.722 107.44 296.085 107.696 296.451C108.323 297.346 108.966 298.227 109.626 299.097C109.889 299.444 110.149 299.793 110.418 300.135C111.33 301.299 112.261 302.446 113.234 303.56C113.269 303.6 113.307 303.638 113.342 303.677C114.282 304.75 115.256 305.792 116.252 306.816C116.56 307.135 116.878 307.446 117.194 307.759C117.97 308.53 118.762 309.288 119.57 310.03C119.896 310.329 120.219 310.63 120.549 310.925C121.664 311.916 122.799 312.886 123.973 313.82C165.672 346.938 229.571 330.529 266.702 277.17L276.032 263.761C238.901 317.122 175.001 333.531 133.301 300.413Z" fill="#000000" fill-opacity="1.000000" fill-rule="nonzero"/>
	</g>
	<path id="Vector" d="M144.263 113.912L143.739 112.31C148.203 109.782 152.837 107.533 157.511 105.626L157.833 107.327C153.224 109.206 148.661 111.422 144.263 113.912ZM170.722 102.947L170.589 101.181C190.305 95.7872 210.635 96.1114 229.386 102.115L228.727 103.872C210.223 97.9468 190.167 97.6284 170.722 102.947Z" fill="#7E7F82" fill-opacity="1.000000" fill-rule="nonzero"/>
	<path id="Vector" d="M116.634 148.479C152.024 97.918 216.836 83.6148 261.404 116.524C305.971 149.433 313.412 217.088 278.022 267.649C242.622 318.223 177.801 332.542 133.234 299.633C88.6655 266.725 81.2336 199.054 116.634 148.479ZM259.572 254.026C286.868 215.03 281.144 162.819 246.766 137.434C212.389 112.049 162.368 123.098 135.071 162.094C107.757 201.117 113.511 253.311 147.889 278.694C182.266 304.078 232.258 293.049 259.572 254.026Z" fill="#7E7F82" fill-opacity="1.000000" fill-rule="nonzero"/>
	<path id="Vector" d="M372.923 315.992L361.498 332.323C359.291 335.477 355.399 336.443 352.897 334.458L269.317 268.158L284.367 246.648L372.153 306.937C374.782 308.739 375.131 312.837 372.923 315.992Z" fill="#7E7F82" fill-opacity="1.000000" fill-rule="nonzero"/>
	<g opacity="0.100000">
		<path id="Vector" d="M260.757 254.902C288.574 215.164 282.74 161.956 247.707 136.088C212.675 110.22 161.698 121.479 133.881 161.219C106.046 200.986 111.91 254.175 146.943 280.043C181.977 305.91 232.922 294.671 260.757 254.902Z" fill="#FFFFFF" fill-opacity="1.000000" fill-rule="nonzero"/>
	</g>
	<g opacity="0.300000">
		<path id="Vector" d="M200.32 249.666C200.32 249.666 201.891 244.165 202.013 237.544C202.135 230.923 206.724 224.633 216.618 226.668C226.511 228.704 236.07 230.757 242.314 232.817C248.559 234.877 254.364 241.693 251.235 247.848C248.107 254.003 242.765 253.035 234.518 257.012C226.271 260.99 224.275 266.4 219.031 267.878C213.788 269.357 203.895 267.322 200.761 260.989C197.628 254.658 200.32 249.666 200.32 249.666Z" fill="#F05E25" fill-opacity="1.000000" fill-rule="nonzero"/>
		<path id="Vector" d="M227.161 214.447C227.161 214.447 225.991 209.062 228.853 205.708C231.716 202.355 238.454 206.041 242.885 210.018C247.316 213.995 248.173 221.7 245.042 225.348C241.911 228.997 234.327 227.602 232.014 224.973C229.7 222.343 227.161 214.447 227.161 214.447Z" fill="#F05E25" fill-opacity="1.000000" fill-rule="nonzero"/>
		<path id="Vector" d="M202.382 199.479C202.382 199.479 211.971 201.733 217.35 206.189C222.729 210.645 224.924 216.456 221.117 220.612C217.31 224.768 209.787 222.516 204.935 219.33C200.083 216.145 195.327 208.89 194.586 204.638C193.845 200.387 200.349 199.305 202.382 199.479Z" fill="#F05E25" fill-opacity="1.000000" fill-rule="nonzero"/>
		<path id="Vector" d="M183.323 208.617C183.323 208.617 187.591 210.524 192.893 216.195C198.195 221.866 199.72 227.064 198.541 230.608C197.362 234.152 191.791 236.469 185.959 234.308C180.128 232.147 175.139 224.157 174.904 220.126C174.669 216.095 176.012 210.465 178.003 208.955C179.994 207.446 181.382 207.485 183.323 208.617Z" fill="#F05E25" fill-opacity="1.000000" fill-rule="nonzero"/>
		<path id="Vector" d="M176.188 234.824C176.188 234.824 186.422 237.838 191.063 242.225C195.705 246.613 194.482 252.67 191.468 254.244C188.455 255.818 182.391 256.199 175.443 251.313C168.496 246.427 167.943 237.581 169.636 236.078C171.33 234.574 176.188 234.824 176.188 234.824Z" fill="#F05E25" fill-opacity="1.000000" fill-rule="nonzero"/>
	</g>
</svg>
