<svg width="386.000000" height="308.000000" viewBox="0 0 386 308" fill="none" xmlns="http://www.w3.org/2000/svg" xmlns:xlink="http://www.w3.org/1999/xlink">
	<desc>
			Created with Pixso.
	</desc>
	<defs/>
	<path id="Vector" d="M293.374 195.438C292.453 204.415 287.878 212.853 282.455 220.628C277.033 228.395 270.688 235.717 265.72 243.693C261.125 251.05 257.751 258.878 254.75 266.801C254.005 268.743 253.291 270.675 252.587 272.617C257.068 271.825 262.005 273.288 264.913 276.257C267.821 279.234 268.577 283.597 266.787 287.141C266.57 287.585 266.279 288.037 265.773 288.272C265.348 288.464 264.841 288.464 264.355 288.455C255.196 288.342 246.026 288.22 236.867 288.107C235.77 288.09 234.612 288.063 233.649 287.611C232.511 287.062 231.868 286 231.32 284.999C228.039 278.922 225.99 272.383 225.245 265.731C224.872 262.439 224.821 259.122 225.1 255.822C223.465 255.866 221.83 255.909 220.184 255.953C222.326 253.21 223.9 250.154 224.831 246.967C221.468 247.603 217.949 247.585 214.596 246.923C217.576 243.432 223.269 237.781 220.941 233.349C218.281 228.299 214.845 223.684 212.713 218.39C208.708 208.386 208.077 197.25 212.289 187.298C216.49 177.354 225.815 168.787 237.717 165.417C243.73 163.71 250.177 163.344 256.522 163.553C266.002 163.867 275.896 165.626 283.027 170.884C291.076 176.822 294.295 186.461 293.374 195.438Z" fill="#B25109" fill-opacity="1.000000" fill-rule="nonzero"/>
	<path id="Vector" d="M266.787 287.141C266.57 287.585 266.279 288.037 265.773 288.272C265.348 288.464 264.841 288.464 264.355 288.455C255.196 288.342 246.026 288.22 236.868 288.107C235.771 288.09 234.612 288.064 233.649 287.611C232.511 287.062 231.868 286 231.32 284.999C228.039 278.922 225.99 272.383 225.245 265.731C226.953 264.042 229.996 262.291 230.792 260.681C229.053 264.224 231.465 268.787 235.749 270.067C241.007 271.643 246.761 268.456 249.731 264.485C249.462 265.46 249.193 266.427 248.934 267.402C250.859 267.837 252.805 267.298 254.751 266.802C254.006 268.744 253.292 270.676 252.588 272.618C257.069 271.826 262.006 273.289 264.914 276.257C267.821 279.235 268.577 283.597 266.787 287.141Z" fill="#E0BB86" fill-opacity="1.000000" fill-rule="nonzero"/>
	<path id="Vector" d="M322.021 69.4591C322.001 69.8423 321.918 70.2339 321.762 70.5909C321.659 70.8524 321.503 71.0959 321.318 71.3223C319.558 73.3861 316.319 72.0798 314.022 70.8518C309.374 68.379 304.314 66.4287 299.056 65.0706C294.833 63.9823 288.862 64.2085 285.188 62.2062C284.681 61.9274 284.194 61.6229 283.718 61.2922C278.937 57.9836 275.739 52.1498 273.535 46.7601C272.686 44.6791 271.982 42.6678 271.403 40.8917C268.847 33.1339 267.304 25.097 263.516 17.7052C261.405 13.5781 258.58 9.64209 256.665 5.48047C255.589 3.15588 258.507 0.94397 261.157 2.07581C261.488 2.21497 261.809 2.35461 262.14 2.49377C277.592 9.17236 292.36 17.4353 303.62 28.5537C312.428 37.2346 318.958 47.8223 321.214 59.0022C321.907 62.4414 322.197 65.9415 322.021 69.4591Z" fill="#FF7D00" fill-opacity="1.000000" fill-rule="nonzero"/>
	<path id="Vector" d="M312.231 57.3655C304.852 57.4698 297.441 55.9374 290.953 52.9686C289.711 47.7878 289.255 42.3899 287.144 37.4264C284.619 31.5055 280.19 26.3075 275.45 21.4575C273.1 19.0629 270.492 16.155 271.486 13.1682C284.205 17.6086 295.32 25.2448 303.031 34.8486C308.444 41.5881 312.159 49.2852 313.949 57.2783C313.379 57.3481 312.81 57.3564 312.231 57.3655Z" fill="#FFDCA2" fill-opacity="1.000000" fill-rule="nonzero"/>
	<path id="Vector" d="M315.16 67.5697C315.16 67.8485 315.16 68.1357 315.139 68.4146C309.892 66.7076 304.531 65.2451 299.087 64.026C296.832 62.6941 294.347 61.8141 293.282 59.6727C292.205 57.5223 291.501 55.267 290.953 52.9685C297.442 55.938 304.851 57.4698 312.23 57.3654C312.81 57.3563 313.379 57.348 313.948 57.2782C314.704 60.6649 315.119 64.1132 315.16 67.5697Z" fill="#E0BB86" fill-opacity="1.000000" fill-rule="nonzero"/>
	<path id="Vector" d="M299.087 64.0259C294.027 62.894 288.904 61.98 283.719 61.2916C278.938 57.9832 275.74 52.1493 273.536 46.7596C275.212 46.8032 276.527 47.9524 277.717 48.9625C278.938 49.9989 280.573 51.0347 282.249 50.6515C282.653 50.5559 283.026 50.3816 283.43 50.2771C285.044 49.8855 286.669 50.7649 288.077 51.5398C289.008 52.0538 289.971 52.5326 290.954 52.9678C291.503 55.2661 292.207 57.5216 293.283 59.672C294.347 61.8147 296.831 62.6941 299.087 64.0259Z" fill="#EA6A00" fill-opacity="1.000000" fill-rule="nonzero"/>
	<path id="Vector" d="M322.022 69.4592C322.001 69.8424 321.918 70.234 321.763 70.5911C320.873 70.3821 320.003 70.0687 319.155 69.7726C317.83 69.3027 316.485 68.8496 315.139 68.4144C315.16 68.1356 315.16 67.8485 315.16 67.5697C315.119 64.113 314.704 60.6648 313.949 57.2781C314.374 57.2435 314.798 57.1826 315.212 57.0864C315.677 56.973 316.143 56.8167 316.629 56.7904C317.758 56.7122 318.792 57.2865 319.672 57.8787C320.2 58.2357 320.717 58.61 321.214 59.0016C321.907 62.4415 322.198 65.9417 322.022 69.4592Z" fill="#EA6A00" fill-opacity="1.000000" fill-rule="nonzero"/>
	<path id="Vector" d="M315.139 68.4143C315.098 68.9802 314.974 69.5378 314.632 70.0249C313.421 71.7139 310.378 71.4966 308.309 70.5819C305.235 69.2238 303.031 66.9337 300.516 64.9833C300.06 64.6263 299.584 64.3129 299.087 64.0258C304.531 65.2449 309.892 66.7074 315.139 68.4143Z" fill="#FFDCA2" fill-opacity="1.000000" fill-rule="nonzero"/>
	<path id="Vector" d="M375.471 123.755C370.534 129.937 365.577 134.857 360.299 138.479C357.546 139.741 354.699 140.856 351.823 141.883C346.679 143.72 341.194 145.558 335.636 146.089C335.647 146.097 335.657 146.115 335.667 146.123C334.405 146.14 333.111 146.097 331.797 146.019C313.644 144.878 297.985 131.705 297.985 131.705C297.985 131.705 304.599 163.015 304.619 163.459C304.619 163.537 304.63 163.625 304.63 163.703C302.871 162.336 301.639 161.361 301.504 161.256C301.597 161.683 303.326 168.762 305.002 177.643C304.982 185.923 304.557 194.256 303.968 202.336C303.347 210.912 298.948 219.045 292.729 225.897C292.729 225.906 292.729 225.906 292.718 225.906C292.159 226.533 291.569 227.151 290.979 227.752C290.969 227.769 290.948 227.778 290.938 227.795C286.933 231.844 282.338 235.414 277.433 238.697C276.439 239.367 275.425 240.02 274.4 240.664C271.523 242.484 268.563 244.216 265.583 245.888C259.353 249.38 252.926 252.672 246.054 255.162C240.382 257.207 234.473 258.688 228.594 260.264C226.193 260.9 223.802 261.553 221.432 262.267C217.758 263.382 214.136 264.635 210.503 265.82C204.386 266.786 198.208 267.657 192.237 268.414C189.867 268.719 187.538 269.006 185.251 269.267C185.251 269.267 185.251 269.267 185.251 269.276C182.808 269.555 180.428 269.825 178.12 270.06C178.679 268.284 178.907 267.03 178.907 267.03C178.545 265.95 178.245 264.783 177.986 263.53C177.821 263.503 177.665 263.478 177.5 263.443C177.624 263.294 177.759 263.146 177.883 262.99C177.459 260.778 177.2 258.314 177.066 255.641C176.983 254.135 176.952 252.567 176.952 250.931C176.952 249.328 176.993 247.657 177.087 245.942C177.087 245.663 177.098 245.384 177.118 245.097C177.149 244.375 177.191 243.634 177.242 242.886C177.325 241.614 177.429 240.308 177.543 238.985C178.847 224.174 182.158 206.542 186.019 189.564C190.718 168.894 197.124 149.61 200.808 137.063C205.41 131.735 208.972 125.534 211.571 119.786C213.432 115.671 215.031 111.738 215.101 108.763C215.37 97.1823 237.517 58.4536 267.882 58.1139C271.546 58.0792 275.075 58.0267 278.469 58.0183C287.566 57.9838 295.753 58.1926 303.173 59.3938C315.975 61.4576 326.5 66.464 335.515 78.2183C351.711 99.3417 346.05 99.6813 351.711 101.501C351.97 101.579 352.239 101.657 352.529 101.71C355.789 102.415 360.994 101.841 366.035 101.205C370.391 100.648 374.614 100.029 377.367 100.134C380.585 100.256 383.359 102.31 383.525 106.481C383.688 110.372 381.587 116.084 375.471 123.755Z" fill="#FF7D00" fill-opacity="1.000000" fill-rule="nonzero"/>
	<path id="Vector" d="M329.385 87.2302C329.144 88.2878 329.046 89.3755 329.2 90.4446C329.535 92.7904 331.063 94.9248 333.009 96.6284C334.135 97.6141 335.452 98.4999 337.008 98.8928C338.565 99.2856 340.396 99.1062 341.586 98.1755C342.653 97.3411 343.054 96.0361 342.974 94.8113C342.894 93.587 342.394 92.4136 341.898 91.2605C340.639 88.3334 339.286 84.9242 336.413 82.8052C332.866 80.1908 329.972 84.6511 329.385 87.2302Z" fill="#EA6A00" fill-opacity="1.000000" fill-rule="nonzero"/>
	<path id="Vector" d="M282.742 93.9774C281.039 97.3809 281.287 101.309 282.639 104.823C283.267 106.455 284.177 108.085 285.762 109.164C288.091 110.75 291.519 110.823 294.283 109.851C297.047 108.878 299.237 107.014 301.043 105.002C301.755 104.209 302.422 103.384 302.954 102.497C304.732 99.5389 304.874 95.8754 303.117 92.9084C298.633 85.3376 286.43 86.6079 282.742 93.9774Z" fill="#EA6A00" fill-opacity="1.000000" fill-rule="nonzero"/>
	<path id="Vector" d="M304.138 96.1285C304.138 96.9642 303.982 97.7744 303.713 98.5314C303.703 98.5404 303.703 98.5404 303.703 98.5487C302.482 101.849 298.807 104.252 294.482 104.252C289.152 104.252 284.825 100.613 284.825 96.1279C284.825 94.6389 285.302 93.2456 286.13 92.0527C286.13 92.0527 286.14 92.0438 286.14 92.0355C287.817 89.6237 290.932 88.0129 294.482 88.0129C299.812 88.0135 304.138 91.6445 304.138 96.1285Z" fill="#E2E2E2" fill-opacity="1.000000" fill-rule="nonzero"/>
	<path id="Vector" d="M304.138 96.1287C304.138 96.9644 303.982 97.7745 303.713 98.5315C303.703 98.5405 303.703 98.5404 303.703 98.5488C302.026 100.961 298.921 102.58 295.361 102.58C290.032 102.58 285.705 98.941 285.705 94.4564C285.705 93.6206 285.85 92.8104 286.13 92.0536C286.13 92.0536 286.14 92.0446 286.14 92.0363C287.817 89.6244 290.932 88.0137 294.482 88.0137C299.812 88.0137 304.138 91.6447 304.138 96.1287Z" fill="#FFFFFF" fill-opacity="1.000000" fill-rule="nonzero"/>
	<path id="Vector" d="M304.133 96.1326C304.133 100.006 300.401 103.146 295.797 103.146C291.193 103.146 287.461 100.006 287.461 96.1326C287.461 92.2593 291.193 89.1194 295.797 89.1194C300.401 89.1194 304.133 92.2593 304.133 96.1326Z" fill="#201600" fill-opacity="1.000000" fill-rule="evenodd"/>
	<path id="Vector" d="M301.135 92.8584C301.852 94.2383 301.769 95.6016 300.949 95.9034C300.129 96.2053 298.882 95.3312 298.166 93.9512C297.449 92.5713 297.532 91.2079 298.352 90.906C299.171 90.6041 300.418 91.4784 301.135 92.8584Z" fill="#FFFFFF" fill-opacity="1.000000" fill-rule="nonzero"/>
	<path id="Vector" d="M366.601 135.248C362.472 137.73 356.534 140.201 351.823 141.883C346.679 143.72 341.194 145.558 335.636 146.089C335.76 146.192 329.05 146.7 322.038 148.849C304.951 154.012 304.63 162.946 304.63 163.66C304.63 165.246 305.853 176.516 303.968 202.337C303.571 207.447 302.068 211.764 299.683 216.233C294.328 226.183 284.859 234.088 274.4 240.665C266.468 245.682 255.308 251.808 246.053 255.162C238.076 258.04 229.348 259.883 221.432 262.267C214.669 264.319 207.715 266.962 200.889 268.675C195.494 270.022 189.637 270.929 184.071 271.766C181.632 272.127 180.789 272.784 176.858 273.325C177.824 271.246 178.601 268.717 178.907 267.03C178.545 265.95 178.245 264.783 177.986 263.53C177.821 263.503 177.665 263.478 177.5 263.443C177.624 263.294 177.759 263.146 177.883 262.99C176.9 257.867 176.81 251.042 177.086 245.942C178.521 246.126 180.498 246.354 181.94 246.516L181.95 246.525C182.027 246.525 182.261 246.557 184.269 246.795C191.876 247.666 199.555 248.545 207.203 247.936C222.489 246.725 236.647 239.446 246.188 229.328C255.699 219.239 263.459 206.827 261.547 193.995C260.761 188.762 259.156 183.608 256.786 178.715C254.095 173.186 249.635 167.483 242.69 166.247C237.36 165.289 231.958 167.213 226.99 169.094C228.139 165.341 229.298 161.579 230.447 157.827C226.939 159.185 223.016 159.786 219.156 159.559C222.747 155.38 225.955 150.965 228.76 146.377C224.652 145.924 220.636 144.905 216.921 143.373C235.963 133.647 259.601 133.49 280.817 127.787C285.454 126.542 290.028 125.01 294.043 122.711C303.109 117.521 308.76 108.37 308.605 99.15C308.379 87.067 298.499 69.0977 278.468 58.0177C287.565 57.9832 295.751 58.192 303.172 59.3932C324.746 75.441 330.024 96.4677 337.821 100.22C344.178 103.217 358.672 100.936 366.033 101.204C372.261 101.398 378.677 102.907 383.471 106.237C385.857 115.271 381.295 126.762 366.601 135.248Z" fill="#FFDCA2" fill-opacity="1.000000" fill-rule="nonzero"/>
	<path id="Vector" d="M372.712 101.945C372.619 101.98 372.515 102.006 372.422 102.032C370.239 102.624 367.941 102.833 365.675 103.12C360.997 103.721 356.381 104.644 351.89 105.898C349.851 106.473 347.822 107.108 345.711 107.492C342.824 108.014 339.843 108.058 336.894 108.075C331.212 108.109 325.541 108.101 319.859 108.031C319.197 108.022 316.33 108.336 316.008 107.709C315.595 106.899 317.871 106.211 318.492 105.95C320.748 104.993 323.066 104.122 325.415 103.347C329.441 102.023 333.591 100.978 337.824 100.221C339.449 100.987 341.332 101.318 343.185 101.518C346.29 101.849 349.405 101.832 352.53 101.71C356.318 101.562 360.127 101.257 363.914 101.187C364.618 101.178 365.322 101.178 366.036 101.205C368.272 101.275 370.518 101.51 372.712 101.945Z" fill="#E0BB86" fill-opacity="1.000000" fill-rule="nonzero"/>
	<path id="Vector" d="M341.401 88.5334C341.603 89.2968 341.711 90.0524 341.74 90.7728C341.736 90.7817 341.736 90.7819 341.738 90.7902C341.838 93.934 340.316 96.5233 337.838 96.9893C334.784 97.563 331.424 94.7057 330.337 90.6119C329.976 89.2526 329.912 87.9296 330.098 86.7516C330.098 86.7516 330.101 86.7426 330.099 86.7349C330.475 84.3525 331.87 82.547 333.903 82.1644C336.955 81.5907 340.314 84.4397 341.401 88.5334Z" fill="#E2E2E2" fill-opacity="1.000000" fill-rule="nonzero"/>
	<path id="Vector" d="M341.401 88.5334C341.603 89.2968 341.711 90.0524 341.74 90.7728C341.736 90.7817 341.736 90.7819 341.738 90.7902C341.362 93.1725 339.976 94.9851 337.936 95.3684C334.883 95.942 331.522 93.0847 330.436 88.991C330.233 88.2277 330.12 87.4733 330.097 86.7516C330.097 86.7516 330.101 86.7426 330.098 86.7349C330.475 84.3525 331.869 82.547 333.902 82.1644C336.956 81.5907 340.314 84.4397 341.401 88.5334Z" fill="#FFFFFF" fill-opacity="1.000000" fill-rule="nonzero"/>
	<path id="Vector" d="M341.398 88.5371C342.337 92.0732 340.96 95.3413 338.322 95.8368C335.685 96.3323 332.786 93.8672 331.847 90.3318C330.909 86.7957 332.286 83.5276 334.924 83.0321C337.561 82.536 340.46 85.0011 341.398 88.5371Z" fill="#201600" fill-opacity="1.000000" fill-rule="nonzero"/>
	<path id="Vector" d="M338.888 85.8707C339.633 87.0533 339.915 88.307 339.519 88.671C339.122 89.035 338.197 88.3711 337.451 87.1879C336.706 86.0054 336.423 84.7517 336.82 84.3876C337.217 84.0242 338.143 84.6882 338.888 85.8707Z" fill="#FFFFFF" fill-opacity="1.000000" fill-rule="nonzero"/>
	<path id="Vector" d="M371.71 99.2806C376.37 99.0588 381.773 99.5127 384.449 102.73C386.83 105.594 386.055 109.494 384.869 112.844C384.027 115.22 382.824 117.766 380.228 118.941C378.905 119.54 377.367 119.703 375.866 119.76C366.979 120.1 358.17 117.021 351.46 112.108C338.005 102.258 364.942 99.603 371.71 99.2806Z" fill="#201600" fill-opacity="1.000000" fill-rule="nonzero"/>
	<path id="Vector" d="M277.746 86.5599C266.909 81.5061 291.775 69.7737 294.526 77.8041C295.924 81.8894 282.086 88.584 277.746 86.5599Z" fill="#FFDCA2" fill-opacity="1.000000" fill-rule="nonzero"/>
	<path id="Vector" d="M328.378 74.2886C329.911 74.3098 331.567 74.4502 332.741 75.6512C333.255 76.1761 333.655 77.0536 333.37 77.7926C333.182 78.2804 332.751 78.5535 332.337 78.7438C330.255 79.702 327.952 79.4398 325.726 79.4161C325.063 79.4091 324.389 79.4225 323.749 79.2072C323.11 78.9912 322.496 78.5048 322.235 77.7618C321.01 74.2765 326.98 74.2694 328.378 74.2886Z" fill="#FFDCA2" fill-opacity="1.000000" fill-rule="nonzero"/>
	<path id="Vector" d="M192.237 268.414C192.092 269.137 191.916 269.851 191.688 270.556C189.153 271 186.617 271.384 184.071 271.767C183.895 271.793 183.719 271.828 183.543 271.854C181.846 272.176 180.263 272.768 178.555 273.056C177.986 273.151 177.427 273.247 176.858 273.326C177.396 272.167 177.81 271.036 178.12 270.061C178.679 268.285 178.907 267.03 178.907 267.03C178.545 265.951 178.245 264.784 177.986 263.53C177.821 263.504 177.665 263.478 177.5 263.443C177.624 263.295 177.759 263.147 177.883 262.99C177.459 260.779 177.2 258.315 177.066 255.642C177.366 254.431 177.428 253.169 177.221 251.854C177.169 251.549 177.086 251.244 176.952 250.931C176.952 249.328 176.993 247.657 177.087 245.942C177.087 245.663 177.098 245.384 177.118 245.097C178.329 245.393 179.913 245.863 181.941 246.516L181.951 246.525L181.962 246.525C184.88 247.465 191.172 251.035 192.187 253.612C192.673 254.831 192.715 256.138 192.767 257.418C192.889 261.074 192.982 264.835 192.237 268.414Z" fill="#E0BB86" fill-opacity="1.000000" fill-rule="nonzero"/>
	<path id="Vector" d="M217.477 91.5465C207.775 88.1995 201.375 80.1243 198.163 71.7261C194.95 63.3285 194.369 54.4092 192.811 45.6847C190.459 32.5134 185.859 19.7139 182.089 6.77783C181.713 5.48694 181.348 4.11023 181.858 2.85205C182.57 1.09839 184.865 0.0703125 187.066 0.00439453C189.267 -0.0622559 191.391 0.646606 193.385 1.43237C205.793 6.32471 215.884 14.5697 224.836 23.2993C233.787 32.0282 241.879 41.4122 251.654 49.4932C254.233 51.6262 256.954 53.692 258.919 56.2467C260.885 58.8015 262.036 61.978 261.105 64.918C260.387 67.1869 258.535 69.061 256.734 70.855C253.164 74.4128 249.593 77.9701 246.022 81.528C237.939 89.582 230.745 96.124 217.477 91.5465Z" fill="#FF7D00" fill-opacity="1.000000" fill-rule="nonzero"/>
	<path id="Vector" d="M248.883 64.0258C248.831 64.252 248.738 64.4783 248.614 64.6871C248.097 65.5839 247.02 66.2716 245.862 66.1324C244.413 65.9498 243.564 64.6173 243.388 63.3982C242.208 63.5117 241.442 64.4781 240.842 65.3486C238.803 68.3353 236.754 71.3215 234.715 74.3167C234.074 72.5579 233.577 70.7728 233.214 68.9615C231.279 72.2092 229.54 75.5441 228.04 78.9487C227.181 80.8901 226.229 86.0272 222.492 84.9998C221.944 84.8518 221.416 84.5557 220.899 84.1724C218.756 82.5527 216.914 79.2877 215.9 77.6418C214.203 74.8903 212.941 71.965 211.978 68.9872C210.136 63.3187 209.359 57.4592 208.418 51.6338C207.01 42.892 205.251 34.1932 203.119 25.5559C202.363 22.4647 201.546 19.3304 201.794 16.1783C201.877 15.0984 202.405 13.7491 203.688 13.662C204.444 13.6101 205.106 14.0363 205.675 14.4542C212.951 19.7131 218.456 26.4609 223.652 33.244C226.663 37.1884 229.654 41.2108 233.711 44.4238C235.398 45.7648 237.271 46.9492 238.844 48.3855C240.034 49.4828 241.038 50.7102 242.042 51.9292C244.299 54.6719 246.565 57.4324 248.128 60.4973C248.696 61.6139 249.172 62.8419 248.883 64.0258Z" fill="#FFDCA2" fill-opacity="1.000000" fill-rule="nonzero"/>
	<path id="Vector" d="M377.486 101.043C378.98 101.109 380.838 101.457 381.158 102.686C378.445 103.404 375.551 103.406 372.726 103.689C369.902 103.972 366.965 104.612 364.956 106.306C364.493 106.696 364.077 107.156 363.95 107.697C363.583 109.258 365.693 110.848 364.869 112.28C364.476 112.963 363.505 113.3 362.604 113.279C361.704 113.258 360.852 112.945 360.033 112.628C358.057 111.859 356.063 110.989 354.65 109.595C353.388 108.351 352.079 105.813 353.862 104.585C355.564 103.414 358.798 102.779 360.888 102.287C366.269 101.022 371.933 100.8 377.486 101.043Z" fill="#595651" fill-opacity="1.000000" fill-rule="nonzero"/>
	<path id="Vector" d="M376.128 100.995C376.529 101.027 377.057 101.203 376.979 101.535C376.924 101.768 376.596 101.862 376.321 101.913C375.085 102.14 366.131 103.692 366.006 102.668C365.744 100.532 374.751 100.886 376.128 100.995Z" fill="#FFFFFF" fill-opacity="1.000000" fill-rule="nonzero"/>
	<path id="Vector" d="M256.278 211.958C256.071 214.047 255.657 216.102 255.078 218.131C253.184 224.827 249.52 231.183 245.36 237.147C239.937 244.914 233.593 252.236 228.625 260.212C228.614 260.229 228.604 260.247 228.593 260.264C224.009 267.604 220.645 275.414 217.654 283.32C216.909 285.262 216.195 287.195 215.492 289.137C219.973 288.345 224.909 289.807 227.818 292.776C230.726 295.754 231.482 300.116 229.691 303.66C229.474 304.104 229.184 304.557 228.677 304.792C228.253 304.984 227.746 304.984 227.259 304.975C218.1 304.862 208.931 304.739 199.772 304.627C198.675 304.609 197.516 304.583 196.553 304.13C195.415 303.582 194.774 302.52 194.224 301.519C190.944 295.441 188.895 288.902 188.15 282.25C188.067 281.51 187.994 280.77 187.953 280.021C187.766 277.461 187.788 274.901 188.005 272.341C186.37 272.385 184.734 272.428 183.089 272.472C183.244 272.272 183.409 272.063 183.544 271.853C184.176 271.018 184.734 270.156 185.252 269.276C185.252 269.267 185.252 269.267 185.252 269.267C186.317 267.421 187.156 265.48 187.735 263.486C184.537 264.087 181.194 264.104 177.986 263.53C177.821 263.503 177.665 263.478 177.5 263.442C177.624 263.294 177.759 263.146 177.883 262.99C180.947 259.481 186.08 254.117 183.844 249.869C183.244 248.737 182.613 247.622 181.951 246.525L181.94 246.516C181.899 246.429 181.847 246.342 181.795 246.255C181.785 246.246 181.775 246.238 181.775 246.229C180.357 243.817 178.856 241.449 177.542 238.984C178.142 232.106 179.177 224.626 180.512 216.886C182.034 207.952 183.948 198.662 186.018 189.563C190.168 186.159 195.115 183.486 200.621 181.936C206.634 180.229 213.081 179.864 219.426 180.073C228.906 180.386 238.8 182.145 245.93 187.404C253.981 193.342 257.199 202.981 256.278 211.958Z" fill="#FF7D00" fill-opacity="1.000000" fill-rule="nonzero"/>
	<path id="Vector" d="M229.695 303.661C229.478 304.106 229.188 304.558 228.681 304.793C228.257 304.985 227.749 304.985 227.263 304.976C218.104 304.863 208.934 304.741 199.776 304.628C198.679 304.611 197.52 304.584 196.557 304.132C195.419 303.583 194.777 302.521 194.228 301.52C190.948 295.443 188.898 288.904 188.153 282.251C189.861 280.563 192.903 278.812 193.7 277.202C191.962 280.745 194.373 285.307 198.657 286.588C203.915 288.164 209.669 284.977 212.639 281.007C212.37 281.982 212.101 282.948 211.842 283.924C213.767 284.359 215.713 283.819 217.659 283.323C216.914 285.265 216.2 287.198 215.496 289.14C219.977 288.348 224.914 289.81 227.822 292.779C230.73 295.755 231.486 300.118 229.695 303.661Z" fill="#FFDCA2" fill-opacity="1.000000" fill-rule="nonzero"/>
	<path id="Vector" d="M248.613 64.6879C248.096 65.5845 247.019 66.2722 245.861 66.1332C244.412 65.9506 243.563 64.618 243.387 63.3989C242.207 63.5123 241.441 64.4789 240.841 65.3494C238.802 68.3361 236.753 71.3223 234.714 74.3174C234.073 72.5586 233.576 70.7736 233.214 68.9623C231.279 72.21 229.539 75.5448 228.039 78.9495C227.18 80.8909 226.228 86.028 222.492 85.0005C221.943 84.8524 221.415 84.5563 220.898 84.1731C221.684 84.025 222.729 84.321 223.527 83.7289C224.396 83.0674 224.81 82.083 225.183 81.1427C227.108 76.3016 229.043 71.4517 230.979 66.6107C231.714 64.7565 232.521 62.8145 234.26 61.5261C235.709 62.9452 235.057 65.5659 236.982 66.5151C238.968 63.8771 241.401 61.4652 244.185 59.3931C244.412 60.5339 244.65 61.6659 244.878 62.7977C245.002 63.4072 245.147 64.0431 245.613 64.5128C246.326 65.2538 247.734 65.2449 248.613 64.6879Z" fill="#E0BB86" fill-opacity="1.000000" fill-rule="nonzero"/>
	<path id="Vector" d="M181.959 246.524L181.949 246.524C180.945 246.411 179.931 246.289 178.937 246.167C178.316 246.098 177.695 246.019 177.084 245.941C177.084 245.662 177.095 245.383 177.116 245.096C177.147 244.374 177.188 243.633 177.24 242.885C179.247 243.851 181.172 245.532 181.773 246.228C181.773 246.237 181.783 246.245 181.793 246.254C181.908 246.393 181.97 246.49 181.959 246.524Z" fill="#B25109" fill-opacity="1.000000" fill-rule="nonzero"/>
	<path id="Vector" d="M366.601 135.248C366.24 135.466 365.877 135.675 365.504 135.858C364.915 135.884 364.314 135.901 363.725 135.901C363.28 135.919 362.824 135.919 362.379 135.91C359.989 135.858 357.608 135.719 355.239 135.44C352.879 135.135 350.53 134.752 348.212 134.238C345.893 133.716 343.616 133.098 341.35 132.392C339.104 131.695 336.869 130.93 334.644 130.085C333.526 129.676 332.439 129.214 331.321 128.77C330.597 128.465 329.893 128.178 329.148 127.847C328.682 128.361 328.268 128.909 327.885 129.493C327.13 130.512 326.737 131.678 326.147 132.967C325.681 131.687 325.526 130.25 325.95 128.884C326.167 128.083 326.519 127.299 327.016 126.576C327.357 126.054 327.761 125.566 328.217 125.131C328.776 124.591 329.376 124.095 330.049 123.668C330.701 123.25 331.415 122.885 332.15 122.597C333.64 122.023 335.234 121.657 336.89 121.744C337.025 121.744 337.118 121.84 337.097 121.944C337.097 121.997 337.066 122.04 337.014 122.083L337.004 122.083C335.234 123.215 333.588 124.216 332.108 125.287C332.491 125.601 332.905 125.914 333.309 126.201C334.178 126.845 335.11 127.429 336.051 127.995C337.956 129.109 339.974 130.11 342.074 130.964C346.297 132.67 350.799 133.846 355.404 134.585C357.712 134.925 360.051 135.16 362.4 135.248C363.083 135.265 363.786 135.282 364.48 135.282C365.184 135.283 365.898 135.274 366.601 135.248Z" fill="#A14944" fill-opacity="1.000000" fill-rule="nonzero"/>
	<path id="Vector" d="M24.8175 255.251C21.1249 262.165 15.4966 268.995 6.98465 271.48C10.4045 271.887 12.3738 275.819 10.3321 278.162C9.32803 279.315 7.71982 279.956 6.23273 280.647C4.43024 281.485 2.71765 282.458 1.12012 283.551C0.525879 283.958 -0.110229 284.505 0.0162354 285.141C0.10611 285.594 0.560913 285.924 0.992126 286.207C6.70203 289.951 13.5432 292.64 20.7585 293.137C27.9738 293.634 35.5532 291.773 40.7343 287.52C45.3259 283.751 47.7226 278.489 49.3521 273.269C51.035 267.876 52.0437 262.333 52.3545 256.764C52.631 251.822 52.2966 246.657 49.4954 242.307C46.8092 238.136 39.4667 233.156 34.351 236.881C29.3915 240.491 27.4641 250.294 24.8175 255.251Z" fill="#B25109" fill-opacity="1.000000" fill-rule="nonzero"/>
	<path id="Vector" d="M177.986 263.529C177.821 263.503 177.665 263.477 177.5 263.442C177.624 263.294 177.759 263.146 177.883 262.989C177.914 263.172 177.944 263.355 177.986 263.529Z" fill="#E0BB86" fill-opacity="1.000000" fill-rule="nonzero"/>
	<path id="Vector" d="M221.225 240.908C219.88 254.396 216.661 263.999 210.503 265.819C204.883 267.482 196.945 269.911 187.983 272.707C183.305 274.161 178.337 275.719 173.276 277.33C160.929 281.239 148.003 285.428 137.137 289.059C122.731 293.882 111.957 297.74 111.046 298.724C110.477 299.35 106.721 299.707 101.329 299.899C99.6937 299.951 97.9026 299.995 96.0088 300.021C77.8041 300.291 49.6333 299.333 49.6333 299.333C49.6333 299.333 19.9411 291.07 26.4197 242.502C32.8983 193.926 145.064 175.963 164.645 167.97C193.809 156.076 211.569 119.786 211.569 119.786C211.569 119.786 225.406 199.054 221.225 240.908Z" fill="#FF7D00" fill-opacity="1.000000" fill-rule="nonzero"/>
	<path id="Vector" d="M132.387 271.4C132.325 272.523 132.179 273.717 131.341 274.596C131.248 274.692 131.145 274.779 131.041 274.857C130.265 275.432 129.346 275.955 128.519 275.52C128.384 275.45 128.236 275.602 128.123 275.497C128.164 275.593 127.947 275.145 127.999 275.241C126.643 275.372 125.288 275.467 123.911 275.511C125.153 276.712 126.209 278.036 127.068 279.438C123.135 280.779 119.285 282.302 115.549 283.992C118.064 280.552 119.989 276.791 121.262 272.907C124.439 263.199 123.756 252.768 120.506 243.077C118.809 238.009 116.387 233.046 112.558 228.884C110.219 226.351 102.405 223.05 102.499 219.907C109.578 219.428 118.033 228.022 121.728 232.384C126.572 238.096 129.739 244.827 130.68 251.801C129.076 251.182 127.658 250.199 126.644 248.98C130.813 255.867 132.822 263.677 132.387 271.4Z" fill="#B25109" fill-opacity="1.000000" fill-rule="nonzero"/>
	<path id="Vector" d="M137.137 289.058C122.73 293.882 111.957 297.739 111.046 298.723C110.477 299.35 106.721 299.707 101.328 299.898C100.097 299.323 99.2997 297.939 99.9937 296.912C100.346 296.381 101.008 296.059 101.629 295.754C102.715 295.231 103.802 294.709 104.888 294.177C109.132 291.374 112.723 287.882 115.548 283.99C119.284 282.302 123.134 280.777 127.067 279.437C126.208 278.035 125.152 276.711 123.91 275.509C125.287 275.466 126.642 275.37 127.998 275.24C130.348 280.142 133.432 284.792 137.137 289.058Z" fill="#E0BB86" fill-opacity="1.000000" fill-rule="nonzero"/>
	<path id="Vector" d="M125.411 307.865C105.593 308.309 85.753 307.656 66.0377 305.897C65.6339 305.863 65.2408 305.828 64.8371 305.793C63.1915 305.645 61.4835 305.471 60.0452 304.783C57.7894 303.695 56.5263 301.309 57.0954 299.175C57.6546 297.033 59.9934 295.318 62.5912 295.144C56.5781 292.149 50.4515 289.075 45.9285 284.6C38.9014 277.634 36.6243 267.969 37.4319 258.861C38.6013 245.705 45.7838 233.803 56.713 224.495C66.0065 216.58 81.7062 215.362 94.1979 218.209C112.071 222.275 122.938 238.853 122.482 254.43C122.058 268.736 114.006 282.075 103.885 293.681C102.995 294.709 102.084 295.719 101.163 296.711C106.699 295.544 112.681 294.734 118.011 296.476C123.331 298.218 127.439 303.373 125.411 307.865Z" fill="#FF7D00" fill-opacity="1.000000" fill-rule="nonzero"/>
	<path id="Vector" d="M125.411 307.865C105.592 308.309 85.7529 307.656 66.0376 305.897C61.1634 301.526 64.485 297.591 64.485 297.591L67.1864 297.591L67.1864 291.087L70.6946 295.998L70.6946 291.087C70.6946 291.087 83.3828 295.318 94.9946 293.951C97.7478 293.629 100.811 293.577 103.884 293.681C102.995 294.709 102.083 295.719 101.162 296.711C106.699 295.544 112.681 294.734 118.011 296.476C123.331 298.218 127.439 303.373 125.411 307.865Z" fill="#FFDCA2" fill-opacity="1.000000" fill-rule="nonzero"/>
	<path id="Vector" d="M183.729 255.005C183.719 255.005 183.709 255.014 183.698 255.014C177.706 257.208 171.455 258.889 165.069 260.029C166.798 250.704 167.988 241.292 168.64 231.862C167.398 232.176 166.166 232.498 164.925 232.811C168.319 228.658 171.093 220.003 176.226 217.435C178.337 216.381 179.683 216.329 180.511 216.886C179.176 224.626 178.141 232.106 177.54 238.984C178.855 241.449 180.355 243.817 181.773 246.229C181.773 246.238 181.784 246.246 181.794 246.255C181.846 246.342 181.897 246.429 181.938 246.516L181.949 246.526C182.612 247.623 183.243 248.737 183.843 249.869C184.692 251.47 184.485 253.237 183.729 255.005Z" fill="#B25109" fill-opacity="1.000000" fill-rule="nonzero"/>
	<path id="Vector" d="M188.004 272.341C187.994 272.462 187.983 272.584 187.983 272.707C183.306 274.161 178.338 275.719 173.277 277.33C171.145 271.993 169.975 266.386 169.831 260.761C168.102 261.283 166.374 261.806 164.646 262.328C164.79 261.562 164.935 260.795 165.07 260.029C171.455 258.889 177.706 257.208 183.699 255.014C183.709 255.014 183.719 255.005 183.73 255.005C182.498 257.905 179.797 260.813 177.883 262.989C177.759 263.146 177.624 263.294 177.5 263.442C177.665 263.476 177.821 263.503 177.986 263.529C181.194 264.104 184.537 264.087 187.735 263.485C187.155 265.479 186.317 267.421 185.251 269.267C185.251 269.267 185.251 269.267 185.251 269.276C184.734 270.155 184.175 271.017 183.544 271.853C183.409 272.062 183.244 272.271 183.089 272.471C184.733 272.428 186.369 272.384 188.004 272.341Z" fill="#E0BB86" fill-opacity="1.000000" fill-rule="nonzero"/>
	<path id="Vector" d="M101.805 291.296C106.172 288.597 110.767 286.159 115.549 283.991C112.723 287.883 109.132 291.375 104.889 294.178C103.803 294.709 102.716 295.232 101.629 295.754C101.008 296.059 100.346 296.381 99.9944 296.912C99.3011 297.94 100.098 299.324 101.329 299.899C99.6942 299.951 97.9032 299.995 96.0093 300.021C95.9682 299.934 95.9369 299.847 95.9057 299.751C94.9115 296.373 98.4715 293.351 101.805 291.296Z" fill="#FFDCA2" fill-opacity="1.000000" fill-rule="nonzero"/>
	<path id="Vector" d="M169.831 260.76C169.975 266.385 171.145 271.992 173.277 277.33C160.93 281.239 148.004 285.427 137.138 289.058C133.433 284.792 130.348 280.142 128 275.24C128.072 275.231 128.144 275.223 128.217 275.214C129.169 275.118 130.101 274.996 131.042 274.857C142.726 273.115 153.707 268.318 164.305 263.616C162.452 262.737 160.59 261.857 158.737 260.978C160.859 260.725 162.97 260.412 165.071 260.029C164.936 260.795 164.791 261.562 164.646 262.328C166.374 261.805 168.102 261.283 169.831 260.76Z" fill="#FFDCA2" fill-opacity="1.000000" fill-rule="nonzero"/>
	<path id="Vector" d="M304.63 163.703C304.919 168.291 305.034 172.959 305.002 177.643C304.982 185.923 304.557 194.256 303.968 202.336C303.512 208.675 301.003 214.761 297.215 220.272C297.712 205.514 298.514 190.72 295.512 176.215C295.253 174.935 294.912 173.585 293.877 172.618C292.843 171.652 290.876 171.268 289.758 172.174C291.569 168.23 292.687 164.059 293.07 159.836C293.132 159.192 293.173 158.521 292.935 157.903C292.117 155.778 288.816 155.387 286.177 155.378C297.261 150.858 309.68 150.014 322.037 148.847C304.288 154.213 304.63 163.642 304.63 163.703Z" fill="#E0BB86" fill-opacity="1.000000" fill-rule="nonzero"/>
</svg>
