<svg width="232.000107" height="402.000061" viewBox="0 0 232 402" fill="none" xmlns="http://www.w3.org/2000/svg" xmlns:xlink="http://www.w3.org/1999/xlink">
	<desc>
			Created with Pixso.
	</desc>
	<defs/>
	<path id="Vector" d="M194.984 386.809C177.616 389.047 159.828 390.308 142.236 389.562C133.146 389.181 124.093 388.266 115.19 386.676C111.494 386.019 107.472 382.795 106.884 379.27C106.511 377.032 107.938 374.741 107.379 372.548C107.062 371.296 106.147 370.284 105.307 369.281C97.7011 360.232 94.0051 348.439 94.3968 336.85C94.7794 325.271 99.11 313.939 105.988 304.376C123.58 279.92 158.671 289.377 175.582 310.085C177.122 311.968 178.512 313.957 179.754 316.026C187.379 328.663 189.441 344.318 185.017 358.296C183.609 362.736 178.363 367.762 177.757 369.174C177.607 369.538 177.757 369.662 178.363 369.475C181.321 368.552 190.094 367.744 192.4 369.724C194.798 371.784 195.937 374.608 196.198 377.725C196.468 380.637 195.954 383.799 194.984 386.809Z" fill="#B25109" fill-opacity="1.000000" fill-rule="nonzero"/>
	<path id="Vector" d="M194.984 386.808C177.616 389.046 159.828 390.307 142.236 389.562C139.017 387.199 136.198 384.349 133.977 381.107C136.366 380.655 138.755 380.193 141.144 379.74C139.567 377.325 137.99 374.909 136.403 372.493C139.39 374.412 143.244 375.068 146.735 374.242C147.146 374.145 147.584 374.011 147.827 373.683C148.667 372.546 146.306 371.108 146.894 369.829C152.102 370.166 157.337 370.317 162.563 370.264C167.117 370.22 172.996 370.797 177.336 369.332C177.476 369.288 177.616 369.234 177.756 369.172C177.607 369.536 177.756 369.66 178.363 369.474C181.321 368.55 190.094 367.742 192.399 369.722C197.028 373.701 196.991 380.574 194.984 386.808Z" fill="#E0BB86" fill-opacity="1.000000" fill-rule="nonzero"/>
	<path id="Vector" d="M0.108047 353.208C-0.212418 355.128 0.129913 357.386 1.81485 358.485C3.04027 359.284 4.73158 359.3 5.84546 360.237C7.433 361.571 7.04828 364.046 6.07558 365.836C5.10216 367.627 3.653 369.28 3.43489 371.285C2.981 375.462 7.8643 378.243 12.1279 379.327C20.3697 381.423 29.2017 381.376 37.4175 379.191C38.5667 378.885 39.7583 378.507 40.5707 377.676C41.4721 376.754 41.7488 375.442 41.9557 374.198C43.4204 365.394 43.2389 356.344 41.4227 347.599C39.6954 339.284 33.8415 326.914 22.7973 330.126C14.3429 332.585 1.52122 344.748 0.108047 353.208Z" fill="#B25109" fill-opacity="1.000000" fill-rule="nonzero"/>
	<path id="Vector" d="M200.411 194.255C200.199 194.768 199.995 195.273 199.79 195.779C197.421 201.585 194.856 207.384 191.612 212.763C190.411 214.776 189.104 216.735 187.675 218.608C182.439 225.511 175.413 231.348 167.186 233.797C158.96 236.238 149.484 234.846 143.447 229.063C137.769 223.63 135.784 215.071 136.764 207.081C137.745 199.097 141.364 191.573 145.562 184.608C150.652 176.167 156.681 168.285 163.502 161.149C167.856 156.593 172.651 152.264 178.386 149.745C194.267 142.757 202.779 155.652 204.96 169.994C206.194 178.142 203.532 186.435 200.411 194.255Z" fill="#B25109" fill-opacity="1.000000" fill-rule="nonzero"/>
	<path id="Vector" d="M217.513 201.279C213.984 205.284 206.911 206.743 200.656 206.041C193.119 205.194 189.657 200.152 187.369 195.356C185.082 190.56 182.5 175.14 181.157 174.817C180.671 173.817 180.131 172.833 179.557 171.859C177.702 168.702 175.567 165.626 174.371 162.304C172.791 157.956 173.197 152.774 177.367 150.022C179.437 148.664 182.166 148.074 184.885 147.869C191.096 147.406 197.718 148.888 202.715 152.176C207.945 155.636 210.997 160.655 213.319 165.775C213.755 166.735 214.159 167.688 214.554 168.641C217.847 176.67 220.536 184.98 220.174 193.258C220.038 196.099 219.501 199.019 217.513 201.279Z" fill="#B25109" fill-opacity="1.000000" fill-rule="nonzero"/>
	<path id="Vector" d="M217.513 201.279C213.984 205.284 206.911 206.743 200.657 206.041C193.119 205.194 189.657 200.152 187.37 195.356C185.082 190.56 182.5 175.14 181.157 174.817C180.671 173.817 180.132 172.833 179.557 171.859C179.577 171.082 179.566 170.3 179.537 169.523C179.482 168.187 179.512 166.648 180.528 165.769C182.03 164.48 184.213 165.633 186.017 166.348C187.14 166.796 188.455 167.039 189.547 166.482C190.64 165.917 191.21 164.279 190.368 163.415C195.681 163.816 201.002 164.218 206.317 164.611C208.687 164.795 211.097 164.986 213.318 165.775C213.754 166.735 214.158 167.688 214.553 168.641C217.846 176.67 220.535 184.98 220.173 193.258C220.039 196.099 219.501 199.019 217.513 201.279Z" fill="#E0BB86" fill-opacity="1.000000" fill-rule="nonzero"/>
	<path id="Vector" d="M34.6037 253.488C35.0343 263.341 36.3762 273.156 36.4157 283.019C36.4284 286.185 36.3021 289.384 35.4458 292.444C34.2472 296.725 31.6863 300.521 29.4536 304.408C24.6867 312.704 21.2936 321.714 19.4371 331.003C16.7787 344.303 17.3837 358.501 23.3533 370.79C29.323 383.079 41.1564 393.148 55.1809 395.43C61.5875 396.472 68.1473 395.909 74.6195 395.345C84.6628 394.467 94.7054 393.59 104.749 392.713C109.612 392.288 114.745 391.769 118.673 389.009C122.082 386.612 124.091 382.863 125.979 379.252C129.375 372.76 132.77 366.268 136.166 359.776C140.215 352.035 144.278 344.261 147.097 336.041C149.88 327.926 151.415 319.48 152.94 311.068C154.546 302.218 156.154 293.344 156.686 284.376C157.529 270.165 155.656 255.932 153.169 241.897C150.685 227.879 147.584 213.961 143.877 200.19C141.035 189.63 137.022 178.126 127.079 172.713C119.252 168.452 109.3 168.953 101.517 164.621C91.3137 158.942 91.2848 148.655 84.4702 140.965C76.6059 132.089 67.3624 148.606 63.6812 153.959C50.815 172.664 41.8997 193.814 37.5331 215.776C35.066 228.187 34.0517 240.864 34.6037 253.488Z" fill="#FF7D00" fill-opacity="1.000000" fill-rule="nonzero"/>
	<path id="Vector" d="M126.1 381.947C128.499 384.007 129.637 386.831 129.898 389.948C119.119 392.878 107.734 393.42 96.5433 392.15C91.4567 391.582 86.4082 390.632 81.4805 389.371C86.3617 385.837 90.1036 381.104 93.7904 376.433C99.5765 369.089 105.447 361.541 110.608 353.682C113.445 349.357 116.067 344.935 118.335 340.406C118.438 340.202 118.541 340.006 118.634 339.802C121.733 349.757 121.873 360.564 118.718 370.518C117.309 374.958 112.064 379.984 111.457 381.396C111.308 381.76 111.457 381.885 112.064 381.699C115.022 380.775 123.795 379.966 126.1 381.947Z" fill="#FFDCA2" fill-opacity="1.000000" fill-rule="nonzero"/>
	<path id="Vector" d="M180.593 208.153C183.607 221.615 184.232 235.548 182.44 249.207C181.255 247.137 179.445 245.406 177.28 244.278C176.244 257.722 176.309 271.203 176.468 284.683C176.636 300.054 176.935 315.426 175.843 330.753C175.208 339.793 174.041 348.948 170.402 357.323C169.786 358.734 169.104 360.111 168.358 361.452C163.571 366.052 158.344 370.243 152.773 373.973C150.869 375.252 148.9 376.486 146.716 377.25C142.815 378.618 138.531 378.413 134.387 378.041C131.867 377.81 129.357 377.534 126.847 377.197C126.305 377.126 125.736 377.028 125.176 376.904C129.571 366.647 127.341 350.477 125.399 339.856C124.793 336.499 123.859 333.32 122.684 330.337C124.784 324.485 126.193 318.455 126.659 312.195C129.599 315.552 132.549 318.899 135.488 322.247C138.493 300.179 133.454 277.189 121.424 258.097C125.782 260.13 130.131 262.163 134.49 264.197C132.568 248.159 127.612 232.478 119.978 218.065C118.195 214.673 116.254 211.361 114.172 208.129C117.102 208.661 112.418 197.872 115.348 198.405C118.718 191.878 127.621 195.723 126.65 188.503C126.436 186.932 126.118 185.316 126.566 183.788C126.632 183.549 126.725 183.318 126.827 183.096C127.276 182.084 128.013 181.186 128.731 180.317C132.455 175.823 136.188 171.321 139.912 166.819C140.723 165.834 141.657 164.741 142.684 163.586C147.471 158.187 154.303 151.527 160.845 149.031C166.164 146.98 171.288 147.708 174.965 154.111C175.348 154.786 175.721 155.523 176.076 156.331C180.023 165.335 182.253 175.344 183.551 184.987C184.214 189.872 184.568 194.799 184.624 199.728C184.671 203.733 183.066 209.638 183.99 213.439C183.495 211.386 182.282 209.503 180.593 208.153Z" fill="#FFDCA2" fill-opacity="1.000000" fill-rule="nonzero"/>
	<path id="Vector" d="M162.991 51.1024C163.106 51.4778 163.172 51.8788 163.163 52.2664C163.166 52.5471 163.118 52.8259 163.039 53.0959C162.256 55.577 159.039 55.2197 156.652 54.6756C151.828 53.5848 146.833 53.114 141.875 53.2685C137.896 53.3954 132.881 55.2774 129.05 54.3693C128.521 54.2417 128 54.0832 127.479 53.8972C122.249 52.038 117.491 47.3015 113.735 42.7167C112.287 40.9456 110.987 39.202 109.874 37.6497C104.994 30.8788 100.881 23.5563 95.0775 17.4805C91.8403 14.088 88.061 11.0789 84.9791 7.59772C83.2518 5.65527 84.9713 2.70874 87.6247 3.06201C87.9558 3.10431 88.2777 3.14935 88.6087 3.19098C104.111 5.32751 119.584 9.18353 133.058 16.7712C143.591 22.6906 152.846 31.0843 158.661 41.2397C160.451 44.365 161.916 47.6608 162.991 51.1024Z" fill="#FF7D00" fill-opacity="1.000000" fill-rule="nonzero"/>
	<path id="Vector" d="M150.431 42.1651C144.174 44.3218 137.321 44.9081 130.752 43.8523C127.89 39.2011 125.623 34.1207 122.095 29.9214C117.88 24.9136 112.293 21.1342 106.563 17.7766C103.726 16.1216 100.489 14.0428 100.296 10.8853C112.69 11.6248 124.828 15.8932 134.747 23.0094C141.709 28.0018 147.557 34.3914 151.866 41.6029C151.404 41.8279 150.922 41.9952 150.431 42.1651Z" fill="#FFDCA2" fill-opacity="1.000000" fill-rule="nonzero"/>
	<path id="Vector" d="M156.48 51.1919C156.577 51.4606 156.677 51.738 156.756 52.012C151.687 51.828 146.606 51.9106 141.538 52.2518C139.15 51.5956 136.725 51.4391 135.071 49.6699C133.404 47.8954 132.019 45.9161 130.751 43.8514C137.319 44.9072 144.172 44.3209 150.43 42.1642C150.921 41.9943 151.404 41.827 151.865 41.6013C153.689 44.6587 155.242 47.8693 156.48 51.1919Z" fill="#E0BB86" fill-opacity="1.000000" fill-rule="nonzero"/>
	<path id="Vector" d="M141.539 52.252C136.828 52.5703 132.141 53.1158 127.479 53.8969C122.249 52.0377 117.491 47.3012 113.735 42.7165C115.18 42.2913 116.701 43.0335 118.068 43.6763C119.47 44.3358 121.225 44.8792 122.522 44.0423C122.833 43.8375 123.09 43.5654 123.398 43.3525C124.639 42.5244 126.33 42.92 127.801 43.2753C128.774 43.511 129.762 43.7051 130.752 43.8509C132.02 45.9156 133.405 47.895 135.071 49.6694C136.727 51.4399 139.151 51.5958 141.539 52.252Z" fill="#EA6A00" fill-opacity="1.000000" fill-rule="nonzero"/>
	<path id="Vector" d="M162.991 51.1027C163.106 51.4782 163.172 51.8792 163.164 52.2667C162.332 52.313 161.481 52.2533 160.654 52.2036C159.361 52.119 158.056 52.0572 156.756 52.0121C156.677 51.7375 156.577 51.4607 156.48 51.1921C155.242 47.8694 153.689 44.6588 151.865 41.6021C152.215 41.4503 152.556 41.273 152.875 41.0655C153.233 40.8264 153.576 40.5456 153.981 40.3851C154.916 39.9948 155.999 40.2608 156.955 40.5872C157.53 40.7847 158.102 41.0016 158.661 41.2408C160.451 44.3653 161.916 47.6611 162.991 51.1027Z" fill="#EA6A00" fill-opacity="1.000000" fill-rule="nonzero"/>
	<path id="Vector" d="M160.111 51.4722C160.208 52.0431 160.23 52.6208 160.045 53.1708C159.378 55.0797 156.649 55.437 154.613 54.9178C151.589 54.1461 149.11 52.2836 146.438 50.8181C145.953 50.5487 145.46 50.3264 144.956 50.1343C150.032 50.3203 155.093 50.7643 160.111 51.4722Z" fill="#FFDCA2" fill-opacity="1.000000" fill-rule="nonzero"/>
	<path id="Vector" d="M229.584 83.0592C229.354 85.1568 228.849 87.5499 228.001 90.2715C227.52 91.7948 226.93 93.4236 226.229 95.1484C223.342 102.23 220.141 108.06 216.351 112.659C214.227 114.434 211.986 116.081 209.697 117.646C205.605 120.444 201.213 123.306 196.449 124.883C196.46 124.89 196.473 124.906 196.484 124.912L196.375 124.936C195.305 125.184 194.193 125.376 193.054 125.538C188.628 126.16 184.157 125.862 179.986 125.091C168.873 123.05 159.938 117.674 159.938 117.674C159.938 117.674 161.288 120.671 163.889 124.664C164.431 125.495 165.018 126.361 165.662 127.261C166.428 128.316 167.262 129.412 168.175 130.518C170.037 132.767 172.202 135.043 174.659 137.093C178.868 140.605 183.931 143.443 189.786 144.372C191.417 144.631 193.116 144.74 194.87 144.674C195.23 144.66 195.589 144.638 195.946 144.607C197.073 144.52 198.223 144.365 199.399 144.122L202.754 149.401L203.578 150.699C202.821 151.18 201.983 151.56 201.093 151.841C200.828 151.934 200.559 152.01 200.29 152.086C198.841 152.47 197.308 152.662 195.832 152.732C191.915 152.917 188.083 152.61 184.434 151.745C180.343 150.793 176.462 149.149 172.876 146.732C173.006 147.159 173.134 147.577 173.257 148.015C173.275 148.093 173.305 148.178 173.323 148.256C171.453 147.227 170.141 146.489 169.997 146.411C170.18 146.818 173.368 153.535 176.936 162.055C177.069 162.618 177.201 163.173 177.316 163.74C176.133 164.075 174.968 164.652 173.901 165.237C172.51 165.99 171.117 166.771 169.733 167.55C168.635 168.168 167.529 168.788 166.433 169.414C158.05 174.17 149.62 179.01 140.668 182.131C137.309 183.297 133.883 184.223 130.362 184.824C129.166 185.026 127.96 185.184 126.746 185.308C117.998 186.182 109.195 184.438 101.335 180.78C100.758 180.886 100.182 181 99.6086 181.123C99.7208 180.79 99.8536 180.461 99.9863 180.132C86.4538 173.366 75.9311 160.886 73.6384 146.44C73.5205 145.7 73.421 144.957 73.3398 144.21C78.8542 133.16 83.302 118.333 81.6156 110.484C80.8596 106.969 81.281 100.589 82.9921 93.2308C84.521 86.6398 87.0813 79.2731 90.7343 72.4819C90.7533 72.4417 90.7815 72.3993 90.8006 72.3584C92.7764 68.7032 95.0712 65.2253 97.6943 62.123C98.0161 61.7441 98.3465 61.364 98.6797 60.9926C99.3312 60.2699 100.007 59.57 100.701 58.9023C103.442 56.2211 106.499 53.9811 109.861 52.3409C111.834 51.3811 113.915 50.6342 116.111 50.1359C119.326 49.4098 122.419 48.6925 125.402 48.043L126.832 47.7367C130.699 46.8985 134.394 46.1791 137.945 45.6633C141.225 45.1696 144.391 44.8452 147.458 44.7518C151.228 44.635 154.862 44.8667 158.414 45.5699C160.839 46.0327 163.222 46.7239 165.592 47.681C170.558 49.665 175.429 52.7809 180.345 57.3797C199.571 75.3405 194.671 76.7463 200.08 77.4885C200.326 77.5174 200.581 77.5449 200.849 77.5422C201.408 77.559 201.999 77.514 202.64 77.4314C205.5 77.064 209.11 75.7892 212.611 74.4922C216.312 73.116 219.881 71.7042 222.327 71.2891C225.187 70.8035 228.112 72.3241 229.24 76.4427C229.719 78.1783 229.883 80.3645 229.584 83.0592Z" fill="#FF7D00" fill-opacity="1.000000" fill-rule="nonzero"/>
	<path id="Vector" d="M177.077 67.5062C177.114 68.6044 177.285 69.7045 177.671 70.7396C178.519 73.0104 180.366 74.8454 182.48 76.1733C183.702 76.9417 185.069 77.5743 186.531 77.6718C187.993 77.7685 189.562 77.2452 190.39 76.0947C191.132 75.063 191.177 73.6888 190.818 72.4859C190.46 71.2829 189.742 70.2096 189.034 69.1565C187.237 66.4812 185.244 63.3446 182.217 61.779C178.481 59.8453 176.986 64.8283 177.077 67.5062Z" fill="#EA6A00" fill-opacity="1.000000" fill-rule="nonzero"/>
	<path id="Vector" d="M137.636 83.0177C136.939 86.7253 138.083 90.5866 140.1 93.8274C141.038 95.3326 142.222 96.782 143.871 97.5571C146.293 98.6956 149.326 98.1227 151.528 96.6329C153.73 95.1438 155.218 92.8756 156.333 90.5336C156.773 89.6107 157.164 88.6637 157.424 87.681C158.29 84.402 157.553 80.7307 155.307 78.1099C149.579 71.4236 139.143 74.9901 137.636 83.0177Z" fill="#EA6A00" fill-opacity="1.000000" fill-rule="nonzero"/>
	<path id="Vector" d="M156.187 79.1107C156.602 79.8663 156.879 80.6602 157.04 81.4521C157.037 81.4642 157.037 81.4642 157.041 81.4723C157.701 84.9407 155.955 88.5724 152.497 90.2891C148.236 92.4048 142.973 90.8311 140.749 86.777C140.011 85.431 139.701 83.9823 139.771 82.5751C139.771 82.5751 139.775 82.563 139.77 82.555C139.915 79.7085 141.606 77.0158 144.444 75.6067C148.705 73.491 153.964 75.0566 156.187 79.1107Z" fill="#E2E2E2" fill-opacity="1.000000" fill-rule="nonzero"/>
	<path id="Vector" d="M156.188 79.1107C156.602 79.8663 156.879 80.6602 157.04 81.4521C157.037 81.4642 157.037 81.4642 157.041 81.4723C156.897 84.3188 155.218 87.0155 152.372 88.4286C148.111 90.5444 142.847 88.9707 140.624 84.9165C140.209 84.1609 139.923 83.3711 139.771 82.5751C139.771 82.5751 139.775 82.563 139.77 82.555C139.915 79.7085 141.606 77.0158 144.444 75.6067C148.705 73.491 153.964 75.0566 156.188 79.1107Z" fill="#FFFFFF" fill-opacity="1.000000" fill-rule="nonzero"/>
	<path id="Vector" d="M156.98 81.7812C157.368 85.7141 154.332 89.2014 150.199 89.5703C146.065 89.9393 142.4 87.0502 142.013 83.1173C141.625 79.1845 144.661 75.6972 148.794 75.3283C152.928 74.9593 156.593 77.8484 156.98 81.7812Z" fill="#201600" fill-opacity="1.000000" fill-rule="evenodd"/>
	<path id="Vector" d="M152.165 77.3464C153.423 78.3096 154.033 79.575 153.526 80.1734C153.02 80.7719 151.59 80.4763 150.333 79.5132C149.075 78.55 148.466 77.284 148.972 76.6862C149.478 76.0877 150.908 76.3833 152.165 77.3464Z" fill="#FFFFFF" fill-opacity="1.000000" fill-rule="nonzero"/>
	<path id="Vector" d="M231.343 86.1052C231.325 90.8914 229.887 95.7314 227.479 99.9494C224.698 104.834 220.769 108.998 216.355 112.657C214.226 114.433 211.987 116.085 209.7 117.648C205.603 120.445 201.208 123.304 196.448 124.885C196.457 124.893 196.476 124.903 196.485 124.912C198.408 126.794 200.172 128.846 201.721 131.03C202.925 132.69 203.998 134.431 204.95 136.242C205.492 137.255 205.977 138.347 206.359 139.466C207.087 141.579 207.432 143.791 207.012 145.824C206.798 146.898 206.369 147.911 205.659 148.834C205.08 149.58 204.38 150.202 203.578 150.699C202.822 151.178 201.982 151.56 201.096 151.844C200.825 151.933 200.554 152.013 200.293 152.084C198.837 152.466 197.306 152.661 195.832 152.732C191.912 152.919 188.085 152.608 184.437 151.746C180.34 150.796 176.457 149.153 172.874 146.729C172.958 147.004 173.042 147.28 173.116 147.555C173.172 147.706 173.21 147.857 173.256 148.017C173.275 148.097 173.303 148.177 173.322 148.257C173.892 150.193 174.442 152.138 174.964 154.109C175.665 156.737 176.318 159.384 176.934 162.057C177.064 162.616 177.204 163.176 177.316 163.744C176.131 164.073 174.965 164.65 173.901 165.236C172.51 165.991 171.12 166.772 169.729 167.554C168.637 168.166 167.498 168.744 166.435 169.419C166.015 169.686 165.595 169.943 165.184 170.191C135.096 188.884 136.151 183.929 126.743 185.306C126.781 184.551 126.809 183.814 126.827 183.095C127.219 170.361 125.483 162.395 119.436 162.475C116.524 162.502 113.836 163.549 111.307 164.97C111.298 164.97 111.289 164.97 111.298 164.979C109.553 165.965 107.891 167.119 106.295 168.264C106.417 164.313 106.557 160.352 106.678 156.4C103.916 158.416 100.602 159.757 97.1492 160.254C99.3241 155.424 101.106 150.424 102.497 145.327C99.7907 145.566 97.0561 145.495 94.3681 145.122C94.3772 145.114 94.3772 145.114 94.3772 145.114L107.928 139.821C101.983 140.043 96.6078 141.89 91.829 144.67C91.6801 144.643 91.5212 144.608 91.3716 144.572C105.828 131.306 126.593 126.688 143.905 117.018C147.694 114.904 151.362 112.516 154.348 109.47C161.104 102.596 163.914 92.4289 161.608 83.2823C160.629 79.4457 158.827 75.8409 156.681 72.4571C150.801 63.2306 142.084 55.7537 132.014 50.8337C131.641 50.647 131.267 50.4697 130.895 50.3099C130.577 50.1588 130.269 50.017 129.962 49.8746C128.468 49.2083 126.947 48.5958 125.398 48.045L126.826 47.7341C130.699 46.8992 134.395 46.1798 137.942 45.6647C141.227 45.1677 144.391 44.848 147.461 44.7499C151.027 46.6151 154.414 48.7637 157.634 51.1434C158.464 51.7472 159.276 52.3779 160.079 53.0079C160.797 53.5761 161.507 54.1538 162.207 54.7482C165.1 57.1816 167.834 59.7829 170.429 62.5005C172.865 65.04 175.161 67.6863 177.531 70.2796C179.136 72.0468 180.77 73.7783 182.487 75.4568C183.103 76.0518 183.747 76.6469 184.419 77.1796C184.437 77.1796 184.447 77.1796 184.447 77.1796C185.193 77.7659 186.006 78.2717 186.911 78.6183C187.125 78.6982 187.349 78.7694 187.564 78.8312C189.169 79.2933 190.905 79.2664 192.585 79.1153C195.394 78.858 198.128 78.2535 200.844 77.5436C201.843 77.2863 202.823 77.011 203.813 76.7356C206.118 76.0874 208.423 75.4211 210.737 74.8704C211.353 74.728 211.979 74.595 212.613 74.4889C212.967 74.4271 213.331 74.3734 213.686 74.3203C213.9 74.2847 214.125 74.2585 214.339 74.2317C215.767 74.0449 217.205 73.9475 218.661 73.965C219.127 73.965 219.613 73.9825 220.07 74.0006C221.162 74.0718 222.225 74.1873 223.289 74.3734C225.324 74.7199 227.293 75.3238 229.141 76.2117C229.178 76.2829 229.216 76.3628 229.244 76.4427C230.186 78.3785 230.794 80.421 231.101 82.5078C231.288 83.6987 231.362 84.8976 231.343 86.1052Z" fill="#FFDCA2" fill-opacity="1.000000" fill-rule="nonzero"/>
	<path id="Vector" d="M107.929 139.821L94.3781 145.114C94.3781 145.114 94.3781 145.114 94.3689 145.123C93.5198 145.007 92.6706 144.856 91.8306 144.67C96.6087 141.891 101.984 140.044 107.929 139.821Z" fill="#E0BB86" fill-opacity="1.000000" fill-rule="nonzero"/>
	<path id="Vector" d="M94.369 145.122C93.8184 145.602 76.1423 160.92 63.8882 179.515C63.8882 179.515 73.5758 155.272 91.8299 144.669C92.6699 144.855 93.5191 145.007 94.369 145.122Z" fill="#EA6A00" fill-opacity="1.000000" fill-rule="nonzero"/>
	<path id="Vector" d="M114.172 208.127C116.253 211.36 118.195 214.672 119.978 218.064C119.81 218.073 119.651 218.099 119.483 218.135C118.223 218.402 117.252 219.343 116.347 220.222C111.494 224.999 111.886 230.54 104.271 236.446C74.2576 259.756 54.5747 227.681 55.0413 225.719C55.4239 224.103 58.7931 224.067 60.1088 222.992C67.323 217.123 76.2079 213.437 83.9726 208.233C100.491 197.169 117.103 208.66 114.172 208.127Z" fill="#B25109" fill-opacity="1.000000" fill-rule="nonzero"/>
	<path id="Vector" d="M138.605 218.482C133.696 220.4 128.097 219.92 122.992 218.544C122.002 218.286 120.985 217.976 119.978 218.064C118.195 214.673 116.254 211.36 114.172 208.128C117.102 208.661 112.418 197.871 115.348 198.404C118.718 191.877 127.621 195.722 126.65 188.503C126.436 186.931 126.118 185.315 126.566 183.788C126.632 183.548 126.725 183.317 126.827 183.095C127.276 182.083 128.013 181.186 128.731 180.316C132.455 175.822 136.188 171.32 139.912 166.818C140.723 165.833 138.811 161.528 139.838 160.374C144.998 169.183 150.933 182.305 151.428 192.384C151.932 202.622 148.563 214.583 138.605 218.482Z" fill="#E0BB86" fill-opacity="1.000000" fill-rule="nonzero"/>
	<path id="Vector" d="M231.1 82.5104C231.988 88.4008 230.496 94.6647 227.482 99.9534C224.698 104.838 220.776 109.001 216.353 112.662C214.229 114.438 211.987 116.084 209.698 117.649C205.606 120.447 201.214 123.31 196.45 124.887C196.462 124.893 196.474 124.909 196.486 124.916C198.414 126.796 200.172 128.849 201.722 131.03C199.491 131.909 197.206 132.644 194.875 133.226C188.551 134.8 181.791 135.258 175.486 133.597C170.228 132.203 163.488 128.624 161.307 123.539C166.201 126.067 171.155 126.461 176.651 125.674C191.599 123.515 205.613 115.913 215.178 104.759C218.238 101.199 220.88 97.2466 222.328 92.858C222.783 91.5046 223.113 90.1136 223.758 88.8374C224.65 87.071 226.085 85.6168 227.651 84.3521C228.665 83.5421 229.841 82.771 231.1 82.5104Z" fill="#E0BB86" fill-opacity="1.000000" fill-rule="nonzero"/>
	<path id="Vector" d="M125.092 192.907C124.849 193.493 124.616 194.07 124.382 194.647C121.676 201.281 118.746 207.905 115.041 214.05C113.669 216.35 112.176 218.588 110.542 220.728C104.56 228.613 96.5339 235.283 87.1357 238.08C77.7376 240.868 66.9122 239.278 60.015 232.671C53.5286 226.464 51.2613 216.687 52.3808 207.559C53.5011 198.439 57.6354 189.843 62.4319 181.886C68.2463 172.242 75.1336 163.237 82.9265 155.085C87.9009 149.881 93.3793 144.935 99.9306 142.059C118.073 134.075 127.798 148.807 130.29 165.191C131.699 174.498 128.657 183.973 125.092 192.907Z" fill="#FF7D00" fill-opacity="1.000000" fill-rule="nonzero"/>
	<path id="Vector" d="M218.66 73.9722C218.586 74.0246 218.501 74.0702 218.425 74.1139C216.643 75.1147 214.672 75.7561 212.746 76.4694C208.772 77.9497 204.929 79.7383 201.273 81.8333C199.615 82.7897 197.98 83.8046 196.213 84.5844C193.796 85.6489 191.184 86.2541 188.594 86.8284C183.604 87.9346 178.613 88.9958 173.598 89.9986C173.014 90.1148 170.565 90.9678 170.135 90.4043C169.58 89.6769 171.421 88.5626 171.905 88.1858C173.664 86.8076 175.498 85.5039 177.382 84.2895C180.612 82.2134 184.017 80.3905 187.562 78.839C189.172 79.295 190.907 79.2689 192.583 79.1184C195.393 78.8618 198.129 78.2567 200.85 77.5461C204.147 76.6843 207.426 75.6627 210.742 74.8789C211.359 74.7372 211.978 74.6049 212.612 74.4961C214.596 74.1428 216.627 73.9534 218.66 73.9722Z" fill="#E0BB86" fill-opacity="1.000000" fill-rule="nonzero"/>
	<path id="Vector" d="M187.447 65.729C187.944 66.3711 188.359 67.0394 188.695 67.7017C188.696 67.7118 188.696 67.7118 188.701 67.7178C190.142 70.6174 190.006 73.5612 188.163 74.8528C185.891 76.4447 181.883 74.9415 179.217 71.4972C178.332 70.3534 177.706 69.1411 177.35 67.9777C177.35 67.9777 177.349 67.9683 177.344 67.9616C176.625 65.6081 176.995 63.44 178.507 62.3801C180.778 60.7876 184.781 62.2848 187.447 65.729Z" fill="#E2E2E2" fill-opacity="1.000000" fill-rule="nonzero"/>
	<path id="Vector" d="M187.447 65.729C187.944 66.3711 188.359 67.0394 188.695 67.7016C188.696 67.7117 188.696 67.7117 188.701 67.7177C189.42 70.0712 189.06 72.2427 187.542 73.3059C185.271 74.8978 181.263 73.3946 178.597 69.9503C178.1 69.3082 177.68 68.6426 177.349 67.9777C177.349 67.9777 177.348 67.9683 177.343 67.9615C176.624 65.6081 176.994 63.4399 178.506 62.3801C180.778 60.7876 184.78 62.2847 187.447 65.729Z" fill="#FFFFFF" fill-opacity="1.000000" fill-rule="nonzero"/>
	<path id="Vector" d="M187.447 65.7329C189.75 68.7084 190.026 72.2346 188.065 73.6101C186.102 74.985 182.645 73.688 180.342 70.7133C178.038 67.7378 177.762 64.2116 179.724 62.8361C181.686 61.4612 185.144 62.7581 187.447 65.7329Z" fill="#201600" fill-opacity="1.000000" fill-rule="nonzero"/>
	<path id="Vector" d="M184.223 64.1147C185.35 64.9604 186.125 66.033 185.955 66.5092C185.785 66.9861 184.734 66.6865 183.607 65.8409C182.48 64.9953 181.705 63.9233 181.875 63.4464C182.046 62.9696 183.097 63.2684 184.223 64.1147Z" fill="#FFFFFF" fill-opacity="1.000000" fill-rule="nonzero"/>
	<path id="Vector" d="M217.15 71.5107C221.197 70.4112 226.057 69.8429 229.17 72.5396C231.939 74.9395 232.177 78.9661 231.922 82.5225C231.742 85.0459 231.284 87.8051 229.277 89.4641C228.254 90.3097 226.94 90.7617 225.632 91.1023C217.895 93.1166 209.42 91.7162 202.359 88.0939C188.202 80.8313 211.272 73.1079 217.15 71.5107Z" fill="#201600" fill-opacity="1.000000" fill-rule="nonzero"/>
	<path id="Vector" d="M131.493 76.5801C120.768 73.5966 139.879 57.233 144.189 64.7032C146.383 68.5034 135.787 77.775 131.493 76.5801Z" fill="#FFDCA2" fill-opacity="1.000000" fill-rule="nonzero"/>
	<path id="Vector" d="M173.142 54.8195C174.495 54.5508 175.985 54.3788 177.301 55.3521C177.876 55.7779 178.435 56.5752 178.358 57.3637C178.307 57.8849 177.993 58.2368 177.674 58.5049C176.068 59.8509 173.98 60.0248 172.016 60.4211C171.431 60.5393 170.842 60.6797 170.229 60.5856C169.615 60.4916 168.961 60.1229 168.556 59.4337C166.657 56.1977 171.907 55.0639 173.142 54.8195Z" fill="#FFDCA2" fill-opacity="1.000000" fill-rule="nonzero"/>
	<path id="Vector" d="M207.016 145.824C205.283 149.455 199.321 151.826 188.97 149.367C187.057 148.921 184.996 148.298 182.787 147.497C168.603 142.338 160.279 122.421 160.279 122.421C166.014 130.722 176.703 130.169 184.313 128.409C184.843 128.287 196.416 124.913 196.451 124.887C203.841 130.32 209.075 141.514 207.016 145.824Z" fill="#A14944" fill-opacity="1.000000" fill-rule="nonzero"/>
	<path id="Vector" d="M189.807 143.57C189.793 145.53 189.519 147.482 188.97 149.366C187.057 148.92 184.996 148.297 182.787 147.496C168.603 142.337 160.279 122.42 160.279 122.42C166.014 130.721 176.703 130.168 184.313 128.408C185.264 129.397 186.032 130.78 186.621 131.772C188.732 135.353 189.84 139.467 189.807 143.57Z" fill="#8C312F" fill-opacity="1.000000" fill-rule="nonzero"/>
	<path id="Vector" d="M223.575 177.128C223.479 183.993 218.489 190.107 211.355 191.209C206.189 192.016 200.813 189.956 199.101 179.217C195.485 156.598 176.238 145.415 170.806 138.879C170.806 138.879 179.061 134.15 184.718 135.896C184.718 135.896 185.534 134.574 187.954 133.527C188.256 133.389 188.581 133.265 188.935 133.143C193.634 131.535 198.894 132.701 202.574 135.917C209.955 142.363 223.856 157.187 223.575 177.128Z" fill="#D5584D" fill-opacity="1.000000" fill-rule="nonzero"/>
	<path id="Vector" d="M81.2819 91.4482C72.3129 88.5977 65.9769 80.7473 62.4856 72.3858C58.9943 64.0244 57.8331 54.9811 55.8073 46.1925C52.7487 32.9239 47.6932 20.1624 43.376 7.21484C42.9454 5.92255 42.5183 4.5423 42.8875 3.23322C43.4021 1.40833 45.3941 0.230225 47.3698 0.0368042C49.3456 -0.156616 51.3066 0.442505 53.1574 1.12823C64.6718 5.396 74.3417 13.208 83.0205 21.5782C91.6993 29.9484 99.6518 39.0333 109.025 46.6969C111.499 48.72 114.093 50.6657 116.045 53.1529C117.996 55.64 119.259 58.8062 118.632 61.8522C118.147 64.2023 116.616 66.2153 115.124 68.1443C112.166 71.9694 109.208 75.7938 106.25 79.6189C99.5523 88.2773 93.548 95.3471 81.2819 91.4482Z" fill="#FF7D00" fill-opacity="1.000000" fill-rule="nonzero"/>
	<path id="Vector" d="M107.57 61.6449C107.539 61.878 107.472 62.1137 107.375 62.334C106.973 63.2763 106.054 64.038 105.002 63.9628C103.685 63.86 102.826 62.553 102.581 61.3225C101.527 61.5052 100.907 62.5328 100.43 63.453C98.809 66.6091 97.1791 69.7652 95.5591 72.9301C94.8561 71.1771 94.2815 69.3891 93.8255 67.5669C92.3163 70.9829 90.9906 74.4756 89.8845 78.026C89.2506 80.051 88.7615 85.3329 85.3267 84.5014C84.8226 84.3819 84.3264 84.1112 83.8337 83.7512C81.7902 82.2258 79.8991 79.0086 78.8685 77.3926C77.1448 74.6898 75.7993 71.7849 74.72 68.8101C72.6567 63.1474 71.5393 57.2294 70.2751 51.3557C68.3833 42.5409 66.1774 33.7899 63.6412 25.1228C62.7405 22.0204 61.7805 18.8777 61.7783 15.6564C61.7755 14.5529 62.1539 13.1498 63.3024 12.9872C63.9786 12.8906 64.6047 13.2869 65.1468 13.6797C72.0694 18.6144 77.5061 25.1658 82.6661 31.7702C85.6584 35.6115 88.6373 39.5332 92.5175 42.5704C94.1311 43.8386 95.9015 44.936 97.4198 46.3076C98.569 47.356 99.5601 48.5475 100.551 49.7303C102.777 52.3921 105.014 55.0707 106.639 58.1006C107.23 59.2014 107.746 60.4231 107.57 61.6449Z" fill="#FFDCA2" fill-opacity="1.000000" fill-rule="nonzero"/>
	<path id="Vector" d="M201.717 153.342C201.207 153.451 200.799 152.938 200.543 152.501C197.234 146.894 192.813 141.879 187.574 137.814C186.87 137.264 186.139 136.766 185.363 136.313C185.086 136.154 184.873 136.026 184.719 135.896C184.719 135.896 185.535 134.574 187.955 133.527C187.953 134.083 188.057 134.643 188.257 135.165C188.696 136.29 189.48 137.26 190.283 138.189C194.159 142.719 198.543 146.968 201.283 152.197C201.476 152.565 201.659 152.935 201.717 153.342Z" fill="#C63F38" fill-opacity="1.000000" fill-rule="nonzero"/>
	<path id="Vector" d="M222.647 72.1744C223.976 71.9574 225.693 71.9534 226.264 73.1161C224.047 74.3425 221.501 74.8906 219.083 75.7046C216.666 76.5186 214.232 77.7102 212.864 79.7742C212.549 80.2491 212.291 80.7864 212.308 81.3472C212.353 82.9693 214.583 84.1541 214.196 85.7338C214.011 86.4867 213.236 87.006 212.438 87.1544C211.641 87.3035 210.818 87.1537 210.023 86.9911C208.104 86.5996 206.144 86.1093 204.574 84.9896C203.171 83.9902 201.421 81.7112 202.7 80.1537C203.922 78.668 206.617 77.4254 208.34 76.5422C212.775 74.2693 217.704 72.9804 222.647 72.1744Z" fill="#595651" fill-opacity="1.000000" fill-rule="nonzero"/>
	<path id="Vector" d="M221.441 72.3831C221.801 72.3394 222.308 72.4146 222.317 72.7605C222.323 73.0023 222.058 73.1581 221.828 73.2602C220.794 73.719 213.282 76.953 212.931 75.9576C212.197 73.8809 220.203 72.5335 221.441 72.3831Z" fill="#FFFFFF" fill-opacity="1.000000" fill-rule="nonzero"/>
	<path id="Vector" d="M107.375 62.3331C106.973 63.2755 106.054 64.0371 105.002 63.9619C103.685 63.8591 102.826 62.5521 102.58 61.3216C101.527 61.5043 100.907 62.532 100.43 63.4521C98.8088 66.6082 97.1789 69.7643 95.5589 72.9292C94.8558 71.1762 94.2813 69.3882 93.8253 67.566C92.3161 70.9821 90.9904 74.4747 89.8843 78.0251C89.2504 80.0501 88.7613 85.332 85.3264 84.5005C84.8224 84.381 84.3262 84.1103 83.8335 83.7503C84.5302 83.5548 85.4923 83.796 86.1671 83.1478C86.9019 82.4244 87.2041 81.3995 87.4723 80.4216C88.858 75.3848 90.2521 70.3386 91.6469 65.3018C92.1756 63.3729 92.7629 61.3505 94.2347 59.9393C95.6401 61.3008 95.2405 64.0049 97.0406 64.8606C98.6394 62.0618 100.655 59.4685 103.012 57.2003C103.298 58.3482 103.593 59.486 103.879 60.6251C104.034 61.2383 104.21 61.8764 104.663 62.3284C105.357 63.0404 106.623 62.951 107.375 62.3331Z" fill="#E0BB86" fill-opacity="1.000000" fill-rule="nonzero"/>
	<path id="Vector" d="M125.092 192.907C124.849 193.492 124.616 194.07 124.382 194.647C121.676 201.28 116.174 215.252 109.588 221.952C109.588 221.952 110.652 217.04 110.606 213.297C110.563 209.911 108.434 206.821 107.118 203.677C104.524 197.47 102.088 191.183 100.342 184.7C99.1753 180.358 93.6136 159.534 101.116 157.669C105.578 156.559 110.066 163.61 111.859 166.505C114.528 170.839 116.347 175.581 118.606 180.11C120.743 184.39 123.29 188.502 125.092 192.907Z" fill="#EA6A00" fill-opacity="1.000000" fill-rule="nonzero"/>
	<path id="Vector" d="M144.629 200.931C140.598 205.506 132.518 207.174 125.373 206.372C116.762 205.404 112.807 199.644 110.193 194.164C107.58 188.685 104.631 171.07 103.096 170.701C102.541 169.557 101.925 168.433 101.268 167.321C99.149 163.714 96.7102 160.2 95.3429 156.405C93.5387 151.438 94.0018 145.519 98.7658 142.374C101.13 140.822 104.248 140.149 107.354 139.915C114.45 139.386 122.015 141.079 127.723 144.836C133.699 148.788 137.185 154.522 139.838 160.372C140.336 161.468 140.797 162.557 141.249 163.646C145.011 172.818 148.083 182.311 147.669 191.768C147.515 195.013 146.9 198.349 144.629 200.931Z" fill="#FF7D00" fill-opacity="1.000000" fill-rule="nonzero"/>
	<path id="Vector" d="M144.629 200.931C140.598 205.506 132.518 207.174 125.373 206.372C116.762 205.404 112.807 199.644 110.193 194.164C107.58 188.685 104.631 171.07 103.096 170.701C102.541 169.557 101.925 168.433 101.268 167.321C101.292 166.434 101.279 165.54 101.246 164.652C101.183 163.127 101.217 161.369 102.378 160.364C104.094 158.891 106.587 160.209 108.648 161.026C109.93 161.537 111.434 161.815 112.681 161.179C113.93 160.534 114.58 158.662 113.619 157.675C119.689 158.133 125.768 158.593 131.84 159.041C134.547 159.251 137.3 159.47 139.838 160.372C140.337 161.468 140.798 162.557 141.25 163.646C145.012 172.818 148.084 182.312 147.67 191.768C147.515 195.013 146.9 198.349 144.629 200.931Z" fill="#FFDCA2" fill-opacity="1.000000" fill-rule="nonzero"/>
	<path id="Vector" d="M180.593 208.154C183.607 221.616 184.232 235.549 182.44 249.207C181.255 247.137 179.445 245.406 177.28 244.278C176.244 257.723 176.309 271.203 176.468 284.683C175.815 283.28 175.469 281.717 175.171 280.19C172.557 267.118 171.568 253.763 172.221 240.469C170.355 241.091 168.563 241.952 166.939 243.027C176.906 221.643 173.873 197.063 170.654 173.868C169.73 176.923 167.714 179.658 165.016 181.541C165.362 177.766 165.418 173.975 165.184 170.191C164.746 162.999 163.271 155.859 160.845 149.03C158.605 142.752 155.563 136.74 151.745 131.19C156.281 137.797 166.37 142.193 173.117 147.557C173.173 147.708 173.21 147.858 173.257 148.019C173.275 148.099 173.303 148.179 173.323 148.259C173.892 150.194 174.443 152.139 174.965 154.111C175.348 154.786 175.721 155.522 176.076 156.33C180.023 165.335 182.253 175.343 183.551 184.987C184.214 189.871 184.568 194.799 184.624 199.728C184.671 203.733 183.066 209.638 183.99 213.439C183.495 211.386 182.282 209.504 180.593 208.154Z" fill="#E0BB86" fill-opacity="1.000000" fill-rule="nonzero"/>
	<path id="Vector" d="M128.685 399.032C111.316 401.27 93.5287 402.531 75.9367 401.785C66.8463 401.404 57.7941 400.489 48.8908 398.899C45.1947 398.242 41.1726 395.018 40.5846 391.493C40.2112 389.255 41.6392 386.964 41.0794 384.771C40.7625 383.519 39.8476 382.507 39.0076 381.504C31.4017 372.455 27.7057 360.662 28.0975 349.073C28.4801 337.494 32.8107 326.162 39.6888 316.599C57.2809 292.143 92.3718 301.6 109.283 322.309C110.823 324.191 112.213 326.181 113.454 328.249C121.079 340.886 123.142 356.542 118.718 370.519C117.309 374.959 112.064 379.985 111.457 381.397C111.308 381.761 111.457 381.885 112.064 381.699C115.022 380.776 123.795 379.968 126.1 381.948C128.499 384.008 129.637 386.832 129.899 389.949C130.168 392.861 129.655 396.022 128.685 399.032Z" fill="#FF7D00" fill-opacity="1.000000" fill-rule="nonzero"/>
	<path id="Vector" d="M128.685 399.032C111.316 401.27 93.5288 402.53 75.9368 401.785C72.7172 399.423 69.8987 396.572 67.6772 393.331C70.0667 392.878 72.4554 392.416 74.8448 391.963C73.2678 389.548 71.6902 387.133 70.1041 384.717C73.0907 386.636 76.9448 387.293 80.4354 386.466C80.8462 386.369 81.2845 386.235 81.5274 385.907C82.3674 384.77 80.0062 383.332 80.5942 382.053C85.8022 382.39 91.0377 382.541 96.2634 382.488C100.818 382.444 106.697 383.021 111.037 381.556C111.177 381.512 111.317 381.458 111.457 381.396C111.307 381.76 111.457 381.884 112.063 381.698C115.022 380.775 123.794 379.967 126.1 381.947C130.728 385.925 130.691 392.798 128.685 399.032Z" fill="#FFDCA2" fill-opacity="1.000000" fill-rule="nonzero"/>
	<path id="Vector" d="M168.358 361.451C161.059 374.612 147.63 384.433 132.707 389.122C131.774 389.414 130.84 389.69 129.897 389.948C129.636 386.831 128.498 384.007 126.099 381.947C123.794 379.967 115.021 380.775 112.063 381.698C111.456 381.885 111.307 381.761 111.456 381.396C112.063 379.984 117.308 374.958 118.717 370.518C121.872 360.563 121.732 349.756 118.633 339.802C120.163 336.703 121.526 333.541 122.683 330.335C123.859 333.319 124.792 336.498 125.399 339.855C127.34 350.476 129.571 366.646 125.175 376.903C125.735 377.027 126.304 377.125 126.846 377.196C129.357 377.534 131.867 377.808 134.387 378.039C138.53 378.412 142.814 378.616 146.715 377.249C148.899 376.485 150.868 375.251 152.772 373.972C158.344 370.243 163.57 366.052 168.358 361.451Z" fill="#E0BB86" fill-opacity="1.000000" fill-rule="nonzero"/>
	<path id="Vector" d="M122.684 330.336C121.526 333.541 120.164 336.703 118.634 339.802C117.383 335.771 115.647 331.89 113.454 328.249C109.067 320.425 102.88 313.126 96.627 307.043C93.9015 304.388 85.3808 294.842 81.3213 294.842C85.4091 293.599 89.8138 295.401 93.4258 297.604C101.937 302.771 116.114 313.668 122.684 330.336Z" fill="#B25109" fill-opacity="1.000000" fill-rule="nonzero"/>
	<path id="Vector" d="M217.308 174.448C216.765 176.385 215.958 178.318 214.489 179.754C213.239 180.976 211.566 181.779 210.446 183.11C209.326 184.441 209.034 186.703 210.52 187.655C211.427 188.236 212.648 188.102 213.678 187.752C218.015 186.278 220.345 181.745 221.164 177.433C221.605 175.104 221.728 172.723 221.545 170.363C221.427 168.851 221.401 164.779 219.882 163.897C217.547 162.541 218.221 165.631 218.252 166.785C218.322 169.365 218.007 171.956 217.308 174.448Z" fill="#E57873" fill-opacity="1.000000" fill-rule="nonzero"/>
	<path id="Vector" d="M219.179 175.14C218.899 176.139 218.512 177.171 218.741 178.182C218.79 178.4 218.951 178.66 219.179 178.611C219.244 178.597 219.301 178.557 219.353 178.517C220.686 177.514 221.258 175.823 221.327 174.207C221.354 173.605 221.376 171.65 220.31 172.154C219.37 172.599 219.402 174.338 219.179 175.14Z" fill="#FFFFFF" fill-opacity="1.000000" fill-rule="nonzero"/>
</svg>
