<svg width="16.000000" height="12.000000" viewBox="0 0 16 12" fill="none" xmlns="http://www.w3.org/2000/svg" xmlns:xlink="http://www.w3.org/1999/xlink">
	<desc>
			Created with Pixso.
	</desc>
	<defs/>
	<path id="Shape" d="M8 0C6.04352 0 4.30975 1.03931 3.00598 2.14697C1.68958 3.2655 0.715576 4.5354 0.265503 5.1698C-0.088501 5.66882 -0.088501 6.33118 0.265503 6.8302C0.715576 7.4646 1.68958 8.7345 3.00598 9.85303C4.30975 10.9607 6.04352 12 8 12C9.95648 12 11.6902 10.9607 12.994 9.85303C14.3104 8.7345 15.2844 7.4646 15.7345 6.8302C16.0885 6.33118 16.0885 5.66882 15.7345 5.1698C15.2844 4.5354 14.3104 3.2655 12.994 2.14697C11.6902 1.03931 9.95648 0 8 0ZM3.95691 8.70349C2.80322 7.72327 1.92706 6.59753 1.49957 6C1.92706 5.40247 2.80322 4.27673 3.95691 3.29651C5.15308 2.28015 6.55383 1.5 8 1.5C9.44617 1.5 10.8469 2.28015 12.0431 3.29651C13.1968 4.27673 14.0729 5.40247 14.5004 6C14.0729 6.59753 13.1968 7.72327 12.0431 8.70349C10.8469 9.71985 9.44617 10.5 8 10.5C6.55383 10.5 5.15308 9.71985 3.95691 8.70349ZM10.9602 6C10.9602 7.65686 9.63489 9 8 9C6.36511 9 5.03979 7.65686 5.03979 6C5.03979 4.34314 6.36511 3 8 3C9.63489 3 10.9602 4.34314 10.9602 6ZM9.4801 6C9.4801 6.82837 8.81744 7.5 8 7.5C7.18256 7.5 6.5199 6.82837 6.5199 6C6.5199 5.17163 7.18256 4.5 8 4.5C8.81744 4.5 9.4801 5.17163 9.4801 6Z" fill="#64748B" fill-opacity="1.000000" fill-rule="evenodd"/>
</svg>
