<svg width="35.000000" height="37.000000" viewBox="0 0 35 37" fill="none" xmlns="http://www.w3.org/2000/svg" xmlns:xlink="http://www.w3.org/1999/xlink">
	<desc>
			Created with Pixso.
	</desc>
	<defs>
		<clipPath id="clip3_4209">
			<rect id="Property 1=poland" width="35.000000" height="37.000000" fill="white" fill-opacity="0"/>
		</clipPath>
	</defs>
	<rect id="Property 1=poland" width="35.000000" height="37.000000" fill="#FFFFFF" fill-opacity="0"/>
	<g clip-path="url(#clip3_4209)">
		<path id="Vector" d="M31.1113 5.13892L3.88867 5.13892C2.85742 5.13892 1.86816 5.57202 1.13916 6.34302C0.409668 7.11401 0 8.15967 0 9.25L0 18.5L35 18.5L35 9.25C35 8.15967 34.5903 7.11401 33.8608 6.34302C33.1318 5.57202 32.1426 5.13892 31.1113 5.13892Z" fill="#FBFBFB" fill-opacity="1.000000" fill-rule="nonzero"/>
		<path id="Vector" d="M31.1113 5.13892L3.88867 5.13892C2.85742 5.13892 1.86816 5.57202 1.13916 6.34302C0.409668 7.11401 0 8.15967 0 9.25L0 18.5L35 18.5L35 9.25C35 8.15967 34.5903 7.11401 33.8608 6.34302C33.1318 5.57202 32.1426 5.13892 31.1113 5.13892ZM34.5 18L34.5 9.25Q34.5 8.84229 34.417 8.45215Q34.3525 8.15039 34.2383 7.85913Q34.0693 7.427 33.8071 7.06152Q33.666 6.8645 33.4976 6.68652Q33.1899 6.36133 32.8223 6.13257Q32.6196 6.00659 32.3989 5.90991Q32.0532 5.75854 31.6919 5.69165Q31.4062 5.63892 31.1113 5.63892L3.88867 5.63892Q3.59375 5.63892 3.30811 5.69165Q2.94678 5.75854 2.60107 5.90991Q2.38037 6.00659 2.17773 6.13257Q1.81006 6.36133 1.50244 6.68652Q1.33398 6.8645 1.19287 7.06152Q0.930664 7.42725 0.761719 7.85913Q0.647461 8.15039 0.583008 8.45239Q0.5 8.84229 0.5 9.25L0.5 18L34.5 18Z" fill="#999999" fill-opacity="1.000000" fill-rule="evenodd"/>
		<path id="Vector" d="M0 27.75C0 28.8403 0.409668 29.886 1.13916 30.657C1.86816 31.428 2.85742 31.8611 3.88867 31.8611L31.1113 31.8611C32.1426 31.8611 33.1318 31.428 33.8608 30.657C34.5903 29.886 35 28.8403 35 27.75L35 18.5L0 18.5L0 27.75Z" fill="#DC143C" fill-opacity="1.000000" fill-rule="nonzero"/>
	</g>
</svg>
