<svg width="32.000000" height="32.000000" viewBox="0 0 32 32" fill="none" xmlns="http://www.w3.org/2000/svg" xmlns:xlink="http://www.w3.org/1999/xlink">
	<desc>
			Created with Pixso.
	</desc>
	<defs/>
	<path id="Blue 500" d="M32 16.3657C32 15.1963 31.8926 14.0771 31.6934 13.001L16.3398 13.001L16.3398 19.166L25.1836 19.168C24.8242 21.2192 23.6699 22.9678 21.9004 24.1338L21.9004 28.1333L27.1641 28.1333C30.2383 25.3477 32 21.2305 32 16.3657Z" fill="#4285F4" fill-opacity="1.000000" fill-rule="nonzero"/>
	<path id="Green 500 1" d="M21.9082 24.1333C20.4434 25.1011 18.5566 25.667 16.3477 25.667C12.084 25.667 8.4668 22.8535 7.17188 19.061L1.74219 19.061L1.74219 23.186C4.43164 28.4131 9.96094 32 16.3477 32C20.7637 32 24.4727 30.5786 27.1719 28.1313L21.9082 24.1333Z" fill="#34A853" fill-opacity="1.000000" fill-rule="nonzero"/>
	<path id="Yellow 500 1" d="M6.65625 16.001C6.65625 14.936 6.83789 13.9067 7.16797 12.939L7.16797 8.81396L1.73828 8.81396C0.625 10.9756 0 13.4155 0 16.001C0 18.5864 0.626953 21.0264 1.73828 23.188L7.16797 19.063C6.83789 18.0952 6.65625 17.0659 6.65625 16.001Z" fill="#FABB05" fill-opacity="1.000000" fill-rule="nonzero"/>
	<path id="Red 500" d="M16.3477 6.33301C18.7578 6.33301 20.916 7.146 22.6191 8.73389L27.2852 4.16992C24.4512 1.58594 20.7578 0 16.3477 0C9.96289 0 4.43164 3.58691 1.74219 8.81396L7.17188 12.939C8.4668 9.14648 12.084 6.33301 16.3477 6.33301Z" fill="#E94235" fill-opacity="1.000000" fill-rule="nonzero"/>
</svg>
