<svg width="32.000000" height="32.000000" viewBox="0 0 32 32" fill="none" xmlns="http://www.w3.org/2000/svg" xmlns:xlink="http://www.w3.org/1999/xlink">
	<desc>
			Created with Pixso.
	</desc>
	<defs>
		<clipPath id="clip882_4990">
			<rect id="logos:facebook" width="32.000000" height="32.000000" fill="white" fill-opacity="0"/>
		</clipPath>
	</defs>
	<rect id="logos:facebook" width="32.000000" height="32.000000" fill="#FFFFFF" fill-opacity="0"/>
	<g clip-path="url(#clip882_4990)">
		<path id="Vector" d="M32 16C32 7.16345 24.8365 0 16 0C7.16351 0 0 7.16333 0 16C0 23.986 5.85101 30.6053 13.5 31.8057L13.5 20.625L9.4375 20.625L9.4375 16L13.5 16L13.5 12.475C13.5 8.46497 15.8887 6.25 19.5434 6.25C21.294 6.25 23.125 6.5625 23.125 6.5625L23.125 10.5L21.1075 10.5C19.1198 10.5 18.5 11.7334 18.5 12.9988L18.5 16L22.9375 16L22.2281 20.625L18.5 20.625L18.5 31.8057C26.149 30.6053 32 23.9861 32 16Z" fill="#1877F2" fill-opacity="1.000000" fill-rule="nonzero"/>
		<path id="Vector" d="M22.2281 20.625L22.9375 16L18.5 16L18.5 12.9988C18.5 11.7333 19.1199 10.5 21.1075 10.5L23.125 10.5L23.125 6.5625C23.125 6.5625 21.294 6.25 19.5434 6.25C15.8887 6.25 13.5 8.46497 13.5 12.475L13.5 16L9.4375 16L9.4375 20.625L13.5 20.625L13.5 31.8057C14.327 31.9352 15.1629 32.0002 16 32C16.8371 32.0002 17.673 31.9353 18.5 31.8057L18.5 20.625L22.2281 20.625Z" fill="#FFFFFF" fill-opacity="1.000000" fill-rule="nonzero"/>
	</g>
</svg>
