<svg width="48.461914" height="43.076935" viewBox="0 0 48.4619 43.0769" fill="none" xmlns="http://www.w3.org/2000/svg" xmlns:xlink="http://www.w3.org/1999/xlink">
	<desc>
			Created with Pixso.
	</desc>
	<defs/>
	<path id="Vector" d="M3.91309 43.0769C2.79883 43.0769 1.86816 42.7084 1.12207 41.9713C0.374023 41.2326 0 40.3128 0 39.212L0 13.4376C0 12.3368 0.374023 11.4178 1.12207 10.6807C1.86816 9.94199 2.79883 9.57266 3.91309 9.57266L11.0811 9.57266L14.3887 6.0188C14.748 5.6391 15.1777 5.33914 15.6807 5.11899C16.1846 4.89722 16.7129 4.78632 17.2656 4.78632L26.9336 4.78632C27.2783 4.78632 27.5664 4.90118 27.7988 5.13095C28.0303 5.36069 28.1455 5.64548 28.1455 5.98529C28.1455 6.32355 28.0303 6.60751 27.7988 6.83728C27.5664 7.0654 27.2783 7.17947 26.9336 7.17947L16.6113 7.17947L12.1475 11.9658L3.91309 11.9658C3.47852 11.9658 3.12207 12.1038 2.84277 12.3798C2.5625 12.6559 2.42285 13.0084 2.42285 13.4376L2.42285 39.212C2.42285 39.6411 2.5625 39.9937 2.84277 40.2697C3.12207 40.5457 3.47852 40.6838 3.91309 40.6838L39.7041 40.6838C40.1387 40.6838 40.4961 40.5457 40.7754 40.2697C41.0547 39.9937 41.1943 39.6411 41.1943 39.212L41.1943 21.2632C41.1943 20.9234 41.3105 20.6386 41.543 20.4089C41.7764 20.1791 42.0645 20.0651 42.4082 20.0667C42.751 20.0667 43.0381 20.1807 43.2715 20.4089C43.502 20.6386 43.6172 20.9234 43.6172 21.2632L43.6172 39.212C43.6172 40.3128 43.2441 41.2318 42.498 41.9689C41.75 42.7076 40.8184 43.0769 39.7041 43.0769L3.91309 43.0769ZM41.1943 7.17947L37.5596 7.17947C37.2158 7.17947 36.9277 7.06461 36.6973 6.83487C36.4658 6.60513 36.3496 6.32034 36.3477 5.9805C36.3477 5.64227 36.4639 5.35828 36.6973 5.12854C36.9297 4.90039 37.2168 4.78632 37.5596 4.78632L41.1943 4.78632L41.1943 1.19659C41.1943 0.85675 41.3105 0.572754 41.543 0.344604C41.7764 0.116455 42.0635 0.00158691 42.4062 0C42.748 0 43.0361 0.114868 43.2686 0.344604C43.5 0.572754 43.6152 0.85675 43.6152 1.19659L43.6152 4.78632L47.25 4.78632C47.5938 4.78632 47.8818 4.90118 48.1123 5.13095C48.3457 5.36069 48.4619 5.64548 48.4619 5.98529C48.4619 6.32355 48.3457 6.60751 48.1123 6.83728C47.8828 7.0654 47.5967 7.17947 47.252 7.17947L43.6172 7.17947L43.6172 10.7692C43.6172 11.1091 43.501 11.393 43.2686 11.6212C43.0361 11.851 42.748 11.9658 42.4062 11.9658C42.0635 11.9658 41.7764 11.851 41.543 11.6212C41.3105 11.393 41.1943 11.1091 41.1943 10.7692L41.1943 7.17947ZM21.8086 35.2513C24.3398 35.2513 26.4805 34.3897 28.2305 32.6667C29.9746 30.9388 30.8477 28.8248 30.8477 26.3248C30.8477 23.8247 29.9746 21.7108 28.2305 19.9829C26.4795 18.2598 24.3389 17.3983 21.8086 17.3983C19.2793 17.3983 17.1387 18.2598 15.3877 19.9829C13.6426 21.7108 12.7705 23.8247 12.7705 26.3248C12.7705 28.8248 13.6436 30.9388 15.3896 32.6667C17.1377 34.3897 19.2773 35.2513 21.8086 35.2513ZM21.8086 32.8581C19.9268 32.8581 18.3535 32.2343 17.0889 30.9867C15.8232 29.739 15.1914 28.1851 15.1914 26.3248C15.1914 24.4661 15.8232 22.9121 17.0889 21.6629C18.3535 20.4137 19.9268 19.7891 21.8086 19.7891C23.6904 19.7891 25.2646 20.4137 26.5293 21.6629C27.7939 22.9121 28.4268 24.4661 28.4268 26.3248C28.4268 28.1835 27.7939 29.7374 26.5293 30.9867C25.2646 32.2359 23.6904 32.8605 21.8086 32.8605L21.8086 32.8581Z" fill="#999999" fill-opacity="1.000000" fill-rule="nonzero"/>
</svg>
